Cormorant Upright-Regular.ufo
<glyph name="exclam" format="1">
  <advance width="208"/>
  <unicode hex="0021"/>
  <outline>
    <contour>
      <point x="89" y="418"/>
      <point x="94" y="275"/>
      <point x="98" y="162" type="curve" smooth="yes"/>
      <point x="98" y="159"/>
      <point x="107" y="159"/>
      <point x="107" y="162" type="curve" smooth="yes"/>
      <point x="112" y="275"/>
      <point x="118" y="418"/>
      <point x="138" y="531" type="curve" smooth="yes"/>
      <point x="139" y="534"/>
      <point x="121" y="538"/>
      <point x="104" y="538" type="curve" smooth="yes"/>
      <point x="87" y="538"/>
      <point x="70" y="534"/>
      <point x="70" y="531" type="curve" smooth="yes"/>
    </contour>
    <component base="period" xOffset="20"/>
  </outline>
</glyph>
<glyph name="ampersand" format="1">
  <advance width="639"/>
  <unicode hex="0026"/>
  <outline>
    <contour>
      <point x="390" y="-10"/>
      <point x="486" y="78"/>
      <point x="499" y="259" type="curve"/>
      <point x="486" y="264" type="line"/>
      <point x="478" y="100"/>
      <point x="399" y="19"/>
      <point x="289" y="19" type="curve" smooth="yes"/>
      <point x="181" y="19"/>
      <point x="81" y="124"/>
      <point x="108" y="265" type="curve" smooth="yes"/>
      <point x="122" y="326"/>
      <point x="163" y="375"/>
      <point x="210" y="375" type="curve" smooth="yes"/>
      <point x="234" y="375"/>
      <point x="267" y="367"/>
      <point x="286" y="330" type="curve"/>
      <point x="327" y="367" type="line"/>
      <point x="307" y="389"/>
      <point x="281" y="398"/>
      <point x="253" y="398" type="curve" smooth="yes"/>
      <point x="178" y="398"/>
      <point x="89" y="332"/>
      <point x="68" y="238" type="curve" smooth="yes"/>
      <point x="43" y="111"/>
      <point x="127" y="-10"/>
      <point x="262" y="-10" type="curve" smooth="yes"/>
    </contour>
    <contour>
      <point x="207" y="256"/>
      <point x="412" y="385"/>
      <point x="412" y="505" type="curve" smooth="yes"/>
      <point x="412" y="543"/>
      <point x="393" y="565"/>
      <point x="371" y="565" type="curve" smooth="yes"/>
      <point x="357" y="565"/>
      <point x="348" y="556"/>
      <point x="348" y="541" type="curve" smooth="yes"/>
      <point x="348" y="516"/>
      <point x="377" y="520"/>
      <point x="377" y="476" type="curve" smooth="yes"/>
      <point x="377" y="376"/>
      <point x="192" y="262"/>
      <point x="91" y="175" type="curve"/>
      <point x="98" y="168" type="line"/>
    </contour>
    <contour>
      <point x="351" y="200"/>
      <point x="356" y="210"/>
      <point x="356" y="219" type="curve" smooth="yes"/>
      <point x="356" y="234"/>
      <point x="344" y="247"/>
      <point x="344" y="264" type="curve" smooth="yes"/>
      <point x="344" y="274"/>
      <point x="353" y="282"/>
      <point x="370" y="282" type="curve" smooth="yes"/>
      <point x="427" y="282"/>
      <point x="503" y="214"/>
      <point x="559" y="214" type="curve" smooth="yes"/>
      <point x="603" y="214"/>
      <point x="639" y="255"/>
      <point x="639" y="296" type="curve" smooth="yes"/>
      <point x="639" y="316"/>
      <point x="630" y="321"/>
      <point x="619" y="321" type="curve" smooth="yes"/>
      <point x="606" y="321"/>
      <point x="599" y="315"/>
      <point x="599" y="303" type="curve" smooth="yes"/>
      <point x="599" y="285"/>
      <point x="616" y="275"/>
      <point x="616" y="259" type="curve" smooth="yes"/>
      <point x="616" y="251"/>
      <point x="606" y="244"/>
      <point x="591" y="244" type="curve" smooth="yes"/>
      <point x="540" y="244"/>
      <point x="467" y="309"/>
      <point x="409" y="309" type="curve" smooth="yes"/>
      <point x="362" y="309"/>
      <point x="316" y="269"/>
      <point x="316" y="226" type="curve" smooth="yes"/>
      <point x="316" y="206"/>
      <point x="326" y="200"/>
      <point x="337" y="200" type="curve" smooth="yes"/>
    </contour>
  </outline>
</glyph>
<glyph name="quotesingle" format="1">
  <advance width="118"/>
  <unicode hex="0027"/>
  <outline>
    <contour>
      <point x="42" y="309"/>
      <point x="50" y="310"/>
      <point x="51" y="313" type="curve" smooth="yes"/>
      <point x="93" y="545" type="line" smooth="yes"/>
      <point x="95" y="554"/>
      <point x="34" y="538"/>
      <point x="35" y="521" type="curve" smooth="yes"/>
      <point x="42" y="312" type="line" smooth="yes"/>
    </contour>
  </outline>
</glyph>
<glyph name="parenleft" format="1">
  <advance width="264"/>
  <unicode hex="0028"/>
  <outline>
    <contour>
      <point x="60" y="100"/>
      <point x="123" y="-38"/>
      <point x="234" y="-100" type="curve" smooth="yes"/>
      <point x="236" y="-101"/>
      <point x="240" y="-97"/>
      <point x="238" y="-95" type="curve" smooth="yes"/>
      <point x="148" y="-13"/>
      <point x="110" y="106"/>
      <point x="110" y="260" type="curve" smooth="yes"/>
      <point x="110" y="414"/>
      <point x="148" y="533"/>
      <point x="238" y="615" type="curve" smooth="yes"/>
      <point x="240" y="617"/>
      <point x="236" y="621"/>
      <point x="234" y="620" type="curve" smooth="yes"/>
      <point x="123" y="558"/>
      <point x="60" y="420"/>
      <point x="60" y="260" type="curve" smooth="yes"/>
    </contour>
    <contour>
      <point x="232" y="330" type="move" name="top"/>
    </contour>
  </outline>
</glyph>
<glyph name="plus" format="1">
  <advance width="340"/>
  <unicode hex="002B"/>
  <outline>
    <contour>
      <point x="311" y="146" type="line" smooth="yes"/>
      <point x="316" y="146"/>
      <point x="316" y="178"/>
      <point x="311" y="178" type="curve" smooth="yes"/>
      <point x="28" y="178" type="line" smooth="yes"/>
      <point x="24" y="178"/>
      <point x="24" y="146"/>
      <point x="29" y="146" type="curve" smooth="yes"/>
    </contour>
    <contour>
      <point x="186" y="303" type="line" smooth="yes"/>
      <point x="186" y="308"/>
      <point x="154" y="308"/>
      <point x="154" y="303" type="curve" smooth="yes"/>
      <point x="154" y="20" type="line" smooth="yes"/>
      <point x="154" y="16"/>
      <point x="186" y="16"/>
      <point x="186" y="21" type="curve" smooth="yes"/>
    </contour>
  </outline>
</glyph>
<glyph name="period" format="1">
  <advance width="167"/>
  <unicode hex="002E"/>
  <outline>
    <contour>
      <point x="105" y="-9"/>
      <point x="117" y="3"/>
      <point x="117" y="24" type="curve" smooth="yes"/>
      <point x="117" y="44"/>
      <point x="105" y="56"/>
      <point x="84" y="56" type="curve" smooth="yes"/>
      <point x="63" y="56"/>
      <point x="50" y="44"/>
      <point x="50" y="24" type="curve" smooth="yes"/>
      <point x="50" y="3"/>
      <point x="63" y="-9"/>
      <point x="84" y="-9" type="curve" smooth="yes"/>
    </contour>
  </outline>
</glyph>
<glyph name="zero" format="1">
  <advance width="400"/>
  <unicode hex="0030"/>
  <outline>
    <contour>
      <point x="300" y="-11"/>
      <point x="372" y="62"/>
      <point x="372" y="165" type="curve" smooth="yes"/>
      <point x="373" y="268"/>
      <point x="301" y="341"/>
      <point x="202" y="341" type="curve" smooth="yes"/>
      <point x="102" y="341"/>
      <point x="28" y="269"/>
      <point x="27" y="168" type="curve" smooth="yes"/>
      <point x="28" y="63"/>
      <point x="102" y="-11"/>
      <point x="201" y="-11" type="curve" smooth="yes"/>
    </contour>
    <contour>
      <point x="129" y="-1"/>
      <point x="80" y="74"/>
      <point x="79" y="174" type="curve" smooth="yes"/>
      <point x="80" y="264"/>
      <point x="120" y="331"/>
      <point x="194" y="331" type="curve" smooth="yes"/>
      <point x="261" y="331"/>
      <point x="321" y="275"/>
      <point x="321" y="155" type="curve" smooth="yes"/>
      <point x="321" y="63"/>
      <point x="285" y="-1"/>
      <point x="211" y="-1" type="curve" smooth="yes"/>
    </contour>
    <contour>
      <point x="210" y="330" type="move" name="top"/>
    </contour>
  </outline>
</glyph>
<glyph name="one" format="1">
  <advance width="264"/>
  <unicode hex="0031"/>
  <outline>
    <contour>
      <point x="69" y="0"/>
      <point x="106" y="2"/>
      <point x="146" y="2" type="curve" smooth="yes"/>
      <point x="186" y="2"/>
      <point x="222" y="0"/>
      <point x="250" y="0" type="curve" smooth="yes"/>
      <point x="255" y="0"/>
      <point x="255" y="10"/>
      <point x="250" y="10" type="curve" smooth="yes"/>
      <point x="177" y="10"/>
      <point x="166" y="20"/>
      <point x="166" y="69" type="curve" smooth="yes"/>
      <point x="166" y="334" type="line" smooth="yes"/>
      <point x="166" y="337"/>
      <point x="161" y="340"/>
      <point x="158" y="338" type="curve" smooth="yes"/>
      <point x="36" y="278" type="line" smooth="yes"/>
      <point x="30" y="276"/>
      <point x="35" y="267"/>
      <point x="40" y="269" type="curve" smooth="yes"/>
      <point x="117" y="305"/>
      <point x="124" y="301"/>
      <point x="125" y="230" type="curve" smooth="yes"/>
      <point x="124" y="69" type="line" smooth="yes"/>
      <point x="124" y="20"/>
      <point x="109" y="10"/>
      <point x="40" y="10" type="curve" smooth="yes"/>
      <point x="35" y="10"/>
      <point x="35" y="0"/>
      <point x="40" y="0" type="curve" smooth="yes"/>
    </contour>
    <contour>
      <point x="197" y="566" type="move" name="top"/>
    </contour>
    <contour>
      <point x="103" y="0" type="move" name="bottom"/>
    </contour>
    <contour>
      <point x="234" y="330" type="move" name="topright"/>
    </contour>
  </outline>
</glyph>
<glyph name="two" format="1">
  <advance width="344"/>
  <unicode hex="0032"/>
  <outline>
    <contour>
      <point x="28" y="6"/>
      <point x="33" y="0"/>
      <point x="38" y="0" type="curve" smooth="yes"/>
      <point x="123" y="0"/>
      <point x="217" y="0"/>
      <point x="298" y="0" type="curve" smooth="yes"/>
      <point x="303" y="0"/>
      <point x="306" y="5"/>
      <point x="306" y="9" type="curve" smooth="yes"/>
      <point x="318" y="93" type="line" smooth="yes"/>
      <point x="318" y="96"/>
      <point x="309" y="97"/>
      <point x="308" y="94" type="curve" smooth="yes"/>
      <point x="295" y="36"/>
      <point x="274" y="35"/>
      <point x="96" y="35" type="curve" smooth="yes"/>
      <point x="91" y="35"/>
      <point x="88" y="38"/>
      <point x="92" y="41" type="curve" smooth="yes"/>
      <point x="228" y="145"/>
      <point x="276" y="198"/>
      <point x="276" y="256" type="curve" smooth="yes"/>
      <point x="276" y="306"/>
      <point x="241" y="341"/>
      <point x="183" y="341" type="curve" smooth="yes"/>
      <point x="143" y="341"/>
      <point x="114" y="325"/>
      <point x="97" y="325" type="curve" smooth="yes"/>
      <point x="89" y="325"/>
      <point x="80" y="328"/>
      <point x="85" y="347" type="curve" smooth="yes"/>
      <point x="86" y="350"/>
      <point x="76" y="352"/>
      <point x="75" y="349" type="curve" smooth="yes"/>
      <point x="43" y="223" type="line" smooth="yes"/>
      <point x="42" y="220"/>
      <point x="52" y="218"/>
      <point x="53" y="221" type="curve" smooth="yes"/>
      <point x="72" y="290"/>
      <point x="107" y="324"/>
      <point x="152" y="324" type="curve" smooth="yes"/>
      <point x="197" y="324"/>
      <point x="231" y="295"/>
      <point x="231" y="246" type="curve" smooth="yes"/>
      <point x="231" y="183"/>
      <point x="179" y="125"/>
      <point x="32" y="10" type="curve" smooth="yes"/>
    </contour>
  </outline>
</glyph>
<glyph name="five" format="1">
  <advance width="350"/>
  <unicode hex="0035"/>
  <outline>
    <contour>
      <point x="67" y="147" type="line"/>
      <point x="89" y="274" type="line" smooth="yes"/>
      <point x="90" y="282"/>
      <point x="94" y="286"/>
      <point x="102" y="286" type="curve" smooth="yes"/>
      <point x="263" y="290" type="line" smooth="yes"/>
      <point x="277" y="290"/>
      <point x="283" y="291"/>
      <point x="287" y="305" type="curve" smooth="yes"/>
      <point x="304" y="360" type="line" smooth="yes"/>
      <point x="305" y="364"/>
      <point x="296" y="365"/>
      <point x="295" y="362" type="curve" smooth="yes"/>
      <point x="287" y="339"/>
      <point x="285" y="338"/>
      <point x="88" y="315" type="curve" smooth="yes"/>
      <point x="79" y="314"/>
      <point x="78" y="313"/>
      <point x="77" y="305" type="curve" smooth="yes"/>
      <point x="50" y="153" type="line" smooth="yes"/>
      <point x="49" y="148"/>
      <point x="52" y="143"/>
      <point x="58" y="143" type="curve" smooth="yes"/>
      <point x="183" y="143"/>
      <point x="250" y="86"/>
      <point x="250" y="-7" type="curve" smooth="yes"/>
      <point x="250" y="-81"/>
      <point x="206" y="-152"/>
      <point x="53" y="-226" type="curve" smooth="yes"/>
      <point x="49" y="-228"/>
      <point x="54" y="-237"/>
      <point x="58" y="-235" type="curve" smooth="yes"/>
      <point x="228" y="-156"/>
      <point x="298" y="-89"/>
      <point x="298" y="8" type="curve" smooth="yes"/>
      <point x="298" y="102"/>
      <point x="233" y="168"/>
      <point x="67" y="168" type="curve"/>
    </contour>
  </outline>
</glyph>
<glyph name="eight" format="1">
  <advance width="404"/>
  <unicode hex="0038"/>
  <outline>
    <contour>
      <point x="302" y="-11"/>
      <point x="380" y="52"/>
      <point x="380" y="138" type="curve" smooth="yes"/>
      <point x="380" y="296"/>
      <point x="123" y="291"/>
      <point x="123" y="414" type="curve" smooth="yes"/>
      <point x="123" y="455"/>
      <point x="151" y="478"/>
      <point x="195" y="478" type="curve" smooth="yes"/>
      <point x="249" y="478"/>
      <point x="284" y="444"/>
      <point x="284" y="385" type="curve" smooth="yes"/>
      <point x="284" y="347"/>
      <point x="269" y="322"/>
      <point x="226" y="290" type="curve"/>
      <point x="230" y="285" type="line"/>
      <point x="290" y="317"/>
      <point x="327" y="354"/>
      <point x="327" y="400" type="curve" smooth="yes"/>
      <point x="327" y="450"/>
      <point x="284" y="491"/>
      <point x="212" y="491" type="curve" smooth="yes"/>
      <point x="152" y="491"/>
      <point x="83" y="458"/>
      <point x="83" y="392" type="curve" smooth="yes"/>
      <point x="83" y="265"/>
      <point x="336" y="279"/>
      <point x="336" y="112" type="curve" smooth="yes"/>
      <point x="336" y="43"/>
      <point x="290" y="3"/>
      <point x="223" y="3" type="curve" smooth="yes"/>
      <point x="145" y="3"/>
      <point x="84" y="71"/>
      <point x="84" y="150" type="curve" smooth="yes"/>
      <point x="84" y="213"/>
      <point x="123" y="264"/>
      <point x="190" y="291" type="curve"/>
      <point x="184" y="298" type="line"/>
      <point x="115" y="275"/>
      <point x="35" y="206"/>
      <point x="35" y="128" type="curve" smooth="yes"/>
      <point x="35" y="54"/>
      <point x="103" y="-11"/>
      <point x="199" y="-11" type="curve" smooth="yes"/>
    </contour>
  </outline>
</glyph>
<glyph name="nine" format="1">
  <advance width="398"/>
  <unicode hex="0039"/>
  <outline>
    <contour>
      <point x="203" y="89"/>
      <point x="242" y="106"/>
      <point x="270" y="138" type="curve" smooth="yes"/>
      <point x="272" y="141"/>
      <point x="264" y="147"/>
      <point x="261" y="144" type="curve" smooth="yes"/>
      <point x="231" y="120"/>
      <point x="210" y="110"/>
      <point x="178" y="110" type="curve" smooth="yes"/>
      <point x="111" y="110"/>
      <point x="79" y="163"/>
      <point x="79" y="224" type="curve" smooth="yes"/>
      <point x="79" y="289"/>
      <point x="116" y="326"/>
      <point x="172" y="326" type="curve" smooth="yes"/>
      <point x="273" y="326"/>
      <point x="309" y="205"/>
      <point x="309" y="123" type="curve" smooth="yes"/>
      <point x="309" y="-2"/>
      <point x="224" y="-158"/>
      <point x="52" y="-226" type="curve" smooth="yes"/>
      <point x="48" y="-228"/>
      <point x="52" y="-236"/>
      <point x="56" y="-235" type="curve" smooth="yes"/>
      <point x="245" y="-177"/>
      <point x="356" y="-14"/>
      <point x="356" y="140" type="curve" smooth="yes"/>
      <point x="356" y="260"/>
      <point x="290" y="341"/>
      <point x="186" y="341" type="curve" smooth="yes"/>
      <point x="101" y="341"/>
      <point x="32" y="286"/>
      <point x="32" y="209" type="curve" smooth="yes"/>
      <point x="32" y="155"/>
      <point x="65" y="89"/>
      <point x="154" y="89" type="curve" smooth="yes"/>
    </contour>
  </outline>
</glyph>
<glyph name="equal" format="1">
  <advance width="400"/>
  <unicode hex="003D"/>
  <outline>
    <contour>
      <point x="371" y="86" type="line" smooth="yes"/>
      <point x="376" y="86"/>
      <point x="376" y="118"/>
      <point x="371" y="118" type="curve" smooth="yes"/>
      <point x="28" y="118" type="line" smooth="yes"/>
      <point x="24" y="118"/>
      <point x="24" y="86"/>
      <point x="29" y="86" type="curve" smooth="yes"/>
    </contour>
    <contour>
      <point x="371" y="206" type="line" smooth="yes"/>
      <point x="376" y="206"/>
      <point x="376" y="238"/>
      <point x="371" y="238" type="curve" smooth="yes"/>
      <point x="28" y="238" type="line" smooth="yes"/>
      <point x="24" y="238"/>
      <point x="24" y="206"/>
      <point x="29" y="206" type="curve" smooth="yes"/>
    </contour>
  </outline>
</glyph>
<glyph name="greater" format="1">
  <advance width="348"/>
  <unicode hex="003E"/>
  <outline>
    <contour>
      <point x="32" y="303" type="line" smooth="yes"/>
      <point x="24" y="307"/>
      <point x="24" y="273"/>
      <point x="32" y="269" type="curve" smooth="yes"/>
      <point x="298" y="155" type="line"/>
      <point x="298" y="168" type="line"/>
      <point x="32" y="54" type="line" smooth="yes"/>
      <point x="24" y="50"/>
      <point x="24" y="17"/>
      <point x="32" y="21" type="curve" smooth="yes"/>
      <point x="317" y="147" type="line" smooth="yes"/>
      <point x="323" y="150"/>
      <point x="323" y="173"/>
      <point x="317" y="176" type="curve" smooth="yes"/>
    </contour>
  </outline>
</glyph>
<glyph name="question" format="1">
  <advance width="280"/>
  <unicode hex="003F"/>
  <outline>
    <contour>
      <point x="173" y="524"/>
      <point x="201" y="492"/>
      <point x="201" y="442" type="curve" smooth="yes"/>
      <point x="201" y="350"/>
      <point x="108" y="348"/>
      <point x="108" y="265" type="curve" smooth="yes"/>
      <point x="108" y="241"/>
      <point x="116" y="195"/>
      <point x="130" y="163" type="curve" smooth="yes"/>
      <point x="131" y="160"/>
      <point x="140" y="162"/>
      <point x="139" y="165" type="curve" smooth="yes"/>
      <point x="136" y="183"/>
      <point x="134" y="198"/>
      <point x="134" y="212" type="curve" smooth="yes"/>
      <point x="134" y="251"/>
      <point x="149" y="278"/>
      <point x="189" y="318" type="curve" smooth="yes"/>
      <point x="218" y="347"/>
      <point x="250" y="377"/>
      <point x="250" y="432" type="curve" smooth="yes"/>
      <point x="250" y="501"/>
      <point x="199" y="534"/>
      <point x="138" y="534" type="curve" smooth="yes"/>
      <point x="84" y="534"/>
      <point x="39" y="508"/>
      <point x="39" y="477" type="curve" smooth="yes"/>
      <point x="39" y="464"/>
      <point x="49" y="451"/>
      <point x="65" y="451" type="curve" smooth="yes"/>
      <point x="85" y="451"/>
      <point x="91" y="466"/>
      <point x="94" y="483" type="curve" smooth="yes"/>
      <point x="97" y="502"/>
      <point x="101" y="524"/>
      <point x="134" y="524" type="curve" smooth="yes"/>
    </contour>
    <component base="period" xOffset="48"/>
  </outline>
</glyph>
<glyph name="B" format="1">
  <advance width="468"/>
  <unicode hex="0042"/>
  <outline>
    <contour>
      <point x="317" y="312"/>
      <point x="367" y="358"/>
      <point x="367" y="423" type="curve" smooth="yes"/>
      <point x="367" y="484"/>
      <point x="331" y="537"/>
      <point x="234" y="537" type="curve" smooth="yes"/>
      <point x="208" y="537"/>
      <point x="163" y="532"/>
      <point x="134" y="532" type="curve" smooth="yes"/>
      <point x="97" y="532"/>
      <point x="65" y="534"/>
      <point x="38" y="534" type="curve" smooth="yes"/>
      <point x="35" y="534"/>
      <point x="35" y="524"/>
      <point x="38" y="524" type="curve" smooth="yes"/>
      <point x="103" y="524"/>
      <point x="112" y="514"/>
      <point x="112" y="465" type="curve" smooth="yes"/>
      <point x="112" y="69" type="line" smooth="yes"/>
      <point x="112" y="20"/>
      <point x="102" y="10"/>
      <point x="37" y="10" type="curve" smooth="yes"/>
      <point x="34" y="10"/>
      <point x="34" y="0"/>
      <point x="37" y="0" type="curve" smooth="yes"/>
      <point x="64" y="0"/>
      <point x="97" y="2"/>
      <point x="134" y="2" type="curve" smooth="yes"/>
      <point x="173" y="2"/>
      <point x="223" y="-3"/>
      <point x="260" y="-3" type="curve" smooth="yes"/>
      <point x="351" y="-3"/>
      <point x="420" y="65"/>
      <point x="420" y="158" type="curve" smooth="yes"/>
      <point x="420" y="240"/>
      <point x="357" y="302"/>
      <point x="261" y="302" type="curve"/>
      <point x="252" y="294" type="line"/>
    </contour>
    <contour>
      <point x="293" y="526"/>
      <point x="321" y="475"/>
      <point x="321" y="417" type="curve" smooth="yes"/>
      <point x="321" y="351"/>
      <point x="288" y="300"/>
      <point x="197" y="300" type="curve" smooth="yes"/>
      <point x="194" y="300"/>
      <point x="168" y="300"/>
      <point x="131" y="303" type="curve"/>
      <point x="157" y="296" type="line"/>
      <point x="157" y="463" type="line" smooth="yes"/>
      <point x="157" y="524"/>
      <point x="172" y="526"/>
      <point x="214" y="526" type="curve" smooth="yes"/>
    </contour>
    <contour>
      <point x="172" y="10"/>
      <point x="157" y="26"/>
      <point x="157" y="69" type="curve" smooth="yes"/>
      <point x="157" y="289" type="line"/>
      <point x="134" y="280" type="line"/>
      <point x="165" y="284"/>
      <point x="195" y="285"/>
      <point x="227" y="284" type="curve" smooth="yes"/>
      <point x="316" y="282"/>
      <point x="370" y="222"/>
      <point x="370" y="137" type="curve" smooth="yes"/>
      <point x="370" y="58"/>
      <point x="332" y="10"/>
      <point x="248" y="10" type="curve" smooth="yes"/>
    </contour>
    <contour>
      <point x="131" y="303" type="move"/>
    </contour>
  </outline>
</glyph>
<glyph name="D" format="1">
  <advance width="560"/>
  <unicode hex="0044"/>
  <outline>
    <contour>
      <point x="394" y="-3"/>
      <point x="522" y="105"/>
      <point x="522" y="276" type="curve" smooth="yes"/>
      <point x="522" y="423"/>
      <point x="406" y="536"/>
      <point x="235" y="536" type="curve" smooth="yes"/>
      <point x="207" y="536"/>
      <point x="163" y="532"/>
      <point x="129" y="532" type="curve" smooth="yes"/>
      <point x="93" y="532"/>
      <point x="60" y="534"/>
      <point x="35" y="534" type="curve" smooth="yes"/>
      <point x="31" y="534"/>
      <point x="32" y="524"/>
      <point x="35" y="524" type="curve" smooth="yes"/>
      <point x="95" y="524"/>
      <point x="106" y="514"/>
      <point x="107" y="465" type="curve" smooth="yes"/>
      <point x="107" y="69" type="line" smooth="yes"/>
      <point x="107" y="20"/>
      <point x="95" y="10"/>
      <point x="35" y="10" type="curve" smooth="yes"/>
      <point x="31" y="10"/>
      <point x="32" y="0"/>
      <point x="35" y="0" type="curve" smooth="yes"/>
      <point x="60" y="0"/>
      <point x="93" y="2"/>
      <point x="130" y="2" type="curve" smooth="yes"/>
      <point x="167" y="2"/>
      <point x="216" y="-3"/>
      <point x="246" y="-3" type="curve" smooth="yes"/>
    </contour>
    <contour>
      <point x="167" y="8"/>
      <point x="151" y="30"/>
      <point x="151" y="79" type="curve" smooth="yes"/>
      <point x="151" y="463" type="line" smooth="yes"/>
      <point x="151" y="517"/>
      <point x="177" y="525"/>
      <point x="243" y="525" type="curve" smooth="yes"/>
      <point x="381" y="525"/>
      <point x="468" y="407"/>
      <point x="468" y="257" type="curve" smooth="yes"/>
      <point x="468" y="96"/>
      <point x="371" y="8"/>
      <point x="238" y="8" type="curve" smooth="yes"/>
    </contour>
    <contour>
      <point x="282" y="267" type="move" name="center"/>
    </contour>
    <contour>
      <point x="271" y="0" type="move" name="bottom"/>
    </contour>
    <contour>
      <point x="229" y="534" type="move" name="top"/>
    </contour>
  </outline>
</glyph>
<glyph name="E" format="1">
  <advance width="470"/>
  <unicode hex="0045"/>
  <outline>
    <contour>
      <point x="421" y="0" type="line" smooth="yes"/>
      <point x="431" y="0"/>
      <point x="434" y="3"/>
      <point x="434" y="13" type="curve" smooth="yes"/>
      <point x="434" y="48"/>
      <point x="436" y="94"/>
      <point x="441" y="124" type="curve" smooth="yes"/>
      <point x="442" y="128"/>
      <point x="431" y="130"/>
      <point x="430" y="126" type="curve" smooth="yes"/>
      <point x="421" y="61"/>
      <point x="389" y="15"/>
      <point x="347" y="15" type="curve" smooth="yes"/>
      <point x="224" y="15" type="line" smooth="yes"/>
      <point x="164" y="15"/>
      <point x="155" y="25"/>
      <point x="155" y="73" type="curve" smooth="yes"/>
      <point x="155" y="464" type="line" smooth="yes"/>
      <point x="156" y="513"/>
      <point x="164" y="522"/>
      <point x="224" y="522" type="curve" smooth="yes"/>
      <point x="317" y="522" type="line" smooth="yes"/>
      <point x="365" y="522"/>
      <point x="394" y="481"/>
      <point x="395" y="422" type="curve" smooth="yes"/>
      <point x="395" y="418"/>
      <point x="406" y="417"/>
      <point x="406" y="422" type="curve" smooth="yes"/>
      <point x="405" y="446"/>
      <point x="404" y="496"/>
      <point x="403" y="527" type="curve" smooth="yes"/>
      <point x="403" y="532"/>
      <point x="402" y="534"/>
      <point x="397" y="534" type="curve" smooth="yes"/>
      <point x="38" y="534" type="line" smooth="yes"/>
      <point x="35" y="534"/>
      <point x="35" y="524"/>
      <point x="38" y="524" type="curve" smooth="yes"/>
      <point x="99" y="524"/>
      <point x="109" y="514"/>
      <point x="111" y="465" type="curve" smooth="yes"/>
      <point x="111" y="69" type="line" smooth="yes"/>
      <point x="111" y="20"/>
      <point x="100" y="10"/>
      <point x="39" y="10" type="curve" smooth="yes"/>
      <point x="36" y="10"/>
      <point x="36" y="0"/>
      <point x="39" y="0" type="curve" smooth="yes"/>
    </contour>
    <contour>
      <point x="369" y="229"/>
      <point x="367" y="252"/>
      <point x="367" y="278" type="curve" smooth="yes"/>
      <point x="367" y="298"/>
      <point x="368" y="313"/>
      <point x="367" y="345" type="curve" smooth="yes"/>
      <point x="368" y="350"/>
      <point x="357" y="350"/>
      <point x="357" y="345" type="curve" smooth="yes"/>
      <point x="358" y="302"/>
      <point x="343" y="286"/>
      <point x="294" y="286" type="curve" smooth="yes"/>
      <point x="136" y="286" type="line"/>
      <point x="135" y="270" type="line" smooth="yes"/>
      <point x="290" y="270" type="line" smooth="yes"/>
      <point x="342" y="270"/>
      <point x="359" y="251"/>
      <point x="359" y="200" type="curve" smooth="yes"/>
      <point x="359" y="195"/>
      <point x="369" y="195"/>
      <point x="369" y="200" type="curve" smooth="yes"/>
    </contour>
    <contour>
      <point x="404" y="10" type="move" name="ogonek"/>
    </contour>
    <contour>
      <point x="251" y="0" type="move" name="bottom"/>
    </contour>
    <contour>
      <point x="235" y="534" type="move" name="top"/>
    </contour>
  </outline>
</glyph>
<glyph name="F" format="1">
  <advance width="444"/>
  <unicode hex="0046"/>
  <outline>
    <contour>
      <point x="61" y="0"/>
      <point x="94" y="2"/>
      <point x="128" y="2" type="curve" smooth="yes"/>
      <point x="179" y="2"/>
      <point x="223" y="0"/>
      <point x="257" y="0" type="curve" smooth="yes"/>
      <point x="260" y="0"/>
      <point x="260" y="10"/>
      <point x="257" y="10" type="curve" smooth="yes"/>
      <point x="161" y="10"/>
      <point x="155" y="22"/>
      <point x="152" y="73" type="curve" smooth="yes"/>
      <point x="152" y="464" type="line" smooth="yes"/>
      <point x="153" y="513"/>
      <point x="162" y="522"/>
      <point x="222" y="522" type="curve" smooth="yes"/>
      <point x="315" y="522" type="line" smooth="yes"/>
      <point x="362" y="522"/>
      <point x="392" y="481"/>
      <point x="393" y="422" type="curve" smooth="yes"/>
      <point x="393" y="418"/>
      <point x="404" y="417"/>
      <point x="404" y="422" type="curve" smooth="yes"/>
      <point x="403" y="446"/>
      <point x="402" y="496"/>
      <point x="401" y="527" type="curve" smooth="yes"/>
      <point x="401" y="532"/>
      <point x="400" y="534"/>
      <point x="394" y="534" type="curve" smooth="yes"/>
      <point x="36" y="534" type="line" smooth="yes"/>
      <point x="32" y="534"/>
      <point x="33" y="524"/>
      <point x="36" y="524" type="curve" smooth="yes"/>
      <point x="96" y="524"/>
      <point x="107" y="514"/>
      <point x="108" y="465" type="curve" smooth="yes"/>
      <point x="108" y="69" type="line" smooth="yes"/>
      <point x="108" y="20"/>
      <point x="97" y="10"/>
      <point x="37" y="10" type="curve" smooth="yes"/>
      <point x="34" y="10"/>
      <point x="34" y="0"/>
      <point x="37" y="0" type="curve" smooth="yes"/>
    </contour>
    <contour>
      <point x="358" y="219"/>
      <point x="356" y="242"/>
      <point x="356" y="268" type="curve" smooth="yes"/>
      <point x="356" y="288"/>
      <point x="357" y="303"/>
      <point x="356" y="335" type="curve" smooth="yes"/>
      <point x="357" y="340"/>
      <point x="346" y="340"/>
      <point x="346" y="335" type="curve" smooth="yes"/>
      <point x="347" y="292"/>
      <point x="332" y="276"/>
      <point x="283" y="276" type="curve" smooth="yes"/>
      <point x="125" y="276" type="line"/>
      <point x="124" y="260" type="line" smooth="yes"/>
      <point x="279" y="260" type="line" smooth="yes"/>
      <point x="331" y="260"/>
      <point x="348" y="241"/>
      <point x="348" y="190" type="curve" smooth="yes"/>
      <point x="348" y="185"/>
      <point x="358" y="185"/>
      <point x="358" y="190" type="curve" smooth="yes"/>
    </contour>
  </outline>
</glyph>
<glyph name="H" format="1">
  <advance width="620"/>
  <unicode hex="0048"/>
  <outline>
    <contour>
      <point x="59" y="0"/>
      <point x="92" y="2"/>
      <point x="126" y="2" type="curve" smooth="yes"/>
      <point x="164" y="2"/>
      <point x="197" y="0"/>
      <point x="222" y="0" type="curve" smooth="yes"/>
      <point x="225" y="0"/>
      <point x="225" y="10"/>
      <point x="222" y="10" type="curve" smooth="yes"/>
      <point x="160" y="10"/>
      <point x="151" y="20"/>
      <point x="151" y="69" type="curve" smooth="yes"/>
      <point x="151" y="463" type="line" smooth="yes"/>
      <point x="152" y="512"/>
      <point x="162" y="524"/>
      <point x="223" y="524" type="curve" smooth="yes"/>
      <point x="226" y="524"/>
      <point x="226" y="534"/>
      <point x="223" y="534" type="curve" smooth="yes"/>
      <point x="198" y="534"/>
      <point x="163" y="532"/>
      <point x="128" y="532" type="curve" smooth="yes"/>
      <point x="93" y="532"/>
      <point x="61" y="534"/>
      <point x="37" y="534" type="curve" smooth="yes"/>
      <point x="33" y="534"/>
      <point x="34" y="524"/>
      <point x="37" y="524" type="curve" smooth="yes"/>
      <point x="97" y="524"/>
      <point x="106" y="514"/>
      <point x="107" y="465" type="curve" smooth="yes"/>
      <point x="107" y="69" type="line" smooth="yes"/>
      <point x="107" y="20"/>
      <point x="95" y="10"/>
      <point x="35" y="10" type="curve" smooth="yes"/>
      <point x="31" y="10"/>
      <point x="32" y="0"/>
      <point x="35" y="0" type="curve" smooth="yes"/>
    </contour>
    <contour>
      <point x="487" y="270" type="line"/>
      <point x="487" y="286" type="line"/>
      <point x="127" y="286" type="line"/>
      <point x="126" y="270" type="line"/>
    </contour>
    <contour>
      <point x="422" y="0"/>
      <point x="456" y="2"/>
      <point x="491" y="2" type="curve" smooth="yes"/>
      <point x="527" y="2"/>
      <point x="560" y="0"/>
      <point x="584" y="0" type="curve" smooth="yes"/>
      <point x="587" y="0"/>
      <point x="587" y="10"/>
      <point x="584" y="10" type="curve" smooth="yes"/>
      <point x="523" y="10"/>
      <point x="513" y="20"/>
      <point x="512" y="69" type="curve" smooth="yes"/>
      <point x="512" y="465" type="line" smooth="yes"/>
      <point x="512" y="514"/>
      <point x="524" y="524"/>
      <point x="584" y="524" type="curve" smooth="yes"/>
      <point x="587" y="524"/>
      <point x="587" y="534"/>
      <point x="583" y="534" type="curve" smooth="yes"/>
      <point x="559" y="534"/>
      <point x="524" y="532"/>
      <point x="490" y="532" type="curve" smooth="yes"/>
      <point x="455" y="532"/>
      <point x="422" y="534"/>
      <point x="397" y="534" type="curve" smooth="yes"/>
      <point x="394" y="534"/>
      <point x="394" y="524"/>
      <point x="398" y="524" type="curve" smooth="yes"/>
      <point x="459" y="524"/>
      <point x="468" y="512"/>
      <point x="467" y="463" type="curve" smooth="yes"/>
      <point x="468" y="69" type="line" smooth="yes"/>
      <point x="468" y="20"/>
      <point x="458" y="10"/>
      <point x="397" y="10" type="curve" smooth="yes"/>
      <point x="393" y="10"/>
      <point x="393" y="0"/>
      <point x="397" y="0" type="curve" smooth="yes"/>
    </contour>
    <contour>
      <point x="281" y="267" type="move" name="center"/>
    </contour>
    <contour>
      <point x="322" y="0" type="move" name="bottom"/>
    </contour>
    <contour>
      <point x="311" y="534" type="move" name="top"/>
    </contour>
  </outline>
</glyph>
<glyph name="I" format="1">
  <advance width="273"/>
  <unicode hex="0049"/>
  <outline>
    <contour>
      <point x="68" y="0"/>
      <point x="103" y="2"/>
      <point x="138" y="2" type="curve" smooth="yes"/>
      <point x="177" y="2"/>
      <point x="205" y="0"/>
      <point x="231" y="0" type="curve" smooth="yes"/>
      <point x="234" y="0"/>
      <point x="234" y="10"/>
      <point x="230" y="10" type="curve" smooth="yes"/>
      <point x="169" y="10"/>
      <point x="160" y="20"/>
      <point x="159" y="69" type="curve" smooth="yes"/>
      <point x="159" y="463" type="line" smooth="yes"/>
      <point x="160" y="512"/>
      <point x="170" y="524"/>
      <point x="230" y="524" type="curve" smooth="yes"/>
      <point x="234" y="524"/>
      <point x="234" y="534"/>
      <point x="230" y="534" type="curve" smooth="yes"/>
      <point x="206" y="534"/>
      <point x="174" y="532"/>
      <point x="135" y="532" type="curve" smooth="yes"/>
      <point x="99" y="532"/>
      <point x="67" y="534"/>
      <point x="42" y="534" type="curve" smooth="yes"/>
      <point x="39" y="534"/>
      <point x="39" y="524"/>
      <point x="42" y="524" type="curve" smooth="yes"/>
      <point x="103" y="524"/>
      <point x="114" y="514"/>
      <point x="114" y="465" type="curve" smooth="yes"/>
      <point x="114" y="69" type="line" smooth="yes"/>
      <point x="115" y="20"/>
      <point x="103" y="10"/>
      <point x="42" y="10" type="curve" smooth="yes"/>
      <point x="39" y="10"/>
      <point x="39" y="0"/>
      <point x="43" y="0" type="curve" smooth="yes"/>
    </contour>
    <contour>
      <point x="142" y="10" type="move" name="ogonek"/>
    </contour>
    <contour>
      <point x="137" y="0" type="move" name="bottom"/>
    </contour>
    <contour>
      <point x="134" y="534" type="move" name="top"/>
    </contour>
  </outline>
</glyph>
<glyph name="J" format="1">
  <advance width="245"/>
  <unicode hex="004A"/>
  <outline>
    <contour>
      <point x="122" y="-126"/>
      <point x="149" y="-76"/>
      <point x="149" y="57" type="curve" smooth="yes"/>
      <point x="149" y="463" type="line" smooth="yes"/>
      <point x="150" y="512"/>
      <point x="160" y="524"/>
      <point x="221" y="524" type="curve" smooth="yes"/>
      <point x="224" y="524"/>
      <point x="225" y="534"/>
      <point x="221" y="534" type="curve" smooth="yes"/>
      <point x="197" y="534"/>
      <point x="164" y="532"/>
      <point x="125" y="532" type="curve" smooth="yes"/>
      <point x="89" y="532"/>
      <point x="58" y="534"/>
      <point x="32" y="534" type="curve" smooth="yes"/>
      <point x="29" y="534"/>
      <point x="29" y="524"/>
      <point x="32" y="524" type="curve" smooth="yes"/>
      <point x="93" y="524"/>
      <point x="104" y="514"/>
      <point x="104" y="465" type="curve" smooth="yes"/>
      <point x="104" y="34" type="line" smooth="yes"/>
      <point x="105" y="-60"/>
      <point x="86" y="-124"/>
      <point x="35" y="-156" type="curve" smooth="yes"/>
      <point x="31" y="-158"/>
      <point x="37" y="-167"/>
      <point x="40" y="-166" type="curve" smooth="yes"/>
    </contour>
    <contour>
      <point x="123" y="534" type="move" name="top"/>
    </contour>
    <contour>
      <point x="123" y="0" type="move" name="bottom"/>
    </contour>
  </outline>
</glyph>
<glyph name="L" format="1">
  <advance width="454"/>
  <unicode hex="004C"/>
  <outline>
    <contour>
      <point x="427" y="0" type="line" smooth="yes"/>
      <point x="437" y="0"/>
      <point x="441" y="3"/>
      <point x="441" y="13" type="curve" smooth="yes"/>
      <point x="441" y="48"/>
      <point x="444" y="95"/>
      <point x="447" y="125" type="curve" smooth="yes"/>
      <point x="447" y="128"/>
      <point x="436" y="129"/>
      <point x="436" y="126" type="curve" smooth="yes"/>
      <point x="427" y="61"/>
      <point x="401" y="15"/>
      <point x="333" y="15" type="curve" smooth="yes"/>
      <point x="221" y="15" type="line" smooth="yes"/>
      <point x="161" y="15"/>
      <point x="152" y="25"/>
      <point x="151" y="73" type="curve" smooth="yes"/>
      <point x="151" y="464" type="line" smooth="yes"/>
      <point x="152" y="513"/>
      <point x="162" y="524"/>
      <point x="223" y="524" type="curve" smooth="yes"/>
      <point x="226" y="524"/>
      <point x="226" y="534"/>
      <point x="223" y="534" type="curve" smooth="yes"/>
      <point x="198" y="534"/>
      <point x="163" y="532"/>
      <point x="128" y="532" type="curve" smooth="yes"/>
      <point x="93" y="532"/>
      <point x="61" y="534"/>
      <point x="37" y="534" type="curve" smooth="yes"/>
      <point x="33" y="534"/>
      <point x="34" y="524"/>
      <point x="37" y="524" type="curve" smooth="yes"/>
      <point x="97" y="524"/>
      <point x="106" y="514"/>
      <point x="107" y="465" type="curve" smooth="yes"/>
      <point x="107" y="69" type="line" smooth="yes"/>
      <point x="107" y="20"/>
      <point x="96" y="10"/>
      <point x="36" y="10" type="curve" smooth="yes"/>
      <point x="32" y="10"/>
      <point x="33" y="0"/>
      <point x="36" y="0" type="curve" smooth="yes"/>
    </contour>
    <contour>
      <point x="127" y="534" type="move" name="top"/>
    </contour>
    <contour>
      <point x="259" y="0" type="move" name="bottom"/>
    </contour>
    <contour>
      <point x="406" y="534" type="move" name="topright"/>
    </contour>
  </outline>
</glyph>
<glyph name="N" format="1">
  <advance width="602"/>
  <unicode hex="004E"/>
  <outline>
    <contour>
      <point x="496" y="-14"/>
      <point x="502" y="-13"/>
      <point x="503" y="-9" type="curve" smooth="yes"/>
      <point x="496" y="56" type="line"/>
      <point x="169" y="490" type="line" smooth="yes"/>
      <point x="145" y="522"/>
      <point x="147" y="534"/>
      <point x="133" y="534" type="curve" smooth="yes"/>
      <point x="126" y="534"/>
      <point x="112" y="533"/>
      <point x="96" y="533" type="curve" smooth="yes"/>
      <point x="81" y="533"/>
      <point x="58" y="534"/>
      <point x="40" y="534" type="curve" smooth="yes"/>
      <point x="37" y="534"/>
      <point x="37" y="524"/>
      <point x="40" y="524" type="curve" smooth="yes"/>
      <point x="67" y="524"/>
      <point x="96" y="511"/>
      <point x="131" y="464" type="curve" smooth="yes"/>
      <point x="492" y="-9" type="line" smooth="yes"/>
    </contour>
    <contour>
      <point x="60" y="0"/>
      <point x="84" y="2"/>
      <point x="110" y="2" type="curve" smooth="yes"/>
      <point x="138" y="2"/>
      <point x="159" y="0"/>
      <point x="179" y="0" type="curve" smooth="yes"/>
      <point x="182" y="0"/>
      <point x="182" y="10"/>
      <point x="179" y="10" type="curve" smooth="yes"/>
      <point x="134" y="10"/>
      <point x="120" y="31"/>
      <point x="119" y="89" type="curve" smooth="yes"/>
      <point x="118" y="513" type="line"/>
      <point x="102" y="515" type="line"/>
      <point x="102" y="89" type="line" smooth="yes"/>
      <point x="103" y="31"/>
      <point x="84" y="10"/>
      <point x="39" y="10" type="curve" smooth="yes"/>
      <point x="36" y="10"/>
      <point x="36" y="0"/>
      <point x="39" y="0" type="curve" smooth="yes"/>
    </contour>
    <contour>
      <point x="503" y="445" type="line" smooth="yes"/>
      <point x="502" y="503"/>
      <point x="521" y="524"/>
      <point x="566" y="524" type="curve" smooth="yes"/>
      <point x="569" y="524"/>
      <point x="569" y="534"/>
      <point x="566" y="534" type="curve" smooth="yes"/>
      <point x="545" y="534"/>
      <point x="521" y="532"/>
      <point x="495" y="532" type="curve" smooth="yes"/>
      <point x="467" y="532"/>
      <point x="446" y="534"/>
      <point x="426" y="534" type="curve" smooth="yes"/>
      <point x="423" y="534"/>
      <point x="423" y="524"/>
      <point x="426" y="524" type="curve" smooth="yes"/>
      <point x="471" y="524"/>
      <point x="485" y="503"/>
      <point x="486" y="445" type="curve" smooth="yes"/>
      <point x="487" y="17" type="line"/>
      <point x="503" y="-9" type="line"/>
    </contour>
    <contour>
      <point x="290" y="534" type="move" name="top"/>
    </contour>
    <contour>
      <point x="317" y="0" type="move" name="bottom"/>
    </contour>
  </outline>
</glyph>
<glyph name="O" format="1">
  <advance width="624"/>
  <unicode hex="004F"/>
  <outline>
    <contour>
      <point x="453" y="-10"/>
      <point x="586" y="109"/>
      <point x="586" y="283" type="curve" smooth="yes"/>
      <point x="586" y="432"/>
      <point x="489" y="544"/>
      <point x="334" y="544" type="curve" smooth="yes"/>
      <point x="170" y="544"/>
      <point x="42" y="418"/>
      <point x="42" y="252" type="curve" smooth="yes"/>
      <point x="42" y="104"/>
      <point x="143" y="-10"/>
      <point x="296" y="-10" type="curve" smooth="yes"/>
    </contour>
    <contour>
      <point x="190" y="12"/>
      <point x="80" y="132"/>
      <point x="84" y="293" type="curve" smooth="yes"/>
      <point x="88" y="435"/>
      <point x="176" y="523"/>
      <point x="299" y="523" type="curve" smooth="yes"/>
      <point x="441" y="523"/>
      <point x="545" y="404"/>
      <point x="543" y="242" type="curve" smooth="yes"/>
      <point x="541" y="105"/>
      <point x="462" y="12"/>
      <point x="334" y="12" type="curve" smooth="yes"/>
    </contour>
    <contour>
      <point x="322" y="0" type="move" name="bottom"/>
    </contour>
    <contour>
      <point x="310" y="534" type="move" name="top"/>
    </contour>
    <contour>
      <point x="492" y="493" type="move" name="topright"/>
    </contour>
    <contour>
      <point x="309" y="267" type="move" name="center"/>
    </contour>
  </outline>
</glyph>
<glyph name="Q" format="1">
  <advance width="624"/>
  <unicode hex="0051"/>
  <outline>
    <contour>
      <point x="624" y="-171"/>
      <point x="650" y="-167"/>
      <point x="674" y="-161" type="curve" smooth="yes"/>
      <point x="677" y="-160"/>
      <point x="673" y="-151"/>
      <point x="670" y="-152" type="curve" smooth="yes"/>
      <point x="662" y="-154"/>
      <point x="649" y="-155"/>
      <point x="639" y="-155" type="curve" smooth="yes"/>
      <point x="576" y="-155"/>
      <point x="483" y="-82"/>
      <point x="422" y="21" type="curve"/>
      <point x="376" y="4" type="line"/>
      <point x="448" y="-110"/>
      <point x="540" y="-171"/>
      <point x="603" y="-171" type="curve" smooth="yes"/>
    </contour>
    <component base="O"/>
  </outline>
</glyph>
<glyph name="R" format="1">
  <advance width="563"/>
  <unicode hex="0052"/>
  <outline>
    <contour>
      <point x="66" y="0"/>
      <point x="102" y="2"/>
      <point x="138" y="2" type="curve" smooth="yes"/>
      <point x="177" y="2"/>
      <point x="209" y="0"/>
      <point x="236" y="0" type="curve" smooth="yes"/>
      <point x="239" y="0"/>
      <point x="239" y="10"/>
      <point x="235" y="10" type="curve" smooth="yes"/>
      <point x="170" y="10"/>
      <point x="163" y="20"/>
      <point x="162" y="69" type="curve" smooth="yes"/>
      <point x="163" y="274" type="line"/>
      <point x="173" y="273"/>
      <point x="189" y="272"/>
      <point x="198" y="272" type="curve" smooth="yes"/>
      <point x="296" y="272"/>
      <point x="376" y="345"/>
      <point x="376" y="430" type="curve" smooth="yes"/>
      <point x="376" y="496"/>
      <point x="328" y="537"/>
      <point x="238" y="537" type="curve" smooth="yes"/>
      <point x="213" y="537"/>
      <point x="168" y="532"/>
      <point x="139" y="532" type="curve" smooth="yes"/>
      <point x="103" y="532"/>
      <point x="69" y="534"/>
      <point x="42" y="534" type="curve" smooth="yes"/>
      <point x="38" y="534"/>
      <point x="38" y="524"/>
      <point x="42" y="524" type="curve" smooth="yes"/>
      <point x="107" y="524"/>
      <point x="117" y="514"/>
      <point x="118" y="465" type="curve" smooth="yes"/>
      <point x="118" y="69" type="line" smooth="yes"/>
      <point x="118" y="20"/>
      <point x="103" y="10"/>
      <point x="39" y="10" type="curve" smooth="yes"/>
      <point x="35" y="10"/>
      <point x="35" y="0"/>
      <point x="39" y="0" type="curve" smooth="yes"/>
    </contour>
    <contour>
      <point x="499" y="0"/>
      <point x="526" y="0"/>
      <point x="574" y="0" type="curve" smooth="yes"/>
      <point x="578" y="0"/>
      <point x="578" y="10"/>
      <point x="574" y="10" type="curve" smooth="yes"/>
      <point x="502" y="10"/>
      <point x="433" y="83"/>
      <point x="288" y="298" type="curve"/>
      <point x="252" y="285" type="line"/>
      <point x="367" y="109"/>
      <point x="454" y="0"/>
      <point x="484" y="0" type="curve" smooth="yes"/>
    </contour>
    <contour>
      <point x="198" y="291"/>
      <point x="179" y="292"/>
      <point x="162" y="294" type="curve"/>
      <point x="162" y="463" type="line" smooth="yes"/>
      <point x="163" y="524"/>
      <point x="176" y="526"/>
      <point x="218" y="526" type="curve" smooth="yes"/>
      <point x="281" y="526"/>
      <point x="328" y="493"/>
      <point x="328" y="401" type="curve" smooth="yes"/>
      <point x="328" y="323"/>
      <point x="295" y="291"/>
      <point x="213" y="291" type="curve" smooth="yes"/>
    </contour>
    <contour>
      <point x="218" y="534" type="move" name="top"/>
    </contour>
    <contour>
      <point x="296" y="0" type="move" name="bottom"/>
    </contour>
  </outline>
</glyph>
<glyph name="S" format="1">
  <advance width="422"/>
  <unicode hex="0053"/>
  <outline>
    <contour>
      <point x="119" y="480"/>
      <point x="144" y="533"/>
      <point x="218" y="533" type="curve" smooth="yes"/>
      <point x="300" y="533"/>
      <point x="333" y="467"/>
      <point x="337" y="417" type="curve" smooth="yes"/>
      <point x="337" y="412"/>
      <point x="347" y="413"/>
      <point x="347" y="418" type="curve" smooth="yes"/>
      <point x="340" y="509" type="line" smooth="yes"/>
      <point x="340" y="515"/>
      <point x="335" y="520"/>
      <point x="327" y="523" type="curve" smooth="yes"/>
      <point x="291" y="538"/>
      <point x="258" y="544"/>
      <point x="229" y="544" type="curve" smooth="yes"/>
      <point x="152" y="544"/>
      <point x="75" y="500"/>
      <point x="75" y="411" type="curve" smooth="yes"/>
      <point x="75" y="252"/>
      <point x="326" y="268"/>
      <point x="326" y="104" type="curve" smooth="yes"/>
      <point x="326" y="27"/>
      <point x="271" y="2"/>
      <point x="218" y="2" type="curve" smooth="yes"/>
      <point x="125" y="2"/>
      <point x="79" y="80"/>
      <point x="70" y="148" type="curve" smooth="yes"/>
      <point x="69" y="152"/>
      <point x="59" y="151"/>
      <point x="60" y="146" type="curve" smooth="yes"/>
      <point x="73" y="35" type="line" smooth="yes"/>
      <point x="74" y="27"/>
      <point x="75" y="22"/>
      <point x="81" y="19" type="curve" smooth="yes"/>
      <point x="125" y="-3"/>
      <point x="161" y="-10"/>
      <point x="199" y="-10" type="curve" smooth="yes"/>
      <point x="315" y="-10"/>
      <point x="373" y="56"/>
      <point x="373" y="134" type="curve" smooth="yes"/>
      <point x="373" y="295"/>
      <point x="119" y="283"/>
      <point x="119" y="431" type="curve" smooth="yes"/>
    </contour>
    <contour>
      <point x="223" y="534" type="move" name="top"/>
    </contour>
    <contour>
      <point x="214" y="0" type="move" name="bottom"/>
    </contour>
  </outline>
</glyph>
<glyph name="T" format="1">
  <advance width="510"/>
  <unicode hex="0054"/>
  <outline>
    <contour>
      <point x="190" y="0"/>
      <point x="223" y="2"/>
      <point x="258" y="2" type="curve" smooth="yes"/>
      <point x="297" y="2"/>
      <point x="327" y="0"/>
      <point x="353" y="0" type="curve" smooth="yes"/>
      <point x="356" y="0"/>
      <point x="356" y="10"/>
      <point x="353" y="10" type="curve" smooth="yes"/>
      <point x="291" y="10"/>
      <point x="282" y="20"/>
      <point x="281" y="69" type="curve" smooth="yes"/>
      <point x="280" y="463" type="line" smooth="yes"/>
      <point x="280" y="509"/>
      <point x="288" y="521"/>
      <point x="340" y="521" type="curve" smooth="yes"/>
      <point x="366" y="521" type="line" smooth="yes"/>
      <point x="450" y="521"/>
      <point x="472" y="492"/>
      <point x="472" y="403" type="curve" smooth="yes"/>
      <point x="472" y="399"/>
      <point x="483" y="399"/>
      <point x="483" y="403" type="curve" smooth="yes"/>
      <point x="482" y="429"/>
      <point x="487" y="522"/>
      <point x="490" y="554" type="curve" smooth="yes"/>
      <point x="491" y="558"/>
      <point x="481" y="559"/>
      <point x="480" y="556" type="curve" smooth="yes"/>
      <point x="475" y="538"/>
      <point x="457" y="534"/>
      <point x="422" y="534" type="curve" smooth="yes"/>
      <point x="380" y="534"/>
      <point x="332" y="532"/>
      <point x="257" y="532" type="curve" smooth="yes"/>
      <point x="197" y="532"/>
      <point x="130" y="533"/>
      <point x="84" y="534" type="curve" smooth="yes"/>
      <point x="70" y="534"/>
      <point x="45" y="535"/>
      <point x="45" y="552" type="curve" smooth="yes"/>
      <point x="45" y="556"/>
      <point x="34" y="557"/>
      <point x="34" y="553" type="curve" smooth="yes"/>
      <point x="32" y="516"/>
      <point x="26" y="430"/>
      <point x="21" y="402" type="curve" smooth="yes"/>
      <point x="21" y="399"/>
      <point x="32" y="398"/>
      <point x="32" y="401" type="curve" smooth="yes"/>
      <point x="43" y="492"/>
      <point x="68" y="521"/>
      <point x="147" y="521" type="curve" smooth="yes"/>
      <point x="172" y="521" type="line" smooth="yes"/>
      <point x="226" y="521"/>
      <point x="236" y="511"/>
      <point x="236" y="465" type="curve" smooth="yes"/>
      <point x="236" y="69" type="line" smooth="yes"/>
      <point x="237" y="20"/>
      <point x="225" y="10"/>
      <point x="164" y="10" type="curve" smooth="yes"/>
      <point x="161" y="10"/>
      <point x="161" y="0"/>
      <point x="165" y="0" type="curve" smooth="yes"/>
    </contour>
    <contour>
      <point x="234" y="267" type="move" name="center"/>
    </contour>
    <contour>
      <point x="258" y="0" type="move" name="bottom"/>
    </contour>
    <contour>
      <point x="256" y="534" type="move" name="top"/>
    </contour>
  </outline>
</glyph>
<glyph name="U" format="1">
  <advance width="641"/>
  <unicode hex="0055"/>
  <outline>
    <contour>
      <point x="371" y="-10"/>
      <point x="434" y="24"/>
      <point x="511" y="107" type="curve"/>
      <point x="503" y="114" type="line"/>
      <point x="431" y="37"/>
      <point x="377" y="11"/>
      <point x="310" y="11" type="curve" smooth="yes"/>
      <point x="204" y="11"/>
      <point x="146" y="76"/>
      <point x="146" y="189" type="curve" smooth="yes"/>
      <point x="145" y="463" type="line" smooth="yes"/>
      <point x="146" y="512"/>
      <point x="156" y="524"/>
      <point x="216" y="524" type="curve" smooth="yes"/>
      <point x="219" y="524"/>
      <point x="219" y="534"/>
      <point x="216" y="534" type="curve" smooth="yes"/>
      <point x="192" y="534"/>
      <point x="157" y="532"/>
      <point x="121" y="532" type="curve" smooth="yes"/>
      <point x="86" y="532"/>
      <point x="54" y="534"/>
      <point x="30" y="534" type="curve" smooth="yes"/>
      <point x="27" y="534"/>
      <point x="27" y="524"/>
      <point x="30" y="524" type="curve" smooth="yes"/>
      <point x="91" y="524"/>
      <point x="100" y="514"/>
      <point x="101" y="465" type="curve" smooth="yes"/>
      <point x="101" y="159" type="line" smooth="yes"/>
      <point x="101" y="55"/>
      <point x="182" y="-10"/>
      <point x="292" y="-10" type="curve" smooth="yes"/>
    </contour>
    <contour>
      <point x="512" y="0"/>
      <point x="524" y="1"/>
      <point x="540" y="1" type="curve" smooth="yes"/>
      <point x="566" y="1"/>
      <point x="587" y="0"/>
      <point x="611" y="0" type="curve" smooth="yes"/>
      <point x="616" y="0"/>
      <point x="615" y="10"/>
      <point x="611" y="10" type="curve" smooth="yes"/>
      <point x="540" y="10"/>
      <point x="529" y="20"/>
      <point x="529" y="69" type="curve" smooth="yes"/>
      <point x="529" y="465" type="line" smooth="yes"/>
      <point x="529" y="514"/>
      <point x="541" y="524"/>
      <point x="600" y="524" type="curve" smooth="yes"/>
      <point x="603" y="524"/>
      <point x="603" y="534"/>
      <point x="600" y="534" type="curve" smooth="yes"/>
      <point x="576" y="534"/>
      <point x="540" y="532"/>
      <point x="506" y="532" type="curve" smooth="yes"/>
      <point x="471" y="532"/>
      <point x="438" y="534"/>
      <point x="414" y="534" type="curve" smooth="yes"/>
      <point x="411" y="534"/>
      <point x="411" y="524"/>
      <point x="414" y="524" type="curve" smooth="yes"/>
      <point x="476" y="524"/>
      <point x="485" y="512"/>
      <point x="483" y="463" type="curve" smooth="yes"/>
      <point x="485" y="16" type="line" smooth="yes"/>
      <point x="485" y="2"/>
      <point x="487" y="0"/>
      <point x="499" y="0" type="curve" smooth="yes"/>
    </contour>
    <contour>
      <point x="516" y="10" type="move" name="ogonek"/>
    </contour>
    <contour>
      <point x="314" y="534" type="move" name="top"/>
    </contour>
    <contour>
      <point x="624" y="534" type="move" name="topright"/>
    </contour>
    <contour>
      <point x="321" y="0" type="move" name="bottom"/>
    </contour>
  </outline>
</glyph>
<glyph name="V" format="1">
  <advance width="546"/>
  <unicode hex="0056"/>
  <outline>
    <contour>
      <point x="273" y="-3"/>
      <point x="288" y="-4"/>
      <point x="290" y="1" type="curve" smooth="yes"/>
      <point x="465" y="465" type="line" smooth="yes"/>
      <point x="482" y="514"/>
      <point x="510" y="524"/>
      <point x="542" y="524" type="curve" smooth="yes"/>
      <point x="546" y="524"/>
      <point x="546" y="534"/>
      <point x="542" y="534" type="curve" smooth="yes"/>
      <point x="514" y="534"/>
      <point x="500" y="532"/>
      <point x="470" y="532" type="curve" smooth="yes"/>
      <point x="434" y="532"/>
      <point x="415" y="534"/>
      <point x="391" y="534" type="curve" smooth="yes"/>
      <point x="388" y="534"/>
      <point x="388" y="524"/>
      <point x="391" y="524" type="curve" smooth="yes"/>
      <point x="450" y="524"/>
      <point x="461" y="509"/>
      <point x="447" y="470" type="curve" smooth="yes"/>
      <point x="279" y="9" type="line"/>
      <point x="302" y="48" type="line"/>
      <point x="118" y="472" type="line" smooth="yes"/>
      <point x="101" y="513"/>
      <point x="122" y="524"/>
      <point x="162" y="524" type="curve" smooth="yes"/>
      <point x="167" y="524"/>
      <point x="166" y="534"/>
      <point x="162" y="534" type="curve" smooth="yes"/>
      <point x="138" y="534"/>
      <point x="110" y="532"/>
      <point x="72" y="532" type="curve" smooth="yes"/>
      <point x="51" y="532"/>
      <point x="26" y="534"/>
      <point x="5" y="534" type="curve" smooth="yes"/>
      <point x="1" y="534"/>
      <point x="2" y="524"/>
      <point x="5" y="524" type="curve" smooth="yes"/>
      <point x="38" y="524"/>
      <point x="57" y="508"/>
      <point x="74" y="463" type="curve" smooth="yes"/>
      <point x="271" y="1" type="line" smooth="yes"/>
    </contour>
  </outline>
</glyph>
<glyph name="W" format="1">
  <advance width="762"/>
  <unicode hex="0057"/>
  <outline>
    <contour>
      <point x="489" y="-3"/>
      <point x="503" y="-3"/>
      <point x="504" y="1" type="curve" smooth="yes"/>
      <point x="680" y="465" type="line" smooth="yes"/>
      <point x="698" y="514"/>
      <point x="724" y="524"/>
      <point x="757" y="524" type="curve" smooth="yes"/>
      <point x="762" y="524"/>
      <point x="762" y="534"/>
      <point x="757" y="534" type="curve" smooth="yes"/>
      <point x="730" y="534"/>
      <point x="715" y="532"/>
      <point x="686" y="532" type="curve" smooth="yes"/>
      <point x="649" y="532"/>
      <point x="631" y="534"/>
      <point x="605" y="534" type="curve" smooth="yes"/>
      <point x="601" y="534"/>
      <point x="601" y="524"/>
      <point x="606" y="524" type="curve" smooth="yes"/>
      <point x="666" y="524"/>
      <point x="679" y="510"/>
      <point x="664" y="470" type="curve" smooth="yes"/>
      <point x="493" y="9" type="line"/>
      <point x="516" y="48" type="line"/>
      <point x="334" y="472" type="line" smooth="yes"/>
      <point x="313" y="519"/>
      <point x="315" y="524"/>
      <point x="349" y="524" type="curve" smooth="yes"/>
      <point x="355" y="524"/>
      <point x="355" y="534"/>
      <point x="349" y="534" type="curve" smooth="yes"/>
      <point x="334" y="534"/>
      <point x="314" y="532"/>
      <point x="287" y="532" type="curve" smooth="yes"/>
      <point x="265" y="532"/>
      <point x="240" y="534"/>
      <point x="219" y="534" type="curve" smooth="yes"/>
      <point x="215" y="534"/>
      <point x="215" y="524"/>
      <point x="219" y="524" type="curve" smooth="yes"/>
      <point x="254" y="524"/>
      <point x="271" y="508"/>
      <point x="289" y="463" type="curve" smooth="yes"/>
      <point x="487" y="1" type="line" smooth="yes"/>
    </contour>
    <contour>
      <point x="273" y="-3"/>
      <point x="288" y="-3"/>
      <point x="290" y="1" type="curve" smooth="yes"/>
      <point x="393" y="276" type="line"/>
      <point x="382" y="290" type="line"/>
      <point x="279" y="9" type="line"/>
      <point x="302" y="48" type="line"/>
      <point x="118" y="472" type="line" smooth="yes"/>
      <point x="101" y="513"/>
      <point x="122" y="524"/>
      <point x="162" y="524" type="curve" smooth="yes"/>
      <point x="167" y="524"/>
      <point x="166" y="534"/>
      <point x="162" y="534" type="curve" smooth="yes"/>
      <point x="138" y="534"/>
      <point x="110" y="532"/>
      <point x="72" y="532" type="curve" smooth="yes"/>
      <point x="51" y="532"/>
      <point x="26" y="534"/>
      <point x="5" y="534" type="curve" smooth="yes"/>
      <point x="0" y="534"/>
      <point x="1" y="524"/>
      <point x="5" y="524" type="curve" smooth="yes"/>
      <point x="38" y="524"/>
      <point x="57" y="508"/>
      <point x="74" y="463" type="curve" smooth="yes"/>
      <point x="271" y="1" type="line" smooth="yes"/>
    </contour>
    <contour>
      <point x="470" y="465" type="line" smooth="yes"/>
      <point x="488" y="514"/>
      <point x="515" y="524"/>
      <point x="547" y="524" type="curve" smooth="yes"/>
      <point x="552" y="524"/>
      <point x="551" y="534"/>
      <point x="547" y="534" type="curve" smooth="yes"/>
      <point x="520" y="534"/>
      <point x="505" y="532"/>
      <point x="476" y="532" type="curve" smooth="yes"/>
      <point x="452" y="532"/>
      <point x="440" y="534"/>
      <point x="424" y="534" type="curve" smooth="yes"/>
      <point x="419" y="534"/>
      <point x="420" y="524"/>
      <point x="424" y="524" type="curve" smooth="yes"/>
      <point x="463" y="524"/>
      <point x="469" y="510"/>
      <point x="454" y="470" type="curve" smooth="yes"/>
      <point x="388" y="290" type="line"/>
      <point x="399" y="276" type="line"/>
    </contour>
    <contour>
      <point x="386" y="534" type="move" name="top"/>
    </contour>
  </outline>
</glyph>
<glyph name="X" format="1">
  <advance width="535"/>
  <unicode hex="0058"/>
  <outline>
    <contour>
      <point x="368" y="0"/>
      <point x="401" y="2"/>
      <point x="443" y="2" type="curve" smooth="yes"/>
      <point x="472" y="2"/>
      <point x="498" y="0"/>
      <point x="520" y="0" type="curve" smooth="yes"/>
      <point x="524" y="0"/>
      <point x="524" y="10"/>
      <point x="520" y="10" type="curve" smooth="yes"/>
      <point x="474" y="10"/>
      <point x="448" y="26"/>
      <point x="420" y="71" type="curve" smooth="yes"/>
      <point x="160" y="490" type="line" smooth="yes"/>
      <point x="144" y="515"/>
      <point x="153" y="524"/>
      <point x="197" y="524" type="curve" smooth="yes"/>
      <point x="202" y="524"/>
      <point x="202" y="534"/>
      <point x="197" y="534" type="curve" smooth="yes"/>
      <point x="170" y="534"/>
      <point x="133" y="532"/>
      <point x="88" y="532" type="curve" smooth="yes"/>
      <point x="70" y="532"/>
      <point x="49" y="534"/>
      <point x="30" y="534" type="curve" smooth="yes"/>
      <point x="26" y="534"/>
      <point x="26" y="524"/>
      <point x="30" y="524" type="curve" smooth="yes"/>
      <point x="69" y="524"/>
      <point x="93" y="508"/>
      <point x="120" y="463" type="curve" smooth="yes"/>
      <point x="380" y="44" type="line" smooth="yes"/>
      <point x="397" y="19"/>
      <point x="386" y="10"/>
      <point x="342" y="10" type="curve" smooth="yes"/>
      <point x="337" y="10"/>
      <point x="336" y="0"/>
      <point x="342" y="0" type="curve" smooth="yes"/>
    </contour>
    <contour>
      <point x="41" y="0"/>
      <point x="54" y="2"/>
      <point x="80" y="2" type="curve" smooth="yes"/>
      <point x="121" y="2"/>
      <point x="142" y="0"/>
      <point x="169" y="0" type="curve" smooth="yes"/>
      <point x="173" y="0"/>
      <point x="173" y="10"/>
      <point x="169" y="10" type="curve" smooth="yes"/>
      <point x="118" y="10"/>
      <point x="111" y="34"/>
      <point x="140" y="79" type="curve" smooth="yes"/>
      <point x="259" y="256" type="line"/>
      <point x="248" y="264" type="line"/>
      <point x="122" y="79" type="line" smooth="yes"/>
      <point x="91" y="34"/>
      <point x="53" y="10"/>
      <point x="17" y="10" type="curve" smooth="yes"/>
      <point x="13" y="10"/>
      <point x="13" y="0"/>
      <point x="17" y="0" type="curve" smooth="yes"/>
    </contour>
    <contour>
      <point x="397" y="447" type="line" smooth="yes"/>
      <point x="428" y="497"/>
      <point x="467" y="524"/>
      <point x="504" y="524" type="curve" smooth="yes"/>
      <point x="510" y="524"/>
      <point x="510" y="534"/>
      <point x="504" y="534" type="curve" smooth="yes"/>
      <point x="481" y="534"/>
      <point x="468" y="532"/>
      <point x="443" y="532" type="curve" smooth="yes"/>
      <point x="401" y="532"/>
      <point x="381" y="534"/>
      <point x="353" y="534" type="curve" smooth="yes"/>
      <point x="349" y="534"/>
      <point x="349" y="524"/>
      <point x="354" y="524" type="curve" smooth="yes"/>
      <point x="403" y="524"/>
      <point x="410" y="498"/>
      <point x="378" y="448" type="curve" smooth="yes"/>
      <point x="266" y="278" type="line"/>
      <point x="276" y="270" type="line"/>
    </contour>
  </outline>
</glyph>
<glyph name="Y" format="1">
  <advance width="486"/>
  <unicode hex="0059"/>
  <outline>
    <contour>
      <point x="381" y="447" type="line" smooth="yes"/>
      <point x="412" y="497"/>
      <point x="449" y="524"/>
      <point x="489" y="524" type="curve" smooth="yes"/>
      <point x="493" y="524"/>
      <point x="493" y="534"/>
      <point x="489" y="534" type="curve" smooth="yes"/>
      <point x="466" y="534"/>
      <point x="452" y="532"/>
      <point x="426" y="532" type="curve" smooth="yes"/>
      <point x="385" y="532"/>
      <point x="366" y="534"/>
      <point x="337" y="534" type="curve" smooth="yes"/>
      <point x="333" y="534"/>
      <point x="333" y="524"/>
      <point x="337" y="524" type="curve" smooth="yes"/>
      <point x="384" y="524"/>
      <point x="391" y="498"/>
      <point x="362" y="448" type="curve" smooth="yes"/>
      <point x="237" y="238" type="line"/>
      <point x="247" y="231" type="line"/>
    </contour>
    <contour>
      <point x="177" y="0"/>
      <point x="209" y="2"/>
      <point x="246" y="2" type="curve" smooth="yes"/>
      <point x="282" y="2"/>
      <point x="313" y="0"/>
      <point x="338" y="0" type="curve" smooth="yes"/>
      <point x="343" y="0"/>
      <point x="343" y="10"/>
      <point x="338" y="10" type="curve" smooth="yes"/>
      <point x="277" y="10"/>
      <point x="269" y="20"/>
      <point x="268" y="69" type="curve" smooth="yes"/>
      <point x="268" y="273" type="line"/>
      <point x="223" y="265" type="line"/>
      <point x="224" y="69" type="line" smooth="yes"/>
      <point x="224" y="20"/>
      <point x="212" y="10"/>
      <point x="151" y="10" type="curve" smooth="yes"/>
      <point x="147" y="10"/>
      <point x="147" y="0"/>
      <point x="151" y="0" type="curve" smooth="yes"/>
    </contour>
    <contour>
      <point x="268" y="271" type="line"/>
      <point x="126" y="490" type="line" smooth="yes"/>
      <point x="108" y="515"/>
      <point x="117" y="524"/>
      <point x="161" y="524" type="curve" smooth="yes"/>
      <point x="166" y="524"/>
      <point x="166" y="534"/>
      <point x="161" y="534" type="curve" smooth="yes"/>
      <point x="134" y="534"/>
      <point x="97" y="532"/>
      <point x="55" y="532" type="curve" smooth="yes"/>
      <point x="37" y="532"/>
      <point x="15" y="534"/>
      <point x="-3" y="534" type="curve" smooth="yes"/>
      <point x="-7" y="534"/>
      <point x="-7" y="524"/>
      <point x="-3" y="524" type="curve" smooth="yes"/>
      <point x="36" y="524"/>
      <point x="58" y="507"/>
      <point x="86" y="463" type="curve" smooth="yes"/>
      <point x="239" y="232" type="line"/>
    </contour>
    <contour>
      <point x="246" y="534" type="move" name="top"/>
    </contour>
    <contour>
      <point x="248" y="0" type="move" name="bottom"/>
    </contour>
  </outline>
</glyph>
<glyph name="Z" format="1">
  <advance width="503"/>
  <unicode hex="005A"/>
  <outline>
    <contour>
      <point x="460" y="-2"/>
      <point x="465" y="3"/>
      <point x="464" y="7" type="curve" smooth="yes"/>
      <point x="476" y="110" type="line" smooth="yes"/>
      <point x="476" y="114"/>
      <point x="465" y="116"/>
      <point x="464" y="112" type="curve" smooth="yes"/>
      <point x="453" y="42"/>
      <point x="421" y="16"/>
      <point x="342" y="16" type="curve" smooth="yes"/>
      <point x="293" y="16"/>
      <point x="216" y="16"/>
      <point x="117" y="16" type="curve" smooth="yes"/>
      <point x="111" y="16"/>
      <point x="109" y="17"/>
      <point x="114" y="23" type="curve" smooth="yes"/>
      <point x="452" y="523" type="line" smooth="yes"/>
      <point x="454" y="527"/>
      <point x="450" y="534"/>
      <point x="445" y="534" type="curve" smooth="yes"/>
      <point x="296" y="534"/>
      <point x="204" y="534"/>
      <point x="136" y="534" type="curve" smooth="yes"/>
      <point x="93" y="534"/>
      <point x="86" y="537"/>
      <point x="90" y="557" type="curve" smooth="yes"/>
      <point x="91" y="560"/>
      <point x="79" y="563"/>
      <point x="78" y="560" type="curve" smooth="yes"/>
      <point x="45" y="431" type="line" smooth="yes"/>
      <point x="43" y="427"/>
      <point x="53" y="424"/>
      <point x="56" y="428" type="curve" smooth="yes"/>
      <point x="84" y="518"/>
      <point x="83" y="520"/>
      <point x="383" y="520" type="curve" smooth="yes"/>
      <point x="391" y="520"/>
      <point x="392" y="519"/>
      <point x="388" y="513" type="curve" smooth="yes"/>
      <point x="46" y="11" type="line" smooth="yes"/>
      <point x="43" y="7"/>
      <point x="46" y="0"/>
      <point x="51" y="0" type="curve" smooth="yes"/>
      <point x="177" y="0"/>
      <point x="331" y="0"/>
      <point x="456" y="-2" type="curve" smooth="yes"/>
    </contour>
    <contour>
      <point x="251" y="534" type="move" name="top"/>
    </contour>
    <contour>
      <point x="261" y="0" type="move" name="bottom"/>
    </contour>
  </outline>
</glyph>
<glyph name="bracketleft" format="1">
  <advance width="234"/>
  <unicode hex="005B"/>
  <outline>
    <contour>
      <point x="80" y="-99"/>
      <point x="81" y="-100"/>
      <point x="88" y="-100" type="curve" smooth="yes"/>
      <point x="128" y="-100"/>
      <point x="176" y="-100"/>
      <point x="202" y="-100" type="curve" smooth="yes"/>
      <point x="205" y="-100"/>
      <point x="205" y="-90"/>
      <point x="202" y="-90" type="curve" smooth="yes"/>
      <point x="133" y="-90"/>
      <point x="121" y="-78"/>
      <point x="121" y="-29" type="curve" smooth="yes"/>
      <point x="121" y="549" type="line" smooth="yes"/>
      <point x="121" y="598"/>
      <point x="133" y="610"/>
      <point x="202" y="610" type="curve" smooth="yes"/>
      <point x="205" y="610"/>
      <point x="205" y="620"/>
      <point x="202" y="620" type="curve" smooth="yes"/>
      <point x="176" y="620"/>
      <point x="128" y="620"/>
      <point x="88" y="620" type="curve" smooth="yes"/>
      <point x="81" y="620"/>
      <point x="80" y="619"/>
      <point x="80" y="611" type="curve" smooth="yes"/>
      <point x="80" y="-91" type="line" smooth="yes"/>
    </contour>
    <contour>
      <point x="190" y="10" type="move" name="ogonek"/>
    </contour>
    <contour>
      <point x="103" y="534" type="move" name="top"/>
    </contour>
  </outline>
</glyph>
<glyph name="backslash" format="1">
  <advance width="290"/>
  <unicode hex="005C"/>
  <outline>
    <contour>
      <point x="239" y="-144"/>
      <point x="269" y="-134"/>
      <point x="268" y="-130" type="curve" smooth="yes"/>
      <point x="52" y="624" type="line" smooth="yes"/>
      <point x="50" y="629"/>
      <point x="20" y="619"/>
      <point x="22" y="614" type="curve" smooth="yes"/>
      <point x="237" y="-139" type="line" smooth="yes"/>
    </contour>
  </outline>
</glyph>
<glyph name="c" format="1">
  <advance width="302"/>
  <unicode hex="0063"/>
  <outline>
    <contour>
      <point x="212" y="-11"/>
      <point x="255" y="2"/>
      <point x="294" y="32" type="curve" smooth="yes"/>
      <point x="297" y="35"/>
      <point x="289" y="43"/>
      <point x="286" y="40" type="curve" smooth="yes"/>
      <point x="265" y="28"/>
      <point x="240" y="15"/>
      <point x="205" y="15" type="curve" smooth="yes"/>
      <point x="112" y="15"/>
      <point x="69" y="102"/>
      <point x="71" y="188" type="curve" smooth="yes"/>
      <point x="72" y="257"/>
      <point x="96" y="324"/>
      <point x="164" y="324" type="curve" smooth="yes"/>
      <point x="202" y="324"/>
      <point x="217" y="304"/>
      <point x="225" y="292" type="curve" smooth="yes"/>
      <point x="233" y="279"/>
      <point x="243" y="268"/>
      <point x="260" y="268" type="curve" smooth="yes"/>
      <point x="277" y="268"/>
      <point x="283" y="280"/>
      <point x="282" y="292" type="curve" smooth="yes"/>
      <point x="279" y="322"/>
      <point x="236" y="341"/>
      <point x="192" y="341" type="curve" smooth="yes"/>
      <point x="113" y="341"/>
      <point x="27" y="278"/>
      <point x="27" y="159" type="curve" smooth="yes"/>
      <point x="27" y="85"/>
      <point x="69" y="-11"/>
      <point x="175" y="-11" type="curve" smooth="yes"/>
    </contour>
    <contour>
      <point x="173" y="330" type="move" name="top"/>
    </contour>
    <contour>
      <point x="168" y="0" type="move" name="bottom"/>
    </contour>
  </outline>
</glyph>
<glyph name="d" format="1">
  <advance width="407"/>
  <unicode hex="0064"/>
  <outline>
    <contour>
      <point x="360" y="-8"/>
      <point x="385" y="16"/>
      <point x="418" y="59" type="curve" smooth="yes"/>
      <point x="420" y="62"/>
      <point x="411" y="69"/>
      <point x="408" y="66" type="curve" smooth="yes"/>
      <point x="386" y="40"/>
      <point x="366" y="24"/>
      <point x="350" y="24" type="curve" smooth="yes"/>
      <point x="332" y="24"/>
      <point x="325" y="41"/>
      <point x="325" y="76" type="curve" smooth="yes"/>
      <point x="331" y="613" type="line" smooth="yes"/>
      <point x="331" y="616"/>
      <point x="323" y="622"/>
      <point x="320" y="620" type="curve" smooth="yes"/>
      <point x="214" y="569" type="line" smooth="yes"/>
      <point x="208" y="566"/>
      <point x="213" y="556"/>
      <point x="219" y="559" type="curve" smooth="yes"/>
      <point x="271" y="585"/>
      <point x="293" y="573"/>
      <point x="292" y="536" type="curve" smooth="yes"/>
      <point x="285" y="56" type="line" smooth="yes"/>
      <point x="284" y="15"/>
      <point x="301" y="-8"/>
      <point x="330" y="-8" type="curve" smooth="yes"/>
    </contour>
    <contour>
      <point x="207" y="-11"/>
      <point x="267" y="82"/>
      <point x="300" y="210" type="curve"/>
      <point x="323" y="284" type="line"/>
      <point x="311" y="325"/>
      <point x="274" y="341"/>
      <point x="234" y="341" type="curve" smooth="yes"/>
      <point x="131" y="341"/>
      <point x="32" y="234"/>
      <point x="32" y="110" type="curve" smooth="yes"/>
      <point x="32" y="22"/>
      <point x="81" y="-11"/>
      <point x="128" y="-11" type="curve" smooth="yes"/>
    </contour>
    <contour>
      <point x="104" y="26"/>
      <point x="71" y="61"/>
      <point x="71" y="140" type="curve" smooth="yes"/>
      <point x="71" y="251"/>
      <point x="135" y="314"/>
      <point x="213" y="314" type="curve" smooth="yes"/>
      <point x="263" y="314"/>
      <point x="287" y="288"/>
      <point x="287" y="242" type="curve" smooth="yes"/>
      <point x="287" y="170"/>
      <point x="233" y="26"/>
      <point x="147" y="26" type="curve" smooth="yes"/>
    </contour>
    <contour>
      <point x="226" y="0" type="move" name="bottom"/>
    </contour>
    <contour>
      <point x="204" y="330" type="move" name="top"/>
    </contour>
    <contour>
      <point x="357" y="330" type="move" name="topright"/>
    </contour>
    <contour>
      <point x="171" y="165" type="move" name="center"/>
    </contour>
  </outline>
</glyph>
<glyph name="e" format="1">
  <advance width="309"/>
  <unicode hex="0065"/>
  <outline>
    <contour>
      <point x="216" y="-10"/>
      <point x="258" y="3"/>
      <point x="299" y="38" type="curve"/>
      <point x="302" y="41"/>
      <point x="294" y="47"/>
      <point x="291" y="45" type="curve"/>
      <point x="263" y="24"/>
      <point x="229" y="17"/>
      <point x="202" y="17" type="curve" smooth="yes"/>
      <point x="118" y="17"/>
      <point x="72" y="85"/>
      <point x="72" y="184" type="curve" smooth="yes"/>
      <point x="72" y="258"/>
      <point x="98" y="318"/>
      <point x="168" y="318" type="curve" smooth="yes"/>
      <point x="200" y="318"/>
      <point x="223" y="306"/>
      <point x="219" y="277" type="curve" smooth="yes"/>
      <point x="213" y="233"/>
      <point x="155" y="206"/>
      <point x="54" y="193" type="curve"/>
      <point x="54" y="182" type="line"/>
      <point x="171" y="195"/>
      <point x="269" y="242"/>
      <point x="272" y="295" type="curve" smooth="yes"/>
      <point x="273" y="323"/>
      <point x="248" y="341"/>
      <point x="203" y="341" type="curve" smooth="yes"/>
      <point x="103" y="341"/>
      <point x="27" y="250"/>
      <point x="27" y="150" type="curve" smooth="yes"/>
      <point x="27" y="69"/>
      <point x="76" y="-10"/>
      <point x="176" y="-10" type="curve" smooth="yes"/>
    </contour>
    <contour>
      <point x="280" y="10" type="move" name="ogonek"/>
    </contour>
    <contour>
      <point x="185" y="-10" type="move" name="bottom"/>
    </contour>
    <contour>
      <point x="181" y="330" type="move" name="top"/>
    </contour>
  </outline>
</glyph>
<glyph name="l" format="1">
  <advance width="211"/>
  <unicode hex="006C"/>
  <outline>
    <contour>
      <point x="149" y="-8"/>
      <point x="174" y="16"/>
      <point x="207" y="59" type="curve" smooth="yes"/>
      <point x="209" y="62"/>
      <point x="200" y="69"/>
      <point x="197" y="66" type="curve" smooth="yes"/>
      <point x="175" y="40"/>
      <point x="155" y="24"/>
      <point x="139" y="24" type="curve" smooth="yes"/>
      <point x="121" y="24"/>
      <point x="114" y="41"/>
      <point x="114" y="76" type="curve" smooth="yes"/>
      <point x="119" y="613" type="line" smooth="yes"/>
      <point x="119" y="616"/>
      <point x="112" y="622"/>
      <point x="108" y="620" type="curve" smooth="yes"/>
      <point x="3" y="569" type="line" smooth="yes"/>
      <point x="-2" y="566"/>
      <point x="3" y="557"/>
      <point x="8" y="559" type="curve" smooth="yes"/>
      <point x="61" y="585"/>
      <point x="79" y="573"/>
      <point x="79" y="536" type="curve" smooth="yes"/>
      <point x="73" y="56" type="line" smooth="yes"/>
      <point x="72" y="14"/>
      <point x="90" y="-8"/>
      <point x="119" y="-8" type="curve" smooth="yes"/>
    </contour>
    <contour>
      <point x="92" y="566" type="move" name="top"/>
    </contour>
    <contour>
      <point x="114" y="0" type="move" name="bottom"/>
    </contour>
    <contour>
      <point x="160" y="330" type="move" name="topright"/>
    </contour>
  </outline>
</glyph>
<glyph name="m" format="1">
  <advance width="624"/>
  <unicode hex="006D"/>
  <outline>
    <contour>
      <point x="578" y="-8"/>
      <point x="603" y="16"/>
      <point x="636" y="59" type="curve" smooth="yes"/>
      <point x="638" y="62"/>
      <point x="629" y="69"/>
      <point x="626" y="66" type="curve" smooth="yes"/>
      <point x="604" y="40"/>
      <point x="584" y="24"/>
      <point x="568" y="24" type="curve" smooth="yes"/>
      <point x="550" y="24"/>
      <point x="543" y="41"/>
      <point x="543" y="76" type="curve" smooth="yes"/>
      <point x="544" y="228" type="line" smooth="yes"/>
      <point x="543" y="305"/>
      <point x="523" y="341"/>
      <point x="474" y="341" type="curve" smooth="yes"/>
      <point x="380" y="341"/>
      <point x="324" y="209"/>
      <point x="324" y="6" type="curve"/>
      <point x="334" y="5" type="line"/>
      <point x="335" y="196"/>
      <point x="388" y="312"/>
      <point x="453" y="312" type="curve" smooth="yes"/>
      <point x="488" y="312"/>
      <point x="504" y="277"/>
      <point x="504" y="212" type="curve" smooth="yes"/>
      <point x="503" y="56" type="line" smooth="yes"/>
      <point x="503" y="14"/>
      <point x="519" y="-8"/>
      <point x="548" y="-8" type="curve" smooth="yes"/>
    </contour>
    <contour>
      <point x="119" y="-7"/>
      <point x="127" y="-2"/>
      <point x="127" y="5" type="curve" smooth="yes"/>
      <point x="128" y="274" type="line" smooth="yes"/>
      <point x="128" y="318"/>
      <point x="115" y="338"/>
      <point x="86" y="338" type="curve" smooth="yes"/>
      <point x="55" y="338"/>
      <point x="26" y="313"/>
      <point x="-6" y="270" type="curve" smooth="yes"/>
      <point x="-9" y="266"/>
      <point x="-1" y="259"/>
      <point x="3" y="263" type="curve" smooth="yes"/>
      <point x="26" y="288"/>
      <point x="47" y="306"/>
      <point x="63" y="306" type="curve" smooth="yes"/>
      <point x="79" y="306"/>
      <point x="89" y="291"/>
      <point x="89" y="254" type="curve" smooth="yes"/>
      <point x="87" y="58" type="line" smooth="yes"/>
      <point x="86" y="33"/>
      <point x="85" y="2"/>
      <point x="85" y="-2" type="curve" smooth="yes"/>
      <point x="86" y="-5"/>
      <point x="89" y="-7"/>
      <point x="105" y="-7" type="curve" smooth="yes"/>
    </contour>
    <contour>
      <point x="326" y="-7"/>
      <point x="334" y="-2"/>
      <point x="334" y="5" type="curve" smooth="yes"/>
      <point x="335" y="228" type="line" smooth="yes"/>
      <point x="336" y="309"/>
      <point x="312" y="341"/>
      <point x="267" y="341" type="curve" smooth="yes"/>
      <point x="173" y="341"/>
      <point x="116" y="204"/>
      <point x="117" y="6" type="curve"/>
      <point x="127" y="5" type="line"/>
      <point x="128" y="196"/>
      <point x="182" y="312"/>
      <point x="245" y="312" type="curve" smooth="yes"/>
      <point x="276" y="312"/>
      <point x="293" y="283"/>
      <point x="295" y="212" type="curve" smooth="yes"/>
      <point x="294" y="63" type="line" smooth="yes"/>
      <point x="294" y="38"/>
      <point x="292" y="2"/>
      <point x="292" y="-2" type="curve" smooth="yes"/>
      <point x="293" y="-5"/>
      <point x="295" y="-7"/>
      <point x="312" y="-7" type="curve" smooth="yes"/>
    </contour>
    <contour>
      <point x="312" y="330" type="move" name="top"/>
    </contour>
    <contour>
      <point x="317" y="0" type="move" name="bottom"/>
    </contour>
  </outline>
</glyph>
<glyph name="p" format="1">
  <advance width="372"/>
  <unicode hex="0070"/>
  <outline>
    <contour>
      <point x="173" y="-214" type="line" smooth="yes"/>
      <point x="177" y="-213"/>
      <point x="175" y="-203"/>
      <point x="171" y="-204" type="curve" smooth="yes"/>
      <point x="118" y="-211"/>
      <point x="105" y="-199"/>
      <point x="105" y="-152" type="curve" smooth="yes"/>
      <point x="105" y="391" type="line" smooth="yes"/>
      <point x="105" y="395"/>
      <point x="95" y="395"/>
      <point x="95" y="391" type="curve" smooth="yes"/>
      <point x="95" y="356"/>
      <point x="64" y="336"/>
      <point x="64" y="330" type="curve" smooth="yes"/>
      <point x="63" y="-158" type="line" smooth="yes"/>
      <point x="63" y="-211"/>
      <point x="59" y="-219"/>
      <point x="17" y="-225" type="curve" smooth="yes"/>
      <point x="13" y="-226"/>
      <point x="15" y="-236"/>
      <point x="19" y="-235" type="curve" smooth="yes"/>
    </contour>
    <contour>
      <point x="269" y="-1"/>
      <point x="340" y="92"/>
      <point x="340" y="209" type="curve" smooth="yes"/>
      <point x="340" y="292"/>
      <point x="299" y="336"/>
      <point x="230" y="336" type="curve" smooth="yes"/>
      <point x="155" y="336"/>
      <point x="83" y="286"/>
      <point x="20" y="226" type="curve" smooth="yes"/>
      <point x="18" y="224"/>
      <point x="25" y="216"/>
      <point x="28" y="218" type="curve" smooth="yes"/>
      <point x="94" y="274"/>
      <point x="144" y="308"/>
      <point x="203" y="308" type="curve" smooth="yes"/>
      <point x="281" y="308"/>
      <point x="301" y="245"/>
      <point x="301" y="181" type="curve" smooth="yes"/>
      <point x="301" y="90"/>
      <point x="273" y="23"/>
      <point x="179" y="23" type="curve" smooth="yes"/>
      <point x="140" y="23"/>
      <point x="107" y="35"/>
      <point x="80" y="50" type="curve"/>
      <point x="80" y="7" type="line"/>
      <point x="98" y="1"/>
      <point x="139" y="-1"/>
      <point x="155" y="-1" type="curve" smooth="yes"/>
    </contour>
  </outline>
</glyph>
<glyph name="q" format="1">
  <advance width="376"/>
  <unicode hex="0071"/>
  <outline>
    <contour>
      <point x="383" y="-214" type="line" smooth="yes"/>
      <point x="388" y="-213"/>
      <point x="386" y="-203"/>
      <point x="381" y="-204" type="curve" smooth="yes"/>
      <point x="328" y="-211"/>
      <point x="315" y="-194"/>
      <point x="315" y="-152" type="curve" smooth="yes"/>
      <point x="317" y="347" type="line" smooth="yes"/>
      <point x="317" y="350"/>
      <point x="306" y="351"/>
      <point x="306" y="348" type="curve" smooth="yes"/>
      <point x="303" y="326"/>
      <point x="284" y="308"/>
      <point x="270" y="305" type="curve"/>
      <point x="311" y="284" type="line"/>
      <point x="299" y="324"/>
      <point x="263" y="341"/>
      <point x="224" y="341" type="curve" smooth="yes"/>
      <point x="120" y="341"/>
      <point x="32" y="221"/>
      <point x="32" y="109" type="curve" smooth="yes"/>
      <point x="32" y="42"/>
      <point x="63" y="-11"/>
      <point x="122" y="-11" type="curve" smooth="yes"/>
      <point x="188" y="-11"/>
      <point x="258" y="54"/>
      <point x="283" y="173" type="curve"/>
      <point x="275" y="175" type="line"/>
      <point x="275" y="-158" type="line" smooth="yes"/>
      <point x="275" y="-210"/>
      <point x="270" y="-219"/>
      <point x="228" y="-225" type="curve" smooth="yes"/>
      <point x="224" y="-226"/>
      <point x="225" y="-236"/>
      <point x="230" y="-235" type="curve" smooth="yes"/>
    </contour>
    <contour>
      <point x="88" y="26"/>
      <point x="69" y="70"/>
      <point x="69" y="134" type="curve" smooth="yes"/>
      <point x="69" y="247"/>
      <point x="128" y="314"/>
      <point x="203" y="314" type="curve" smooth="yes"/>
      <point x="247" y="317"/>
      <point x="275" y="286"/>
      <point x="275" y="221" type="curve" smooth="yes"/>
      <point x="275" y="112"/>
      <point x="212" y="26"/>
      <point x="140" y="26" type="curve" smooth="yes"/>
    </contour>
  </outline>
</glyph>
<glyph name="r" format="1">
  <advance width="306"/>
  <unicode hex="0072"/>
  <outline>
    <contour>
      <point x="127" y="109"/>
      <point x="169" y="298"/>
      <point x="213" y="298" type="curve" smooth="yes"/>
      <point x="232" y="298"/>
      <point x="233" y="274"/>
      <point x="260" y="274" type="curve" smooth="yes"/>
      <point x="271" y="274"/>
      <point x="284" y="281"/>
      <point x="284" y="297" type="curve" smooth="yes"/>
      <point x="284" y="319"/>
      <point x="255" y="339"/>
      <point x="230" y="339" type="curve" smooth="yes"/>
      <point x="162" y="339"/>
      <point x="117" y="128"/>
      <point x="115" y="6" type="curve"/>
      <point x="125" y="5" type="line"/>
    </contour>
    <contour>
      <point x="117" y="-7"/>
      <point x="125" y="-2"/>
      <point x="125" y="5" type="curve" smooth="yes"/>
      <point x="126" y="213" type="line" smooth="yes"/>
      <point x="127" y="322"/>
      <point x="105" y="338"/>
      <point x="80" y="338" type="curve" smooth="yes"/>
      <point x="52" y="338"/>
      <point x="15" y="317"/>
      <point x="-12" y="282" type="curve" smooth="yes"/>
      <point x="-13" y="279"/>
      <point x="-7" y="274"/>
      <point x="-5" y="276" type="curve" smooth="yes"/>
      <point x="10" y="292"/>
      <point x="31" y="306"/>
      <point x="51" y="306" type="curve" smooth="yes"/>
      <point x="66" y="306"/>
      <point x="87" y="297"/>
      <point x="86" y="213" type="curve" smooth="yes"/>
      <point x="85" y="63" type="line" smooth="yes"/>
      <point x="85" y="38"/>
      <point x="83" y="2"/>
      <point x="83" y="-2" type="curve" smooth="yes"/>
      <point x="84" y="-5"/>
      <point x="86" y="-7"/>
      <point x="103" y="-7" type="curve" smooth="yes"/>
    </contour>
    <contour>
      <point x="150" y="330" type="move" name="top"/>
    </contour>
    <contour>
      <point x="112" y="0" type="move" name="bottom"/>
    </contour>
  </outline>
</glyph>
<glyph name="s" format="1">
  <advance width="271"/>
  <unicode hex="0073"/>
  <outline>
    <contour>
      <point x="188" y="-9"/>
      <point x="230" y="37"/>
      <point x="232" y="85" type="curve" smooth="yes"/>
      <point x="235" y="177"/>
      <point x="73" y="204"/>
      <point x="73" y="284" type="curve" smooth="yes"/>
      <point x="73" y="311"/>
      <point x="91" y="321"/>
      <point x="116" y="321" type="curve" smooth="yes"/>
      <point x="167" y="321"/>
      <point x="175" y="278"/>
      <point x="205" y="278" type="curve" smooth="yes"/>
      <point x="217" y="278"/>
      <point x="227" y="285"/>
      <point x="227" y="297" type="curve" smooth="yes"/>
      <point x="227" y="321"/>
      <point x="186" y="339"/>
      <point x="147" y="339" type="curve" smooth="yes"/>
      <point x="100" y="339"/>
      <point x="42" y="313"/>
      <point x="42" y="257" type="curve" smooth="yes"/>
      <point x="42" y="164"/>
      <point x="199" y="156"/>
      <point x="199" y="60" type="curve" smooth="yes"/>
      <point x="199" y="27"/>
      <point x="180" y="7"/>
      <point x="143" y="7" type="curve" smooth="yes"/>
      <point x="81" y="7"/>
      <point x="80" y="62"/>
      <point x="51" y="62" type="curve" smooth="yes"/>
      <point x="41" y="62"/>
      <point x="29" y="56"/>
      <point x="30" y="42" type="curve" smooth="yes"/>
      <point x="31" y="13"/>
      <point x="77" y="-9"/>
      <point x="122" y="-9" type="curve" smooth="yes"/>
    </contour>
    <contour>
      <point x="131" y="330" type="move" name="top"/>
    </contour>
    <contour>
      <point x="127" y="0" type="move" name="bottom"/>
    </contour>
  </outline>
</glyph>
<glyph name="t" format="1">
  <advance width="266"/>
  <unicode hex="0074"/>
  <outline>
    <contour>
      <point x="179" y="-10"/>
      <point x="215" y="7"/>
      <point x="262" y="51" type="curve" smooth="yes"/>
      <point x="265" y="54"/>
      <point x="257" y="60"/>
      <point x="255" y="58" type="curve" smooth="yes"/>
      <point x="230" y="37"/>
      <point x="206" y="18"/>
      <point x="168" y="18" type="curve" smooth="yes"/>
      <point x="125" y="18"/>
      <point x="112" y="41"/>
      <point x="112" y="87" type="curve" smooth="yes"/>
      <point x="113" y="382" type="line" smooth="yes"/>
      <point x="113" y="386"/>
      <point x="97" y="386"/>
      <point x="98" y="382" type="curve" smooth="yes"/>
      <point x="97" y="345"/>
      <point x="71" y="319"/>
      <point x="30" y="319" type="curve" smooth="yes"/>
      <point x="26" y="319"/>
      <point x="26" y="309"/>
      <point x="30" y="309" type="curve" smooth="yes"/>
      <point x="68" y="309"/>
      <point x="71" y="304"/>
      <point x="72" y="262" type="curve" smooth="yes"/>
      <point x="71" y="58" type="line" smooth="yes"/>
      <point x="71" y="7"/>
      <point x="104" y="-10"/>
      <point x="142" y="-10" type="curve" smooth="yes"/>
    </contour>
    <contour>
      <point x="228" y="291"/>
      <point x="240" y="310"/>
      <point x="241" y="320" type="curve" smooth="yes"/>
      <point x="241" y="324"/>
      <point x="238" y="327"/>
      <point x="233" y="327" type="curve" smooth="yes"/>
      <point x="202" y="325"/>
      <point x="142" y="321"/>
      <point x="100" y="321" type="curve"/>
      <point x="102" y="302" type="line"/>
      <point x="146" y="302"/>
      <point x="184" y="297"/>
      <point x="214" y="293" type="curve" smooth="yes"/>
    </contour>
    <contour>
      <point x="111" y="165" type="move" name="center"/>
    </contour>
    <contour>
      <point x="141" y="0" type="move" name="bottom"/>
    </contour>
    <contour>
      <point x="139" y="310" type="move" name="topright"/>
    </contour>
  </outline>
</glyph>
<glyph name="u" format="1">
  <advance width="425"/>
  <unicode hex="0075"/>
  <outline>
    <contour>
      <point x="249" y="-11"/>
      <point x="306" y="125"/>
      <point x="306" y="324" type="curve"/>
      <point x="296" y="325" type="line"/>
      <point x="294" y="136"/>
      <point x="241" y="18"/>
      <point x="172" y="18" type="curve" smooth="yes"/>
      <point x="137" y="18"/>
      <point x="116" y="49"/>
      <point x="118" y="118" type="curve" smooth="yes"/>
      <point x="123" y="274" type="line" smooth="yes"/>
      <point x="124" y="317"/>
      <point x="110" y="338"/>
      <point x="83" y="338" type="curve" smooth="yes"/>
      <point x="52" y="338"/>
      <point x="23" y="313"/>
      <point x="-9" y="270" type="curve" smooth="yes"/>
      <point x="-12" y="266"/>
      <point x="-4" y="259"/>
      <point x="0" y="263" type="curve" smooth="yes"/>
      <point x="22" y="288"/>
      <point x="42" y="306"/>
      <point x="57" y="306" type="curve" smooth="yes"/>
      <point x="73" y="306"/>
      <point x="84" y="290"/>
      <point x="83" y="254" type="curve" smooth="yes"/>
      <point x="79" y="102" type="line" smooth="yes"/>
      <point x="77" y="49"/>
      <point x="85" y="-11"/>
      <point x="150" y="-11" type="curve" smooth="yes"/>
    </contour>
    <contour>
      <point x="371" y="-8"/>
      <point x="396" y="16"/>
      <point x="429" y="59" type="curve" smooth="yes"/>
      <point x="431" y="62"/>
      <point x="422" y="69"/>
      <point x="419" y="66" type="curve" smooth="yes"/>
      <point x="397" y="40"/>
      <point x="377" y="24"/>
      <point x="361" y="24" type="curve" smooth="yes"/>
      <point x="343" y="24"/>
      <point x="336" y="41"/>
      <point x="336" y="76" type="curve" smooth="yes"/>
      <point x="337" y="267" type="line" smooth="yes"/>
      <point x="337" y="297"/>
      <point x="339" y="328"/>
      <point x="339" y="332" type="curve" smooth="yes"/>
      <point x="338" y="335"/>
      <point x="335" y="337"/>
      <point x="318" y="337" type="curve" smooth="yes"/>
      <point x="304" y="337"/>
      <point x="296" y="332"/>
      <point x="296" y="325" type="curve" smooth="yes"/>
      <point x="296" y="56" type="line" smooth="yes"/>
      <point x="296" y="14"/>
      <point x="312" y="-8"/>
      <point x="341" y="-8" type="curve" smooth="yes"/>
    </contour>
    <contour>
      <point x="274" y="10" type="move" name="ogonek"/>
    </contour>
    <contour>
      <point x="205" y="330" type="move" name="top"/>
    </contour>
    <contour>
      <point x="408" y="330" type="move" name="topright"/>
    </contour>
    <contour>
      <point x="199" y="0" type="move" name="bottom"/>
    </contour>
  </outline>
</glyph>
<glyph name="v" format="1">
  <advance width="393"/>
  <unicode hex="0076"/>
  <outline>
    <contour>
      <point x="275" y="-11"/>
      <point x="359" y="68"/>
      <point x="356" y="204" type="curve" smooth="yes"/>
      <point x="355" y="261"/>
      <point x="337" y="339"/>
      <point x="294" y="339" type="curve" smooth="yes"/>
      <point x="282" y="339"/>
      <point x="266" y="333"/>
      <point x="266" y="316" type="curve" smooth="yes"/>
      <point x="266" y="305"/>
      <point x="273" y="295"/>
      <point x="293" y="283" type="curve" smooth="yes"/>
      <point x="303" y="277"/>
      <point x="336" y="257"/>
      <point x="336" y="191" type="curve" smooth="yes"/>
      <point x="336" y="112"/>
      <point x="290" y="25"/>
      <point x="216" y="25" type="curve" smooth="yes"/>
      <point x="173" y="25"/>
      <point x="138" y="55"/>
      <point x="138" y="143" type="curve" smooth="yes"/>
      <point x="138" y="194"/>
      <point x="150" y="258"/>
      <point x="168" y="321" type="curve" smooth="yes"/>
      <point x="171" y="329"/>
      <point x="170" y="331"/>
      <point x="159" y="331" type="curve" smooth="yes"/>
      <point x="76" y="331" type="line" smooth="yes"/>
      <point x="20" y="331"/>
      <point x="13" y="323"/>
      <point x="-1" y="250" type="curve" smooth="yes"/>
      <point x="-3" y="244"/>
      <point x="9" y="242"/>
      <point x="10" y="247" type="curve" smooth="yes"/>
      <point x="17" y="289"/>
      <point x="24" y="292"/>
      <point x="72" y="292" type="curve" smooth="yes"/>
      <point x="122" y="292" type="line" smooth="yes"/>
      <point x="136" y="292"/>
      <point x="140" y="286"/>
      <point x="135" y="271" type="curve" smooth="yes"/>
      <point x="121" y="218"/>
      <point x="98" y="164"/>
      <point x="98" y="110" type="curve" smooth="yes"/>
      <point x="98" y="38"/>
      <point x="140" y="-11"/>
      <point x="199" y="-11" type="curve" smooth="yes"/>
    </contour>
  </outline>
</glyph>
<glyph name="w" format="1">
  <advance width="570"/>
  <unicode hex="0077"/>
  <outline>
    <contour>
      <point x="280" y="-11"/>
      <point x="361" y="83"/>
      <point x="361" y="228" type="curve" smooth="yes"/>
      <point x="361" y="304"/>
      <point x="339" y="335"/>
      <point x="316" y="335" type="curve" smooth="yes"/>
      <point x="284" y="335"/>
      <point x="269" y="274"/>
      <point x="269" y="210" type="curve" smooth="yes"/>
      <point x="269" y="79"/>
      <point x="333" y="-11"/>
      <point x="397" y="-11" type="curve" smooth="yes"/>
      <point x="458" y="-11"/>
      <point x="533" y="70"/>
      <point x="533" y="199" type="curve" smooth="yes"/>
      <point x="533" y="264"/>
      <point x="514" y="339"/>
      <point x="471" y="339" type="curve" smooth="yes"/>
      <point x="459" y="339"/>
      <point x="444" y="333"/>
      <point x="444" y="317" type="curve" smooth="yes"/>
      <point x="444" y="304"/>
      <point x="453" y="297"/>
      <point x="463" y="288" type="curve" smooth="yes"/>
      <point x="480" y="273"/>
      <point x="511" y="243"/>
      <point x="511" y="170" type="curve" smooth="yes"/>
      <point x="511" y="74"/>
      <point x="457" y="26"/>
      <point x="410" y="26" type="curve" smooth="yes"/>
      <point x="344" y="26"/>
      <point x="283" y="121"/>
      <point x="283" y="223" type="curve" smooth="yes"/>
      <point x="283" y="250"/>
      <point x="287" y="288"/>
      <point x="310" y="288" type="curve" smooth="yes"/>
      <point x="329" y="288"/>
      <point x="338" y="262"/>
      <point x="338" y="213" type="curve" smooth="yes"/>
      <point x="338" y="97"/>
      <point x="287" y="21"/>
      <point x="218" y="21" type="curve" smooth="yes"/>
      <point x="177" y="21"/>
      <point x="141" y="50"/>
      <point x="141" y="144" type="curve" smooth="yes"/>
      <point x="141" y="191"/>
      <point x="150" y="258"/>
      <point x="168" y="321" type="curve" smooth="yes"/>
      <point x="171" y="329"/>
      <point x="170" y="331"/>
      <point x="159" y="331" type="curve" smooth="yes"/>
      <point x="76" y="331" type="line" smooth="yes"/>
      <point x="20" y="331"/>
      <point x="13" y="323"/>
      <point x="-1" y="250" type="curve" smooth="yes"/>
      <point x="-3" y="244"/>
      <point x="9" y="240"/>
      <point x="10" y="245" type="curve" smooth="yes"/>
      <point x="17" y="287"/>
      <point x="24" y="292"/>
      <point x="72" y="292" type="curve" smooth="yes"/>
      <point x="122" y="292" type="line" smooth="yes"/>
      <point x="136" y="292"/>
      <point x="140" y="286"/>
      <point x="135" y="271" type="curve" smooth="yes"/>
      <point x="125" y="231"/>
      <point x="98" y="168"/>
      <point x="98" y="115" type="curve" smooth="yes"/>
      <point x="98" y="38"/>
      <point x="138" y="-11"/>
      <point x="201" y="-11" type="curve" smooth="yes"/>
    </contour>
    <contour>
      <point x="305" y="330" type="move" name="top"/>
    </contour>
  </outline>
</glyph>
<glyph name="x" format="1">
  <advance width="384"/>
  <unicode hex="0078"/>
  <outline>
    <contour>
      <point x="320" y="-8"/>
      <point x="348" y="14"/>
      <point x="383" y="57" type="curve" smooth="yes"/>
      <point x="387" y="61"/>
      <point x="378" y="68"/>
      <point x="375" y="64" type="curve" smooth="yes"/>
      <point x="351" y="38"/>
      <point x="333" y="26"/>
      <point x="314" y="26" type="curve" smooth="yes"/>
      <point x="304" y="26"/>
      <point x="284" y="29"/>
      <point x="263" y="71" type="curve" smooth="yes"/>
      <point x="158" y="278" type="line" smooth="yes"/>
      <point x="134" y="326"/>
      <point x="114" y="338"/>
      <point x="94" y="338" type="curve" smooth="yes"/>
      <point x="67" y="338"/>
      <point x="37" y="316"/>
      <point x="1" y="273" type="curve" smooth="yes"/>
      <point x="-3" y="269"/>
      <point x="6" y="262"/>
      <point x="9" y="266" type="curve" smooth="yes"/>
      <point x="32" y="292"/>
      <point x="52" y="304"/>
      <point x="69" y="304" type="curve" smooth="yes"/>
      <point x="81" y="304"/>
      <point x="102" y="298"/>
      <point x="127" y="250" type="curve" smooth="yes"/>
      <point x="232" y="44" type="line" smooth="yes"/>
      <point x="254" y="2"/>
      <point x="271" y="-8"/>
      <point x="291" y="-8" type="curve" smooth="yes"/>
    </contour>
    <contour>
      <point x="103" y="-8"/>
      <point x="113" y="2"/>
      <point x="138" y="54" type="curve" smooth="yes"/>
      <point x="188" y="157" type="line"/>
      <point x="180" y="165" type="line"/>
      <point x="123" y="61" type="line" smooth="yes"/>
      <point x="112" y="40"/>
      <point x="96" y="33"/>
      <point x="83" y="33" type="curve" smooth="yes"/>
      <point x="65" y="33"/>
      <point x="61" y="48"/>
      <point x="42" y="48" type="curve" smooth="yes"/>
      <point x="30" y="48"/>
      <point x="23" y="42"/>
      <point x="23" y="31" type="curve" smooth="yes"/>
      <point x="23" y="10"/>
      <point x="51" y="-8"/>
      <point x="74" y="-8" type="curve" smooth="yes"/>
    </contour>
    <contour>
      <point x="252" y="269" type="line" smooth="yes"/>
      <point x="263" y="289"/>
      <point x="279" y="297"/>
      <point x="292" y="297" type="curve" smooth="yes"/>
      <point x="310" y="297"/>
      <point x="314" y="282"/>
      <point x="333" y="282" type="curve" smooth="yes"/>
      <point x="345" y="282"/>
      <point x="353" y="288"/>
      <point x="353" y="299" type="curve" smooth="yes"/>
      <point x="353" y="320"/>
      <point x="324" y="338"/>
      <point x="301" y="338" type="curve" smooth="yes"/>
      <point x="273" y="338"/>
      <point x="263" y="328"/>
      <point x="237" y="276" type="curve" smooth="yes"/>
      <point x="183" y="169" type="line"/>
      <point x="192" y="161" type="line"/>
    </contour>
  </outline>
</glyph>
<glyph name="y" format="1">
  <advance width="396"/>
  <unicode hex="0079"/>
  <outline>
    <contour>
      <point x="277" y="-240"/>
      <point x="332" y="-164"/>
      <point x="333" y="-60" type="curve" smooth="yes"/>
      <point x="335" y="267" type="line" smooth="yes"/>
      <point x="335" y="297"/>
      <point x="337" y="328"/>
      <point x="337" y="332" type="curve" smooth="yes"/>
      <point x="336" y="335"/>
      <point x="333" y="337"/>
      <point x="316" y="337" type="curve" smooth="yes"/>
      <point x="302" y="337"/>
      <point x="294" y="332"/>
      <point x="294" y="325" type="curve" smooth="yes"/>
      <point x="293" y="254" type="line"/>
      <point x="294" y="-80" type="line" smooth="yes"/>
      <point x="295" y="-197"/>
      <point x="256" y="-222"/>
      <point x="210" y="-222" type="curve" smooth="yes"/>
      <point x="133" y="-222"/>
      <point x="131" y="-152"/>
      <point x="99" y="-152" type="curve" smooth="yes"/>
      <point x="90" y="-152"/>
      <point x="79" y="-158"/>
      <point x="79" y="-176" type="curve" smooth="yes"/>
      <point x="79" y="-211"/>
      <point x="122" y="-240"/>
      <point x="181" y="-240" type="curve" smooth="yes"/>
    </contour>
    <contour>
      <point x="247" y="-11"/>
      <point x="304" y="126"/>
      <point x="304" y="324" type="curve"/>
      <point x="294" y="325" type="line"/>
      <point x="292" y="136"/>
      <point x="239" y="18"/>
      <point x="170" y="18" type="curve" smooth="yes"/>
      <point x="135" y="18"/>
      <point x="114" y="49"/>
      <point x="116" y="118" type="curve" smooth="yes"/>
      <point x="121" y="274" type="line" smooth="yes"/>
      <point x="122" y="317"/>
      <point x="108" y="338"/>
      <point x="81" y="338" type="curve" smooth="yes"/>
      <point x="50" y="338"/>
      <point x="21" y="313"/>
      <point x="-11" y="270" type="curve" smooth="yes"/>
      <point x="-14" y="266"/>
      <point x="-6" y="259"/>
      <point x="-2" y="263" type="curve" smooth="yes"/>
      <point x="20" y="288"/>
      <point x="40" y="306"/>
      <point x="55" y="306" type="curve" smooth="yes"/>
      <point x="71" y="306"/>
      <point x="82" y="290"/>
      <point x="81" y="254" type="curve" smooth="yes"/>
      <point x="76" y="102" type="line" smooth="yes"/>
      <point x="73" y="21"/>
      <point x="100" y="-11"/>
      <point x="148" y="-11" type="curve" smooth="yes"/>
    </contour>
    <contour>
      <point x="203" y="330" type="move" name="top"/>
    </contour>
    <contour>
      <point x="186" y="27" type="move" name="bottom"/>
    </contour>
  </outline>
</glyph>
<glyph name="z" format="1">
  <advance width="313"/>
  <unicode hex="007A"/>
  <outline>
    <contour>
      <point x="45" y="14"/>
      <point x="57" y="19"/>
      <point x="76" y="19" type="curve" smooth="yes"/>
      <point x="133" y="17"/>
      <point x="210" y="-3"/>
      <point x="262" y="-4" type="curve" smooth="yes"/>
      <point x="299" y="-5"/>
      <point x="306" y="0"/>
      <point x="320" y="73" type="curve" smooth="yes"/>
      <point x="321" y="77"/>
      <point x="310" y="79"/>
      <point x="309" y="76" type="curve" smooth="yes"/>
      <point x="303" y="46"/>
      <point x="295" y="35"/>
      <point x="274" y="35" type="curve" smooth="yes"/>
      <point x="239" y="35"/>
      <point x="158" y="55"/>
      <point x="111" y="55" type="curve" smooth="yes"/>
      <point x="84" y="55"/>
      <point x="76" y="51"/>
      <point x="63" y="35" type="curve"/>
      <point x="60" y="25" type="line"/>
      <point x="295" y="332" type="line" smooth="yes"/>
      <point x="296" y="334"/>
      <point x="289" y="340"/>
      <point x="286" y="338" type="curve" smooth="yes"/>
      <point x="271" y="318"/>
      <point x="260" y="314"/>
      <point x="240" y="314" type="curve" smooth="yes"/>
      <point x="190" y="316"/>
      <point x="123" y="334"/>
      <point x="80" y="337" type="curve" smooth="yes"/>
      <point x="39" y="338"/>
      <point x="31" y="333"/>
      <point x="18" y="260" type="curve" smooth="yes"/>
      <point x="16" y="254"/>
      <point x="28" y="252"/>
      <point x="29" y="257" type="curve" smooth="yes"/>
      <point x="35" y="286"/>
      <point x="43" y="298"/>
      <point x="64" y="298" type="curve" smooth="yes"/>
      <point x="95" y="298"/>
      <point x="164" y="278"/>
      <point x="205" y="278" type="curve" smooth="yes"/>
      <point x="232" y="278"/>
      <point x="239" y="282"/>
      <point x="254" y="298" type="curve"/>
      <point x="257" y="308" type="line"/>
      <point x="21" y="1" type="line" smooth="yes"/>
      <point x="19" y="-1"/>
      <point x="27" y="-8"/>
      <point x="29" y="-6" type="curve" smooth="yes"/>
    </contour>
    <contour>
      <point x="160" y="323" type="move" name="top"/>
    </contour>
    <contour>
      <point x="164" y="0" type="move" name="bottom"/>
    </contour>
  </outline>
</glyph>
<glyph name="bar" format="1">
  <advance width="144"/>
  <unicode hex="007C"/>
  <outline>
    <contour>
      <point x="57" y="-140"/>
      <point x="89" y="-140"/>
      <point x="89" y="-132" type="curve" smooth="yes"/>
      <point x="89" y="625" type="line" smooth="yes"/>
      <point x="89" y="633"/>
      <point x="57" y="633"/>
      <point x="57" y="625" type="curve" smooth="yes"/>
      <point x="57" y="-132" type="line" smooth="yes"/>
    </contour>
  </outline>
</glyph>
<glyph name="cent" format="1">
  <advance width="462"/>
  <unicode hex="00A2"/>
  <outline>
    <contour>
      <point x="237" y="-95"/>
      <point x="254" y="-95"/>
      <point x="254" y="-87" type="curve" smooth="yes"/>
      <point x="254" y="480" type="line" smooth="yes"/>
      <point x="254" y="488"/>
      <point x="237" y="488"/>
      <point x="237" y="480" type="curve" smooth="yes"/>
      <point x="237" y="-87" type="line" smooth="yes"/>
    </contour>
    <contour>
      <point x="133" y="410"/>
      <point x="32" y="321"/>
      <point x="32" y="202" type="curve" smooth="yes"/>
      <point x="32" y="112"/>
      <point x="91" y="-10"/>
      <point x="263" y="-10" type="curve" smooth="yes"/>
      <point x="302" y="-10"/>
      <point x="351" y="-4"/>
      <point x="400" y="13" type="curve" smooth="yes"/>
      <point x="410" y="17"/>
      <point x="411" y="19"/>
      <point x="412" y="28" type="curve" smooth="yes"/>
      <point x="424" y="119" type="line" smooth="yes"/>
      <point x="424" y="122"/>
      <point x="415" y="124"/>
      <point x="414" y="120" type="curve" smooth="yes"/>
      <point x="395" y="36"/>
      <point x="340" y="0"/>
      <point x="271" y="0" type="curve" smooth="yes"/>
      <point x="145" y="0"/>
      <point x="83" y="112"/>
      <point x="83" y="215" type="curve" smooth="yes"/>
      <point x="83" y="321"/>
      <point x="154" y="399"/>
      <point x="247" y="399" type="curve" smooth="yes"/>
      <point x="329" y="399"/>
      <point x="390" y="364"/>
      <point x="406" y="282" type="curve" smooth="yes"/>
      <point x="407" y="278"/>
      <point x="416" y="280"/>
      <point x="416" y="283" type="curve" smooth="yes"/>
      <point x="407" y="371" type="line" smooth="yes"/>
      <point x="406" y="380"/>
      <point x="405" y="382"/>
      <point x="397" y="386" type="curve" smooth="yes"/>
      <point x="364" y="402"/>
      <point x="307" y="410"/>
      <point x="267" y="410" type="curve" smooth="yes"/>
    </contour>
    <contour>
      <point x="251" y="400" type="move" name="top"/>
    </contour>
    <contour>
      <point x="266" y="0" type="move" name="bottom"/>
    </contour>
  </outline>
</glyph>
<glyph name="brokenbar" format="1">
  <advance width="144"/>
  <unicode hex="00A6"/>
  <outline>
    <contour>
      <point x="57" y="-140"/>
      <point x="89" y="-140"/>
      <point x="89" y="-132" type="curve" smooth="yes"/>
      <point x="89" y="185" type="line" smooth="yes"/>
      <point x="89" y="193"/>
      <point x="57" y="193"/>
      <point x="57" y="185" type="curve" smooth="yes"/>
      <point x="57" y="-132" type="line" smooth="yes"/>
    </contour>
    <contour>
      <point x="57" y="300"/>
      <point x="89" y="300"/>
      <point x="89" y="308" type="curve" smooth="yes"/>
      <point x="89" y="625" type="line" smooth="yes"/>
      <point x="89" y="633"/>
      <point x="57" y="633"/>
      <point x="57" y="625" type="curve" smooth="yes"/>
      <point x="57" y="308" type="line" smooth="yes"/>
    </contour>
  </outline>
</glyph>
<glyph name="section" format="1">
  <advance width="367"/>
  <unicode hex="00A7"/>
  <outline>
    <contour>
      <point x="307" y="60"/>
      <point x="320" y="89"/>
      <point x="320" y="136" type="curve" smooth="yes"/>
      <point x="320" y="289"/>
      <point x="113" y="287"/>
      <point x="113" y="405" type="curve" smooth="yes"/>
      <point x="113" y="452"/>
      <point x="140" y="469"/>
      <point x="172" y="469" type="curve" smooth="yes"/>
      <point x="231" y="469"/>
      <point x="280" y="418"/>
      <point x="285" y="379" type="curve" smooth="yes"/>
      <point x="285" y="376"/>
      <point x="295" y="376"/>
      <point x="295" y="379" type="curve" smooth="yes"/>
      <point x="288" y="459" type="line" smooth="yes"/>
      <point x="288" y="466"/>
      <point x="284" y="470"/>
      <point x="279" y="473" type="curve" smooth="yes"/>
      <point x="260" y="483"/>
      <point x="236" y="489"/>
      <point x="204" y="489" type="curve" smooth="yes"/>
      <point x="143" y="489"/>
      <point x="80" y="455"/>
      <point x="80" y="376" type="curve" smooth="yes"/>
      <point x="80" y="256"/>
      <point x="285" y="260"/>
      <point x="285" y="109" type="curve" smooth="yes"/>
      <point x="285" y="75"/>
      <point x="277" y="43"/>
      <point x="242" y="17" type="curve"/>
      <point x="249" y="9" type="line"/>
    </contour>
    <contour>
      <point x="237" y="-161"/>
      <point x="300" y="-127"/>
      <point x="300" y="-48" type="curve" smooth="yes"/>
      <point x="300" y="72"/>
      <point x="95" y="68"/>
      <point x="95" y="219" type="curve" smooth="yes"/>
      <point x="95" y="253"/>
      <point x="103" y="285"/>
      <point x="138" y="311" type="curve"/>
      <point x="131" y="319" type="line"/>
      <point x="73" y="268"/>
      <point x="60" y="239"/>
      <point x="60" y="192" type="curve" smooth="yes"/>
      <point x="60" y="39"/>
      <point x="267" y="41"/>
      <point x="267" y="-77" type="curve" smooth="yes"/>
      <point x="267" y="-124"/>
      <point x="240" y="-141"/>
      <point x="208" y="-141" type="curve" smooth="yes"/>
      <point x="149" y="-141"/>
      <point x="100" y="-90"/>
      <point x="95" y="-51" type="curve" smooth="yes"/>
      <point x="95" y="-48"/>
      <point x="85" y="-48"/>
      <point x="85" y="-51" type="curve" smooth="yes"/>
      <point x="91" y="-131" type="line" smooth="yes"/>
      <point x="92" y="-138"/>
      <point x="96" y="-142"/>
      <point x="101" y="-145" type="curve" smooth="yes"/>
      <point x="120" y="-155"/>
      <point x="144" y="-161"/>
      <point x="176" y="-161" type="curve" smooth="yes"/>
    </contour>
  </outline>
</glyph>
<glyph name="copyright" format="1">
  <advance width="613"/>
  <unicode hex="00A9"/>
  <outline>
    <contour>
      <point x="382" y="-86"/>
      <point x="445" y="-77"/>
      <point x="510" y="-28" type="curve" smooth="yes"/>
      <point x="512" y="-26"/>
      <point x="508" y="-21"/>
      <point x="506" y="-22" type="curve" smooth="yes"/>
      <point x="440" y="-56"/>
      <point x="398" y="-61"/>
      <point x="334" y="-61" type="curve" smooth="yes"/>
      <point x="240" y="-61"/>
      <point x="98" y="13"/>
      <point x="98" y="182" type="curve" smooth="yes"/>
      <point x="98" y="305"/>
      <point x="173" y="405"/>
      <point x="311" y="405" type="curve" smooth="yes"/>
      <point x="430" y="405"/>
      <point x="521" y="316"/>
      <point x="521" y="207" type="curve" smooth="yes"/>
      <point x="521" y="100"/>
      <point x="444" y="56"/>
      <point x="366" y="56" type="curve" smooth="yes"/>
      <point x="269" y="56"/>
      <point x="238" y="117"/>
      <point x="238" y="187" type="curve" smooth="yes"/>
      <point x="238" y="253"/>
      <point x="258" y="298"/>
      <point x="314" y="298" type="curve" smooth="yes"/>
      <point x="342" y="298"/>
      <point x="353" y="285"/>
      <point x="364" y="269" type="curve" smooth="yes"/>
      <point x="370" y="261"/>
      <point x="380" y="249"/>
      <point x="393" y="249" type="curve" smooth="yes"/>
      <point x="405" y="249"/>
      <point x="415" y="260"/>
      <point x="415" y="271" type="curve" smooth="yes"/>
      <point x="413" y="294"/>
      <point x="374" y="311"/>
      <point x="336" y="311" type="curve" smooth="yes"/>
      <point x="267" y="311"/>
      <point x="190" y="259"/>
      <point x="190" y="167" type="curve" smooth="yes"/>
      <point x="190" y="103"/>
      <point x="234" y="33"/>
      <point x="342" y="33" type="curve" smooth="yes"/>
      <point x="458" y="33"/>
      <point x="548" y="124"/>
      <point x="548" y="231" type="curve" smooth="yes"/>
      <point x="548" y="336"/>
      <point x="467" y="425"/>
      <point x="337" y="425" type="curve" smooth="yes"/>
      <point x="195" y="425"/>
      <point x="65" y="319"/>
      <point x="65" y="163" type="curve" smooth="yes"/>
      <point x="65" y="-8"/>
      <point x="206" y="-86"/>
      <point x="313" y="-86" type="curve" smooth="yes"/>
    </contour>
    <contour>
      <point x="290" y="264" type="move" name="top"/>
    </contour>
    <contour>
      <point x="297" y="0" type="move" name="bottom"/>
    </contour>
  </outline>
</glyph>
<glyph name="ordfeminine" format="1">
  <advance width="250"/>
  <unicode hex="00AA"/>
  <outline>
    <contour>
      <point x="106" y="309"/>
      <point x="155" y="370"/>
      <point x="178" y="454" type="curve"/>
      <point x="169" y="445" type="line"/>
      <point x="169" y="366" type="line" smooth="yes"/>
      <point x="169" y="325"/>
      <point x="174" y="311"/>
      <point x="194" y="311" type="curve" smooth="yes"/>
      <point x="215" y="311"/>
      <point x="233" y="327"/>
      <point x="255" y="355" type="curve" smooth="yes"/>
      <point x="257" y="357"/>
      <point x="249" y="363"/>
      <point x="247" y="361" type="curve" smooth="yes"/>
      <point x="232" y="343"/>
      <point x="222" y="334"/>
      <point x="212" y="334" type="curve" smooth="yes"/>
      <point x="202" y="334"/>
      <point x="195" y="343"/>
      <point x="195" y="366" type="curve" smooth="yes"/>
      <point x="196" y="545" type="line" smooth="yes"/>
      <point x="196" y="547"/>
      <point x="185" y="548"/>
      <point x="185" y="546" type="curve" smooth="yes"/>
      <point x="184" y="531"/>
      <point x="174" y="519"/>
      <point x="166" y="517" type="curve"/>
      <point x="191" y="503" type="line"/>
      <point x="183" y="531"/>
      <point x="159" y="541"/>
      <point x="136" y="541" type="curve" smooth="yes"/>
      <point x="71" y="541"/>
      <point x="8" y="448"/>
      <point x="8" y="370" type="curve" smooth="yes"/>
      <point x="8" y="325"/>
      <point x="29" y="309"/>
      <point x="55" y="309" type="curve" smooth="yes"/>
    </contour>
    <contour>
      <point x="229" y="246" type="line" smooth="yes"/>
      <point x="234" y="246"/>
      <point x="234" y="268"/>
      <point x="228" y="268" type="curve" smooth="yes"/>
      <point x="16" y="268" type="line" smooth="yes"/>
      <point x="12" y="268"/>
      <point x="12" y="246"/>
      <point x="17" y="246" type="curve" smooth="yes"/>
    </contour>
    <contour>
      <point x="46" y="335"/>
      <point x="34" y="351"/>
      <point x="34" y="389" type="curve" smooth="yes"/>
      <point x="34" y="460"/>
      <point x="76" y="522"/>
      <point x="120" y="523" type="curve" smooth="yes"/>
      <point x="152" y="524"/>
      <point x="169" y="501"/>
      <point x="168" y="476" type="curve" smooth="yes"/>
      <point x="164" y="409"/>
      <point x="108" y="335"/>
      <point x="66" y="335" type="curve" smooth="yes"/>
    </contour>
    <contour>
      <point x="196" y="323" type="move" name="ogonek"/>
    </contour>
    <contour>
      <point x="52" y="316" type="move" name="bottom"/>
    </contour>
    <contour>
      <point x="53" y="534" type="move" name="top"/>
    </contour>
  </outline>
</glyph>
<glyph name="guillemetleft" format="1">
  <advance width="386"/>
  <unicode hex="00AB"/>
  <outline>
    <contour>
      <point x="203" y="31"/>
      <point x="208" y="37"/>
      <point x="207" y="39" type="curve" smooth="yes"/>
      <point x="96" y="172" type="line"/>
      <point x="207" y="304" type="line" smooth="yes"/>
      <point x="209" y="307"/>
      <point x="203" y="312"/>
      <point x="201" y="309" type="curve" smooth="yes"/>
      <point x="52" y="181" type="line" smooth="yes"/>
      <point x="47" y="176"/>
      <point x="47" y="167"/>
      <point x="52" y="162" type="curve" smooth="yes"/>
      <point x="201" y="34" type="line" smooth="yes"/>
    </contour>
    <contour>
      <point x="329" y="31"/>
      <point x="334" y="37"/>
      <point x="333" y="39" type="curve" smooth="yes"/>
      <point x="222" y="172" type="line"/>
      <point x="333" y="304" type="line" smooth="yes"/>
      <point x="335" y="307"/>
      <point x="329" y="312"/>
      <point x="327" y="309" type="curve" smooth="yes"/>
      <point x="178" y="181" type="line" smooth="yes"/>
      <point x="173" y="176"/>
      <point x="173" y="167"/>
      <point x="178" y="162" type="curve" smooth="yes"/>
      <point x="327" y="34" type="line" smooth="yes"/>
    </contour>
  </outline>
</glyph>
<glyph name="registered" format="1">
  <advance width="643"/>
  <unicode hex="00AE"/>
  <outline>
    <contour>
      <point x="457" y="118"/>
      <point x="578" y="235"/>
      <point x="578" y="386" type="curve" smooth="yes"/>
      <point x="578" y="511"/>
      <point x="485" y="620"/>
      <point x="337" y="620" type="curve" smooth="yes"/>
      <point x="195" y="620"/>
      <point x="65" y="514"/>
      <point x="65" y="368" type="curve" smooth="yes"/>
      <point x="65" y="204"/>
      <point x="196" y="118"/>
      <point x="315" y="118" type="curve" smooth="yes"/>
    </contour>
    <contour>
      <point x="218" y="232"/>
      <point x="245" y="233"/>
      <point x="265" y="233" type="curve" smooth="yes"/>
      <point x="290" y="233"/>
      <point x="310" y="232"/>
      <point x="327" y="232" type="curve" smooth="yes"/>
      <point x="329" y="232"/>
      <point x="329" y="242"/>
      <point x="327" y="242" type="curve" smooth="yes"/>
      <point x="287" y="242"/>
      <point x="281" y="246"/>
      <point x="281" y="280" type="curve" smooth="yes"/>
      <point x="281" y="462" type="line" smooth="yes"/>
      <point x="281" y="502"/>
      <point x="291" y="503"/>
      <point x="321" y="503" type="curve" smooth="yes"/>
      <point x="356" y="503"/>
      <point x="379" y="484"/>
      <point x="379" y="438" type="curve" smooth="yes"/>
      <point x="379" y="383"/>
      <point x="339" y="374"/>
      <point x="274" y="385" type="curve"/>
      <point x="274" y="368" type="line"/>
      <point x="363" y="363"/>
      <point x="411" y="400"/>
      <point x="411" y="458" type="curve" smooth="yes"/>
      <point x="411" y="497"/>
      <point x="384" y="514"/>
      <point x="335" y="514" type="curve" smooth="yes"/>
      <point x="316" y="514"/>
      <point x="286" y="511"/>
      <point x="265" y="511" type="curve" smooth="yes"/>
      <point x="245" y="511"/>
      <point x="221" y="512"/>
      <point x="204" y="512" type="curve" smooth="yes"/>
      <point x="202" y="512"/>
      <point x="202" y="502"/>
      <point x="204" y="502" type="curve" smooth="yes"/>
      <point x="245" y="502"/>
      <point x="251" y="495"/>
      <point x="251" y="464" type="curve" smooth="yes"/>
      <point x="251" y="280" type="line" smooth="yes"/>
      <point x="251" y="246"/>
      <point x="245" y="242"/>
      <point x="204" y="242" type="curve" smooth="yes"/>
      <point x="202" y="242"/>
      <point x="202" y="232"/>
      <point x="204" y="232" type="curve" smooth="yes"/>
    </contour>
    <contour>
      <point x="230" y="143"/>
      <point x="98" y="225"/>
      <point x="98" y="387" type="curve" smooth="yes"/>
      <point x="98" y="500"/>
      <point x="173" y="600"/>
      <point x="311" y="600" type="curve" smooth="yes"/>
      <point x="448" y="600"/>
      <point x="551" y="495"/>
      <point x="551" y="362" type="curve" smooth="yes"/>
      <point x="551" y="227"/>
      <point x="464" y="143"/>
      <point x="336" y="143" type="curve" smooth="yes"/>
    </contour>
    <contour>
      <point x="429" y="232"/>
      <point x="451" y="232"/>
      <point x="483" y="232" type="curve" smooth="yes"/>
      <point x="485" y="232"/>
      <point x="485" y="239"/>
      <point x="483" y="239" type="curve" smooth="yes"/>
      <point x="437" y="239"/>
      <point x="418" y="279"/>
      <point x="363" y="384" type="curve"/>
      <point x="332" y="372" type="line"/>
      <point x="376" y="287"/>
      <point x="408" y="232"/>
      <point x="420" y="232" type="curve" smooth="yes"/>
    </contour>
    <contour>
      <point x="308" y="509" type="move" name="top"/>
    </contour>
    <contour>
      <point x="341" y="229" type="move" name="bottom"/>
    </contour>
  </outline>
</glyph>
<glyph name="macron" format="1">
  <advance width="285"/>
  <unicode hex="00AF"/>
  <outline>
    <contour>
      <point x="246" y="410" type="line" smooth="yes"/>
      <point x="252" y="410"/>
      <point x="252" y="433"/>
      <point x="246" y="433" type="curve" smooth="yes"/>
      <point x="41" y="433" type="line" smooth="yes"/>
      <point x="35" y="433"/>
      <point x="35" y="410"/>
      <point x="41" y="410" type="curve" smooth="yes"/>
    </contour>
    <contour>
      <point x="138" y="330" type="move" name="_top"/>
    </contour>
  </outline>
</glyph>
<glyph name="plusminus" format="1">
  <advance width="340"/>
  <unicode hex="00B1"/>
  <outline>
    <contour>
      <point x="311" y="1" type="line" smooth="yes"/>
      <point x="316" y="1"/>
      <point x="316" y="30"/>
      <point x="311" y="30" type="curve" smooth="yes"/>
      <point x="28" y="30" type="line" smooth="yes"/>
      <point x="24" y="30"/>
      <point x="24" y="1"/>
      <point x="29" y="1" type="curve" smooth="yes"/>
    </contour>
    <contour>
      <point x="311" y="200" type="line" smooth="yes"/>
      <point x="316" y="200"/>
      <point x="316" y="232"/>
      <point x="311" y="232" type="curve" smooth="yes"/>
      <point x="28" y="232" type="line" smooth="yes"/>
      <point x="24" y="232"/>
      <point x="24" y="200"/>
      <point x="29" y="200" type="curve" smooth="yes"/>
    </contour>
    <contour>
      <point x="186" y="357" type="line" smooth="yes"/>
      <point x="186" y="362"/>
      <point x="154" y="362"/>
      <point x="154" y="357" type="curve" smooth="yes"/>
      <point x="154" y="74" type="line" smooth="yes"/>
      <point x="154" y="70"/>
      <point x="186" y="70"/>
      <point x="186" y="75" type="curve" smooth="yes"/>
    </contour>
  </outline>
</glyph>
<glyph name="twosuperior" format="1">
  <advance width="214"/>
  <unicode hex="00B2"/>
  <outline>
    <contour>
      <point x="28" y="346"/>
      <point x="29" y="344"/>
      <point x="32" y="344" type="curve" smooth="yes"/>
      <point x="77" y="344"/>
      <point x="137" y="344"/>
      <point x="180" y="344" type="curve" smooth="yes"/>
      <point x="182" y="344"/>
      <point x="184" y="346"/>
      <point x="184" y="348" type="curve" smooth="yes"/>
      <point x="185" y="420" type="line" smooth="yes"/>
      <point x="185" y="422"/>
      <point x="180" y="422"/>
      <point x="180" y="420" type="curve" smooth="yes"/>
      <point x="165" y="372"/>
      <point x="166" y="371"/>
      <point x="57" y="371" type="curve" smooth="yes"/>
      <point x="55" y="371"/>
      <point x="55" y="372"/>
      <point x="55" y="374" type="curve" smooth="yes"/>
      <point x="73" y="420"/>
      <point x="172" y="503"/>
      <point x="172" y="563" type="curve" smooth="yes"/>
      <point x="172" y="596"/>
      <point x="150" y="623"/>
      <point x="105" y="623" type="curve" smooth="yes"/>
      <point x="57" y="623"/>
      <point x="35" y="593"/>
      <point x="25" y="558" type="curve" smooth="yes"/>
      <point x="24" y="554"/>
      <point x="34" y="552"/>
      <point x="35" y="556" type="curve" smooth="yes"/>
      <point x="42" y="584"/>
      <point x="63" y="606"/>
      <point x="92" y="606" type="curve" smooth="yes"/>
      <point x="119" y="606"/>
      <point x="137" y="587"/>
      <point x="137" y="556" type="curve" smooth="yes"/>
      <point x="137" y="488"/>
      <point x="45" y="398"/>
      <point x="29" y="349" type="curve" smooth="yes"/>
    </contour>
  </outline>
</glyph>
<glyph name="paragraph" format="1">
  <advance width="542"/>
  <unicode hex="00B6"/>
  <outline>
    <contour>
      <point x="378" y="-165"/>
      <point x="418" y="-100"/>
      <point x="418" y="47" type="curve" smooth="yes"/>
      <point x="417" y="455" type="line" smooth="yes"/>
      <point x="417" y="499"/>
      <point x="444" y="524"/>
      <point x="493" y="524" type="curve" smooth="yes"/>
      <point x="496" y="524"/>
      <point x="496" y="534"/>
      <point x="493" y="534" type="curve" smooth="yes"/>
      <point x="465" y="534"/>
      <point x="431" y="532"/>
      <point x="399" y="532" type="curve" smooth="yes"/>
      <point x="349" y="532"/>
      <point x="310" y="537"/>
      <point x="272" y="537" type="curve" smooth="yes"/>
      <point x="133" y="537"/>
      <point x="46" y="468"/>
      <point x="46" y="330" type="curve" smooth="yes"/>
      <point x="46" y="160"/>
      <point x="179" y="104"/>
      <point x="295" y="104" type="curve" smooth="yes"/>
      <point x="324" y="104"/>
      <point x="347" y="105"/>
      <point x="370" y="107" type="curve"/>
      <point x="370" y="7" type="line" smooth="yes"/>
      <point x="370" y="-102"/>
      <point x="357" y="-145"/>
      <point x="323" y="-145" type="curve" smooth="yes"/>
      <point x="280" y="-145"/>
      <point x="295" y="-105"/>
      <point x="259" y="-105" type="curve" smooth="yes"/>
      <point x="245" y="-105"/>
      <point x="236" y="-115"/>
      <point x="236" y="-132" type="curve" smooth="yes"/>
      <point x="236" y="-149"/>
      <point x="254" y="-165"/>
      <point x="280" y="-165" type="curve" smooth="yes"/>
    </contour>
  </outline>
</glyph>
<glyph name="cedilla" format="1">
  <advance width="168"/>
  <unicode hex="00B8"/>
  <outline>
    <contour>
      <point x="122" y="-235"/>
      <point x="143" y="-191"/>
      <point x="142" y="-161" type="curve" smooth="yes"/>
      <point x="143" y="-136"/>
      <point x="125" y="-113"/>
      <point x="103" y="-89" type="curve" smooth="yes"/>
      <point x="77" y="-62"/>
      <point x="72" y="-42"/>
      <point x="84" y="0" type="curve"/>
      <point x="74" y="0" type="line"/>
      <point x="58" y="-51" type="line" smooth="yes"/>
      <point x="50" y="-77"/>
      <point x="60" y="-100"/>
      <point x="78" y="-118" type="curve" smooth="yes"/>
      <point x="104" y="-144"/>
      <point x="118" y="-164"/>
      <point x="119" y="-184" type="curve" smooth="yes"/>
      <point x="118" y="-208"/>
      <point x="108" y="-219"/>
      <point x="92" y="-219" type="curve" smooth="yes"/>
      <point x="71" y="-219"/>
      <point x="65" y="-181"/>
      <point x="41" y="-181" type="curve" smooth="yes"/>
      <point x="30" y="-181"/>
      <point x="23" y="-187"/>
      <point x="23" y="-197" type="curve" smooth="yes"/>
      <point x="22" y="-223"/>
      <point x="47" y="-235"/>
      <point x="71" y="-235" type="curve" smooth="yes"/>
    </contour>
    <contour>
      <point x="69" y="0" type="move" name="_bottom"/>
    </contour>
  </outline>
</glyph>
<glyph name="onesuperior" format="1">
  <advance width="224"/>
  <unicode hex="00B9"/>
  <outline>
    <contour>
      <point x="62" y="344"/>
      <point x="90" y="346"/>
      <point x="118" y="346" type="curve" smooth="yes"/>
      <point x="145" y="346"/>
      <point x="169" y="344"/>
      <point x="189" y="344" type="curve" smooth="yes"/>
      <point x="192" y="344"/>
      <point x="192" y="354"/>
      <point x="189" y="354" type="curve" smooth="yes"/>
      <point x="137" y="354"/>
      <point x="133" y="359"/>
      <point x="133" y="413" type="curve" smooth="yes"/>
      <point x="133" y="616" type="line" smooth="yes"/>
      <point x="133" y="619"/>
      <point x="129" y="624"/>
      <point x="125" y="622" type="curve" smooth="yes"/>
      <point x="31" y="575" type="line" smooth="yes"/>
      <point x="26" y="573"/>
      <point x="32" y="564"/>
      <point x="36" y="566" type="curve" smooth="yes"/>
      <point x="109" y="598"/>
      <point x="101" y="593"/>
      <point x="101" y="514" type="curve" smooth="yes"/>
      <point x="101" y="413" type="line" smooth="yes"/>
      <point x="101" y="359"/>
      <point x="96" y="354"/>
      <point x="42" y="354" type="curve" smooth="yes"/>
      <point x="39" y="354"/>
      <point x="39" y="344"/>
      <point x="42" y="344" type="curve" smooth="yes"/>
    </contour>
  </outline>
</glyph>
<glyph name="ordmasculine" format="1">
  <advance width="243"/>
  <unicode hex="00BA"/>
  <outline>
    <contour>
      <point x="169" y="307"/>
      <point x="221" y="358"/>
      <point x="221" y="423" type="curve" smooth="yes"/>
      <point x="221" y="480"/>
      <point x="182" y="539"/>
      <point x="118" y="539" type="curve" smooth="yes"/>
      <point x="69" y="539"/>
      <point x="8" y="504"/>
      <point x="8" y="426" type="curve" smooth="yes"/>
      <point x="8" y="363"/>
      <point x="49" y="307"/>
      <point x="110" y="307" type="curve" smooth="yes"/>
    </contour>
    <contour>
      <point x="229" y="246" type="line" smooth="yes"/>
      <point x="234" y="246"/>
      <point x="234" y="268"/>
      <point x="228" y="268" type="curve" smooth="yes"/>
      <point x="20" y="268" type="line" smooth="yes"/>
      <point x="16" y="268"/>
      <point x="15" y="246"/>
      <point x="21" y="246" type="curve" smooth="yes"/>
    </contour>
    <contour>
      <point x="73" y="322"/>
      <point x="38" y="375"/>
      <point x="38" y="442" type="curve" smooth="yes"/>
      <point x="38" y="499"/>
      <point x="64" y="524"/>
      <point x="101" y="524" type="curve" smooth="yes"/>
      <point x="155" y="524"/>
      <point x="191" y="472"/>
      <point x="191" y="409" type="curve" smooth="yes"/>
      <point x="191" y="351"/>
      <point x="161" y="322"/>
      <point x="124" y="322" type="curve" smooth="yes"/>
    </contour>
    <contour>
      <point x="112" y="532" type="move" name="top"/>
    </contour>
  </outline>
</glyph>
<glyph name="AE" format="1">
  <advance width="712"/>
  <unicode hex="00C6"/>
  <outline>
    <contour>
      <point x="5" y="0"/>
      <point x="23" y="3"/>
      <point x="62" y="3" type="curve" smooth="yes"/>
      <point x="105" y="3"/>
      <point x="127" y="0"/>
      <point x="161" y="0" type="curve" smooth="yes"/>
      <point x="166" y="0"/>
      <point x="167" y="10"/>
      <point x="161" y="10" type="curve" smooth="yes"/>
      <point x="84" y="10"/>
      <point x="81" y="42"/>
      <point x="125" y="105" type="curve" smooth="yes"/>
      <point x="388" y="515" type="line"/>
      <point x="364" y="524" type="line"/>
      <point x="387" y="69" type="line" smooth="yes"/>
      <point x="388" y="20"/>
      <point x="373" y="10"/>
      <point x="310" y="10" type="curve" smooth="yes"/>
      <point x="304" y="10"/>
      <point x="304" y="0"/>
      <point x="310" y="0" type="curve" smooth="yes"/>
      <point x="663" y="0" type="line" smooth="yes"/>
      <point x="673" y="0"/>
      <point x="676" y="3"/>
      <point x="676" y="13" type="curve" smooth="yes"/>
      <point x="676" y="48"/>
      <point x="680" y="94"/>
      <point x="683" y="124" type="curve" smooth="yes"/>
      <point x="685" y="127"/>
      <point x="673" y="129"/>
      <point x="673" y="126" type="curve" smooth="yes"/>
      <point x="663" y="61"/>
      <point x="629" y="15"/>
      <point x="584" y="15" type="curve" smooth="yes"/>
      <point x="504" y="15" type="line" smooth="yes"/>
      <point x="442" y="15"/>
      <point x="432" y="25"/>
      <point x="432" y="73" type="curve" smooth="yes"/>
      <point x="410" y="464" type="line" smooth="yes"/>
      <point x="410" y="513"/>
      <point x="421" y="522"/>
      <point x="504" y="522" type="curve" smooth="yes"/>
      <point x="545" y="522" type="line" smooth="yes"/>
      <point x="603" y="522"/>
      <point x="635" y="481"/>
      <point x="636" y="422" type="curve" smooth="yes"/>
      <point x="635" y="419"/>
      <point x="646" y="419"/>
      <point x="647" y="422" type="curve" smooth="yes"/>
      <point x="646" y="446"/>
      <point x="645" y="496"/>
      <point x="644" y="527" type="curve" smooth="yes"/>
      <point x="644" y="532"/>
      <point x="643" y="534"/>
      <point x="636" y="534" type="curve" smooth="yes"/>
      <point x="288" y="534" type="line" smooth="yes"/>
      <point x="282" y="534"/>
      <point x="282" y="524"/>
      <point x="288" y="524" type="curve" smooth="yes"/>
      <point x="358" y="524"/>
      <point x="365" y="521"/>
      <point x="345" y="491" type="curve" smooth="yes"/>
      <point x="103" y="113" type="line" smooth="yes"/>
      <point x="46" y="32"/>
      <point x="19" y="10"/>
      <point x="-28" y="10" type="curve" smooth="yes"/>
      <point x="-34" y="10"/>
      <point x="-33" y="0"/>
      <point x="-28" y="0" type="curve" smooth="yes"/>
    </contour>
    <contour>
      <point x="416" y="270" type="line"/>
      <point x="411" y="286" type="line"/>
      <point x="237" y="286" type="line"/>
      <point x="223" y="270" type="line"/>
    </contour>
    <contour>
      <point x="614" y="229"/>
      <point x="612" y="252"/>
      <point x="612" y="278" type="curve" smooth="yes"/>
      <point x="612" y="297"/>
      <point x="612" y="314"/>
      <point x="612" y="347" type="curve" smooth="yes"/>
      <point x="612" y="351"/>
      <point x="602" y="351"/>
      <point x="602" y="347" type="curve" smooth="yes"/>
      <point x="601" y="304"/>
      <point x="586" y="286"/>
      <point x="534" y="286" type="curve" smooth="yes"/>
      <point x="411" y="286" type="line"/>
      <point x="411" y="270" type="line" smooth="yes"/>
      <point x="530" y="270" type="line" smooth="yes"/>
      <point x="585" y="270"/>
      <point x="604" y="252"/>
      <point x="604" y="201" type="curve" smooth="yes"/>
      <point x="604" y="198"/>
      <point x="614" y="198"/>
      <point x="614" y="201" type="curve" smooth="yes"/>
    </contour>
    <contour>
      <point x="191" y="10" type="move" name="ogonek"/>
    </contour>
    <contour>
      <point x="485" y="534" type="move" name="top"/>
    </contour>
  </outline>
</glyph>
<glyph name="Eth" format="1">
  <advance width="560"/>
  <unicode hex="00D0"/>
  <outline>
    <contour>
      <point x="250" y="258" type="line" smooth="yes"/>
      <point x="255" y="258"/>
      <point x="255" y="274"/>
      <point x="250" y="274" type="curve" smooth="yes"/>
      <point x="26" y="274" type="line" smooth="yes"/>
      <point x="21" y="274"/>
      <point x="21" y="258"/>
      <point x="26" y="258" type="curve" smooth="yes"/>
    </contour>
    <component base="D"/>
  </outline>
</glyph>
<glyph name="Oslash" format="1">
  <advance width="624"/>
  <unicode hex="00D8"/>
  <outline>
    <contour>
      <point x="524" y="528" type="line" smooth="yes"/>
      <point x="527" y="532"/>
      <point x="513" y="541"/>
      <point x="510" y="538" type="curve" smooth="yes"/>
      <point x="80" y="6" type="line" smooth="yes"/>
      <point x="77" y="2"/>
      <point x="91" y="-9"/>
      <point x="93" y="-6" type="curve" smooth="yes"/>
    </contour>
    <component base="O"/>
    <contour>
      <point x="303" y="534" type="move" name="top"/>
    </contour>
  </outline>
</glyph>
<glyph name="Thorn" format="1">
  <advance width="489"/>
  <unicode hex="00DE"/>
  <outline>
    <contour>
      <point x="60" y="0"/>
      <point x="95" y="2"/>
      <point x="129" y="2" type="curve" smooth="yes"/>
      <point x="175" y="2"/>
      <point x="214" y="0"/>
      <point x="245" y="0" type="curve" smooth="yes"/>
      <point x="248" y="0"/>
      <point x="248" y="10"/>
      <point x="245" y="10" type="curve" smooth="yes"/>
      <point x="160" y="10"/>
      <point x="152" y="19"/>
      <point x="152" y="69" type="curve" smooth="yes"/>
      <point x="151" y="463" type="line" smooth="yes"/>
      <point x="152" y="518"/>
      <point x="162" y="524"/>
      <point x="247" y="524" type="curve" smooth="yes"/>
      <point x="250" y="524"/>
      <point x="250" y="534"/>
      <point x="247" y="534" type="curve" smooth="yes"/>
      <point x="217" y="534"/>
      <point x="177" y="532"/>
      <point x="129" y="532" type="curve"/>
      <point x="94" y="532"/>
      <point x="62" y="534"/>
      <point x="38" y="534" type="curve" smooth="yes"/>
      <point x="34" y="534"/>
      <point x="35" y="524"/>
      <point x="38" y="524" type="curve" smooth="yes"/>
      <point x="98" y="524"/>
      <point x="107" y="514"/>
      <point x="108" y="465" type="curve" smooth="yes"/>
      <point x="108" y="69" type="line" smooth="yes"/>
      <point x="108" y="20"/>
      <point x="96" y="10"/>
      <point x="36" y="10" type="curve" smooth="yes"/>
      <point x="32" y="10"/>
      <point x="33" y="0"/>
      <point x="36" y="0" type="curve" smooth="yes"/>
    </contour>
    <contour>
      <point x="320" y="109"/>
      <point x="456" y="158"/>
      <point x="456" y="280" type="curve" smooth="yes"/>
      <point x="456" y="384"/>
      <point x="356" y="432"/>
      <point x="243" y="432" type="curve" smooth="yes"/>
      <point x="196" y="432"/>
      <point x="150" y="428"/>
      <point x="116" y="418" type="curve"/>
      <point x="124" y="408" type="line"/>
      <point x="146" y="415"/>
      <point x="170" y="421"/>
      <point x="224" y="421" type="curve" smooth="yes"/>
      <point x="318" y="421"/>
      <point x="403" y="362"/>
      <point x="403" y="267" type="curve" smooth="yes"/>
      <point x="403" y="165"/>
      <point x="303" y="121"/>
      <point x="214" y="121" type="curve" smooth="yes"/>
      <point x="205" y="121"/>
      <point x="194" y="122"/>
      <point x="185" y="124" type="curve" smooth="yes"/>
      <point x="181" y="125"/>
      <point x="180" y="114"/>
      <point x="183" y="113" type="curve" smooth="yes"/>
      <point x="196" y="110"/>
      <point x="208" y="109"/>
      <point x="223" y="109" type="curve" smooth="yes"/>
    </contour>
  </outline>
</glyph>
<glyph name="germandbls" format="1">
  <advance width="405"/>
  <unicode hex="00DF"/>
  <outline>
    <contour>
      <point x="97" y="-235"/>
      <point x="116" y="-181"/>
      <point x="113" y="-18" type="curve" smooth="yes"/>
      <point x="106" y="381" type="line" smooth="yes"/>
      <point x="104" y="524"/>
      <point x="145" y="609"/>
      <point x="208" y="609" type="curve" smooth="yes"/>
      <point x="269" y="609"/>
      <point x="279" y="547"/>
      <point x="279" y="509" type="curve" smooth="yes"/>
      <point x="279" y="418"/>
      <point x="204" y="394"/>
      <point x="203" y="313" type="curve" smooth="yes"/>
      <point x="202" y="217"/>
      <point x="332" y="171"/>
      <point x="337" y="73" type="curve" smooth="yes"/>
      <point x="339" y="32"/>
      <point x="323" y="9"/>
      <point x="293" y="9" type="curve" smooth="yes"/>
      <point x="249" y="9"/>
      <point x="252" y="58"/>
      <point x="219" y="58" type="curve" smooth="yes"/>
      <point x="203" y="58"/>
      <point x="195" y="48"/>
      <point x="197" y="34" type="curve" smooth="yes"/>
      <point x="202" y="14"/>
      <point x="225" y="-9"/>
      <point x="269" y="-9" type="curve" smooth="yes"/>
      <point x="339" y="-9"/>
      <point x="372" y="54"/>
      <point x="370" y="102" type="curve" smooth="yes"/>
      <point x="368" y="200"/>
      <point x="234" y="256"/>
      <point x="233" y="347" type="curve" smooth="yes"/>
      <point x="232" y="409"/>
      <point x="321" y="456"/>
      <point x="321" y="536" type="curve" smooth="yes"/>
      <point x="321" y="569"/>
      <point x="301" y="621"/>
      <point x="226" y="621" type="curve" smooth="yes"/>
      <point x="127" y="621"/>
      <point x="64" y="534"/>
      <point x="67" y="383" type="curve" smooth="yes"/>
      <point x="72" y="-40" type="line" smooth="yes"/>
      <point x="74" y="-194"/>
      <point x="72" y="-220"/>
      <point x="49" y="-220" type="curve" smooth="yes"/>
      <point x="19" y="-220"/>
      <point x="25" y="-177"/>
      <point x="-12" y="-177" type="curve" smooth="yes"/>
      <point x="-30" y="-177"/>
      <point x="-40" y="-188"/>
      <point x="-38" y="-201" type="curve" smooth="yes"/>
      <point x="-37" y="-218"/>
      <point x="-19" y="-235"/>
      <point x="23" y="-235" type="curve" smooth="yes"/>
    </contour>
  </outline>
</glyph>
<glyph name="ae" format="1">
  <advance width="487"/>
  <unicode hex="00E6"/>
  <outline>
    <contour>
      <point x="172" y="-11"/>
      <point x="230" y="81"/>
      <point x="258" y="210" type="curve"/>
      <point x="265" y="235"/>
      <point x="270" y="259"/>
      <point x="278" y="284" type="curve"/>
      <point x="267" y="325"/>
      <point x="234" y="341"/>
      <point x="204" y="341" type="curve" smooth="yes"/>
      <point x="114" y="341"/>
      <point x="32" y="206"/>
      <point x="32" y="87" type="curve" smooth="yes"/>
      <point x="32" y="12"/>
      <point x="64" y="-11"/>
      <point x="100" y="-11" type="curve" smooth="yes"/>
    </contour>
    <contour>
      <point x="88" y="26"/>
      <point x="71" y="55"/>
      <point x="71" y="119" type="curve" smooth="yes"/>
      <point x="71" y="229"/>
      <point x="120" y="312"/>
      <point x="181" y="314" type="curve" smooth="yes"/>
      <point x="221" y="315"/>
      <point x="242" y="281"/>
      <point x="242" y="232" type="curve" smooth="yes"/>
      <point x="242" y="141"/>
      <point x="187" y="26"/>
      <point x="121" y="26" type="curve" smooth="yes"/>
    </contour>
    <contour>
      <point x="406" y="-10"/>
      <point x="438" y="3"/>
      <point x="471" y="38" type="curve" smooth="yes"/>
      <point x="474" y="41"/>
      <point x="466" y="49"/>
      <point x="463" y="46" type="curve" smooth="yes"/>
      <point x="442" y="24"/>
      <point x="418" y="14"/>
      <point x="385" y="14" type="curve" smooth="yes"/>
      <point x="312" y="14"/>
      <point x="284" y="110"/>
      <point x="284" y="197" type="curve" smooth="yes"/>
      <point x="284" y="273"/>
      <point x="317" y="325"/>
      <point x="367" y="325" type="curve" smooth="yes"/>
      <point x="404" y="325"/>
      <point x="415" y="294"/>
      <point x="415" y="276" type="curve" smooth="yes"/>
      <point x="414" y="231"/>
      <point x="328" y="205"/>
      <point x="269" y="188" type="curve"/>
      <point x="270" y="178" type="line"/>
      <point x="420" y="218"/>
      <point x="463" y="250"/>
      <point x="463" y="288" type="curve" smooth="yes"/>
      <point x="463" y="312"/>
      <point x="446" y="341"/>
      <point x="394" y="341" type="curve" smooth="yes"/>
      <point x="344" y="341"/>
      <point x="292" y="314"/>
      <point x="259" y="261" type="curve"/>
      <point x="241" y="180" type="line"/>
      <point x="238" y="63"/>
      <point x="285" y="-10"/>
      <point x="366" y="-10" type="curve" smooth="yes"/>
    </contour>
    <contour>
      <point x="282" y="330" type="move" name="top"/>
    </contour>
  </outline>
</glyph>
<glyph name="eth" format="1">
  <advance width="369"/>
  <unicode hex="00F0"/>
  <outline>
    <contour>
      <point x="266" y="-11"/>
      <point x="343" y="53"/>
      <point x="343" y="188" type="curve" smooth="yes"/>
      <point x="343" y="353"/>
      <point x="228" y="547"/>
      <point x="83" y="620" type="curve" smooth="yes"/>
      <point x="74" y="624"/>
      <point x="41" y="613"/>
      <point x="50" y="609" type="curve" smooth="yes"/>
      <point x="186" y="540"/>
      <point x="302" y="343"/>
      <point x="297" y="174" type="curve"/>
      <point x="301" y="285" type="line"/>
      <point x="275" y="321"/>
      <point x="231" y="341"/>
      <point x="190" y="341" type="curve" smooth="yes"/>
      <point x="119" y="341"/>
      <point x="27" y="283"/>
      <point x="27" y="161" type="curve" smooth="yes"/>
      <point x="27" y="69"/>
      <point x="80" y="-11"/>
      <point x="178" y="-11" type="curve" smooth="yes"/>
    </contour>
    <contour>
      <point x="121" y="4"/>
      <point x="72" y="87"/>
      <point x="72" y="182" type="curve" smooth="yes"/>
      <point x="72" y="276"/>
      <point x="121" y="326"/>
      <point x="180" y="326" type="curve" smooth="yes"/>
      <point x="270" y="326"/>
      <point x="297" y="270"/>
      <point x="297" y="171" type="curve" smooth="yes"/>
      <point x="297" y="51"/>
      <point x="257" y="4"/>
      <point x="199" y="4" type="curve" smooth="yes"/>
    </contour>
    <contour>
      <point x="311" y="535" type="line" smooth="yes"/>
      <point x="315" y="537"/>
      <point x="307" y="552"/>
      <point x="303" y="550" type="curve" smooth="yes"/>
      <point x="68" y="439" type="line" smooth="yes"/>
      <point x="62" y="437"/>
      <point x="71" y="422"/>
      <point x="74" y="424" type="curve" smooth="yes"/>
    </contour>
    <contour>
      <point x="182" y="330" type="move" name="top"/>
    </contour>
  </outline>
</glyph>
<glyph name="divide" format="1">
  <advance width="340"/>
  <unicode hex="00F7"/>
  <outline>
    <contour>
      <point x="311" y="146" type="line" smooth="yes"/>
      <point x="316" y="146"/>
      <point x="316" y="178"/>
      <point x="311" y="178" type="curve" smooth="yes"/>
      <point x="28" y="178" type="line" smooth="yes"/>
      <point x="24" y="178"/>
      <point x="24" y="146"/>
      <point x="29" y="146" type="curve" smooth="yes"/>
    </contour>
    <contour>
      <point x="193" y="-9"/>
      <point x="205" y="3"/>
      <point x="205" y="24" type="curve" smooth="yes"/>
      <point x="205" y="44"/>
      <point x="193" y="56"/>
      <point x="172" y="56" type="curve" smooth="yes"/>
      <point x="151" y="56"/>
      <point x="138" y="44"/>
      <point x="138" y="24" type="curve" smooth="yes"/>
      <point x="138" y="3"/>
      <point x="151" y="-9"/>
      <point x="172" y="-9" type="curve" smooth="yes"/>
    </contour>
    <contour>
      <point x="193" y="274"/>
      <point x="205" y="286"/>
      <point x="205" y="307" type="curve" smooth="yes"/>
      <point x="205" y="327"/>
      <point x="193" y="339"/>
      <point x="172" y="339" type="curve" smooth="yes"/>
      <point x="151" y="339"/>
      <point x="138" y="327"/>
      <point x="138" y="307" type="curve" smooth="yes"/>
      <point x="138" y="286"/>
      <point x="151" y="274"/>
      <point x="172" y="274" type="curve" smooth="yes"/>
    </contour>
  </outline>
</glyph>
<glyph name="oslash" format="1">
  <advance width="363"/>
  <unicode hex="00F8"/>
  <outline>
    <contour>
      <point x="321" y="330" type="line" smooth="yes"/>
      <point x="324" y="334"/>
      <point x="310" y="343"/>
      <point x="307" y="340" type="curve" smooth="yes"/>
      <point x="37" y="0" type="line" smooth="yes"/>
      <point x="34" y="-4"/>
      <point x="48" y="-15"/>
      <point x="50" y="-12" type="curve" smooth="yes"/>
    </contour>
    <component base="o"/>
    <contour>
      <point x="175" y="330" type="move" name="top"/>
    </contour>
  </outline>
</glyph>
<glyph name="Aogonek" format="1">
  <advance width="554"/>
  <unicode hex="0104"/>
  <outline>
    <contour>
      <point x="466" y="-235"/>
      <point x="487" y="-227"/>
      <point x="512" y="-207" type="curve" smooth="yes"/>
      <point x="514" y="-204"/>
      <point x="509" y="-198"/>
      <point x="505" y="-200" type="curve" smooth="yes"/>
      <point x="496" y="-206"/>
      <point x="485" y="-212"/>
      <point x="460" y="-212" type="curve" smooth="yes"/>
      <point x="392" y="-212"/>
      <point x="358" y="-166"/>
      <point x="358" y="-113" type="curve" smooth="yes"/>
      <point x="358" y="-46"/>
      <point x="411" y="1"/>
      <point x="497" y="1" type="curve" smooth="yes"/>
      <point x="512" y="1"/>
      <point x="523" y="0"/>
      <point x="555" y="0" type="curve" smooth="yes"/>
      <point x="559" y="0"/>
      <point x="557" y="10"/>
      <point x="553" y="10" type="curve" smooth="yes"/>
      <point x="500" y="10"/>
      <point x="485" y="22"/>
      <point x="464" y="82" type="curve" smooth="yes"/>
      <point x="299" y="542" type="line" smooth="yes"/>
      <point x="297" y="547"/>
      <point x="283" y="547"/>
      <point x="281" y="543" type="curve" smooth="yes"/>
      <point x="101" y="103" type="line" smooth="yes"/>
      <point x="68" y="28"/>
      <point x="25" y="10"/>
      <point x="-7" y="10" type="curve" smooth="yes"/>
      <point x="-12" y="10"/>
      <point x="-11" y="0"/>
      <point x="-7" y="0" type="curve" smooth="yes"/>
      <point x="25" y="0"/>
      <point x="45" y="3"/>
      <point x="82" y="3" type="curve" smooth="yes"/>
      <point x="114" y="3"/>
      <point x="148" y="0"/>
      <point x="172" y="0" type="curve" smooth="yes"/>
      <point x="178" y="0"/>
      <point x="178" y="10"/>
      <point x="173" y="10" type="curve" smooth="yes"/>
      <point x="117" y="10"/>
      <point x="92" y="22"/>
      <point x="131" y="114" type="curve" smooth="yes"/>
      <point x="285" y="502" type="line"/>
      <point x="272" y="487" type="line"/>
      <point x="417" y="72" type="line" smooth="yes"/>
      <point x="443" y="1"/>
      <point x="325" y="-34"/>
      <point x="327" y="-141" type="curve" smooth="yes"/>
      <point x="328" y="-200"/>
      <point x="365" y="-235"/>
      <point x="434" y="-235" type="curve" smooth="yes"/>
    </contour>
    <contour>
      <point x="376" y="290" type="line"/>
      <point x="370" y="306" type="line"/>
      <point x="205" y="306" type="line"/>
      <point x="194" y="290" type="line"/>
    </contour>
    <contour>
      <point x="415" y="10" type="move" name="ogonek"/>
    </contour>
    <contour>
      <point x="282" y="0" type="move" name="bottom"/>
    </contour>
    <contour>
      <point x="304" y="534" type="move" name="top"/>
    </contour>
  </outline>
</glyph>
<glyph name="aogonek" format="1">
  <advance width="401"/>
  <unicode hex="0105"/>
  <outline>
    <contour>
      <point x="357" y="-235"/>
      <point x="384" y="-224"/>
      <point x="413" y="-197" type="curve" smooth="yes"/>
      <point x="415" y="-194"/>
      <point x="408" y="-187"/>
      <point x="404" y="-189" type="curve" smooth="yes"/>
      <point x="391" y="-200"/>
      <point x="378" y="-212"/>
      <point x="350" y="-212" type="curve" smooth="yes"/>
      <point x="302" y="-212"/>
      <point x="277" y="-177"/>
      <point x="277" y="-134" type="curve" smooth="yes"/>
      <point x="277" y="-61"/>
      <point x="350" y="-7"/>
      <point x="408" y="59" type="curve" smooth="yes"/>
      <point x="410" y="62"/>
      <point x="401" y="69"/>
      <point x="398" y="66" type="curve" smooth="yes"/>
      <point x="376" y="40"/>
      <point x="356" y="24"/>
      <point x="342" y="24" type="curve" smooth="yes"/>
      <point x="325" y="24"/>
      <point x="315" y="35"/>
      <point x="315" y="76" type="curve" smooth="yes"/>
      <point x="317" y="348" type="line" smooth="yes"/>
      <point x="317" y="351"/>
      <point x="306" y="351"/>
      <point x="306" y="348" type="curve" smooth="yes"/>
      <point x="305" y="336"/>
      <point x="300" y="325"/>
      <point x="291" y="317" type="curve"/>
      <point x="273" y="334"/>
      <point x="249" y="341"/>
      <point x="226" y="341" type="curve" smooth="yes"/>
      <point x="127" y="341"/>
      <point x="28" y="203"/>
      <point x="32" y="78" type="curve" smooth="yes"/>
      <point x="36" y="14"/>
      <point x="64" y="-11"/>
      <point x="104" y="-11" type="curve" smooth="yes"/>
      <point x="172" y="-11"/>
      <point x="237" y="64"/>
      <point x="274" y="170" type="curve"/>
      <point x="276" y="50" type="line" smooth="yes"/>
      <point x="276" y="13"/>
      <point x="294" y="-8"/>
      <point x="315" y="-8" type="curve" smooth="yes"/>
      <point x="326" y="-8"/>
      <point x="333" y="-5"/>
      <point x="340" y="-1" type="curve"/>
      <point x="353" y="18" type="line"/>
      <point x="305" y="-28"/>
      <point x="241" y="-95"/>
      <point x="241" y="-155" type="curve" smooth="yes"/>
      <point x="241" y="-198"/>
      <point x="274" y="-235"/>
      <point x="327" y="-235" type="curve" smooth="yes"/>
    </contour>
    <contour>
      <point x="89" y="26"/>
      <point x="72" y="55"/>
      <point x="71" y="109" type="curve" smooth="yes"/>
      <point x="68" y="224"/>
      <point x="134" y="312"/>
      <point x="203" y="314" type="curve" smooth="yes"/>
      <point x="251" y="315"/>
      <point x="277" y="281"/>
      <point x="274" y="242" type="curve" smooth="yes"/>
      <point x="270" y="141"/>
      <point x="197" y="26"/>
      <point x="125" y="26" type="curve" smooth="yes"/>
    </contour>
    <contour>
      <point x="373" y="10" type="move" name="ogonek"/>
    </contour>
    <contour>
      <point x="148" y="0" type="move" name="bottom"/>
    </contour>
    <contour>
      <point x="219" y="330" type="move" name="top"/>
    </contour>
  </outline>
</glyph>
<glyph name="dcroat" format="1">
  <advance width="407"/>
  <unicode hex="0111"/>
  <outline>
    <contour>
      <point x="401" y="428" type="line" smooth="yes"/>
      <point x="406" y="428"/>
      <point x="406" y="444"/>
      <point x="401" y="444" type="curve" smooth="yes"/>
      <point x="156" y="444" type="line" smooth="yes"/>
      <point x="151" y="444"/>
      <point x="151" y="428"/>
      <point x="156" y="428" type="curve" smooth="yes"/>
    </contour>
    <component base="d"/>
  </outline>
</glyph>
<glyph name="eogonek" format="1">
  <advance width="309"/>
  <unicode hex="0119"/>
  <outline>
    <contour>
      <point x="255" y="-235"/>
      <point x="280" y="-224"/>
      <point x="306" y="-197" type="curve" smooth="yes"/>
      <point x="308" y="-194"/>
      <point x="301" y="-187"/>
      <point x="298" y="-189" type="curve" smooth="yes"/>
      <point x="286" y="-200"/>
      <point x="274" y="-212"/>
      <point x="249" y="-212" type="curve" smooth="yes"/>
      <point x="203" y="-212"/>
      <point x="181" y="-177"/>
      <point x="182" y="-132" type="curve" smooth="yes"/>
      <point x="184" y="-84"/>
      <point x="211" y="-45"/>
      <point x="299" y="38" type="curve"/>
      <point x="292" y="45" type="line"/>
      <point x="181" y="-45"/>
      <point x="150" y="-102"/>
      <point x="150" y="-153" type="curve" smooth="yes"/>
      <point x="150" y="-203"/>
      <point x="181" y="-235"/>
      <point x="228" y="-235" type="curve" smooth="yes"/>
    </contour>
    <component base="e"/>
  </outline>
</glyph>
<glyph name="iogonek" format="1">
  <advance width="222"/>
  <unicode hex="012F"/>
  <outline>
    <contour>
      <point x="173" y="-235"/>
      <point x="196" y="-224"/>
      <point x="222" y="-204" type="curve" smooth="yes"/>
      <point x="225" y="-201"/>
      <point x="219" y="-194"/>
      <point x="216" y="-196" type="curve" smooth="yes"/>
      <point x="205" y="-204"/>
      <point x="191" y="-212"/>
      <point x="168" y="-212" type="curve" smooth="yes"/>
      <point x="119" y="-212"/>
      <point x="95" y="-175"/>
      <point x="95" y="-135" type="curve" smooth="yes"/>
      <point x="95" y="-62"/>
      <point x="173" y="-2"/>
      <point x="226" y="59" type="curve" smooth="yes"/>
      <point x="228" y="62"/>
      <point x="219" y="69"/>
      <point x="216" y="66" type="curve" smooth="yes"/>
      <point x="194" y="40"/>
      <point x="174" y="24"/>
      <point x="160" y="24" type="curve" smooth="yes"/>
      <point x="144" y="24"/>
      <point x="134" y="41"/>
      <point x="134" y="76" type="curve" smooth="yes"/>
      <point x="134" y="254" type="line" smooth="yes"/>
      <point x="134" y="316"/>
      <point x="124" y="338"/>
      <point x="94" y="338" type="curve" smooth="yes"/>
      <point x="62" y="338"/>
      <point x="32" y="316"/>
      <point x="-1" y="273" type="curve" smooth="yes"/>
      <point x="-4" y="269"/>
      <point x="5" y="262"/>
      <point x="8" y="266" type="curve" smooth="yes"/>
      <point x="31" y="292"/>
      <point x="53" y="306"/>
      <point x="68" y="306" type="curve" smooth="yes"/>
      <point x="84" y="306"/>
      <point x="94" y="289"/>
      <point x="94" y="254" type="curve" smooth="yes"/>
      <point x="93" y="76" type="line" smooth="yes"/>
      <point x="93" y="14"/>
      <point x="104" y="-8"/>
      <point x="134" y="-8" type="curve" smooth="yes"/>
      <point x="145" y="-8"/>
      <point x="151" y="-5"/>
      <point x="159" y="-1" type="curve"/>
      <point x="171" y="18" type="line"/>
      <point x="111" y="-40"/>
      <point x="60" y="-98"/>
      <point x="60" y="-153" type="curve" smooth="yes"/>
      <point x="60" y="-197"/>
      <point x="93" y="-235"/>
      <point x="145" y="-235" type="curve" smooth="yes"/>
    </contour>
    <contour>
      <point x="123" y="442"/>
      <point x="135" y="454"/>
      <point x="135" y="475" type="curve" smooth="yes"/>
      <point x="135" y="495"/>
      <point x="123" y="507"/>
      <point x="102" y="507" type="curve" smooth="yes"/>
      <point x="81" y="507"/>
      <point x="68" y="495"/>
      <point x="68" y="475" type="curve" smooth="yes"/>
      <point x="68" y="454"/>
      <point x="81" y="442"/>
      <point x="102" y="442" type="curve" smooth="yes"/>
    </contour>
  </outline>
</glyph>
<glyph name="idotless" format="1">
  <advance width="222"/>
  <unicode hex="0131"/>
  <outline>
    <contour>
      <point x="168" y="-8"/>
      <point x="193" y="16"/>
      <point x="226" y="59" type="curve" smooth="yes"/>
      <point x="228" y="62"/>
      <point x="219" y="69"/>
      <point x="216" y="66" type="curve" smooth="yes"/>
      <point x="194" y="40"/>
      <point x="174" y="24"/>
      <point x="158" y="24" type="curve" smooth="yes"/>
      <point x="140" y="24"/>
      <point x="133" y="41"/>
      <point x="133" y="76" type="curve" smooth="yes"/>
      <point x="135" y="274" type="line" smooth="yes"/>
      <point x="135" y="318"/>
      <point x="121" y="338"/>
      <point x="92" y="338" type="curve" smooth="yes"/>
      <point x="61" y="338"/>
      <point x="32" y="313"/>
      <point x="0" y="270" type="curve" smooth="yes"/>
      <point x="-3" y="266"/>
      <point x="5" y="259"/>
      <point x="9" y="263" type="curve" smooth="yes"/>
      <point x="32" y="288"/>
      <point x="53" y="306"/>
      <point x="69" y="306" type="curve" smooth="yes"/>
      <point x="85" y="306"/>
      <point x="96" y="293"/>
      <point x="95" y="254" type="curve" smooth="yes"/>
      <point x="92" y="56" type="line" smooth="yes"/>
      <point x="91" y="14"/>
      <point x="109" y="-8"/>
      <point x="138" y="-8" type="curve" smooth="yes"/>
    </contour>
    <contour>
      <point x="141" y="10" type="move" name="ogonek"/>
    </contour>
    <contour>
      <point x="127" y="0" type="move" name="bottom"/>
    </contour>
    <contour>
      <point x="104" y="330" type="move" name="top"/>
    </contour>
  </outline>
</glyph>
<glyph name="IJ" format="1">
  <advance width="572"/>
  <unicode hex="0132"/>
  <outline>
    <contour>
      <point x="400" y="-11"/>
      <point x="482" y="70"/>
      <point x="482" y="221" type="curve" smooth="yes"/>
      <point x="481" y="463" type="line" smooth="yes"/>
      <point x="482" y="512"/>
      <point x="491" y="524"/>
      <point x="548" y="524" type="curve" smooth="yes"/>
      <point x="553" y="524"/>
      <point x="553" y="534"/>
      <point x="548" y="534" type="curve" smooth="yes"/>
      <point x="525" y="534"/>
      <point x="493" y="532"/>
      <point x="458" y="532" type="curve" smooth="yes"/>
      <point x="418" y="532"/>
      <point x="382" y="534"/>
      <point x="350" y="534" type="curve" smooth="yes"/>
      <point x="346" y="534"/>
      <point x="346" y="524"/>
      <point x="350" y="524" type="curve" smooth="yes"/>
      <point x="424" y="524"/>
      <point x="434" y="514"/>
      <point x="434" y="465" type="curve" smooth="yes"/>
      <point x="434" y="171" type="line" smooth="yes"/>
      <point x="434" y="68"/>
      <point x="390" y="1"/>
      <point x="279" y="1" type="curve" smooth="yes"/>
      <point x="118" y="1"/>
      <point x="189" y="143"/>
      <point x="123" y="143" type="curve" smooth="yes"/>
      <point x="109" y="143"/>
      <point x="101" y="133"/>
      <point x="101" y="116" type="curve" smooth="yes"/>
      <point x="100" y="61"/>
      <point x="175" y="-11"/>
      <point x="284" y="-11" type="curve" smooth="yes"/>
    </contour>
    <contour>
      <point x="59" y="230"/>
      <point x="93" y="232"/>
      <point x="129" y="232" type="curve" smooth="yes"/>
      <point x="169" y="232"/>
      <point x="203" y="230"/>
      <point x="230" y="230" type="curve" smooth="yes"/>
      <point x="234" y="230"/>
      <point x="234" y="240"/>
      <point x="229" y="240" type="curve" smooth="yes"/>
      <point x="163" y="240"/>
      <point x="155" y="250"/>
      <point x="155" y="299" type="curve" smooth="yes"/>
      <point x="155" y="463" type="line" smooth="yes"/>
      <point x="156" y="512"/>
      <point x="166" y="524"/>
      <point x="230" y="524" type="curve" smooth="yes"/>
      <point x="236" y="524"/>
      <point x="236" y="534"/>
      <point x="230" y="534" type="curve" smooth="yes"/>
      <point x="205" y="534"/>
      <point x="171" y="532"/>
      <point x="131" y="532" type="curve" smooth="yes"/>
      <point x="95" y="532"/>
      <point x="60" y="534"/>
      <point x="32" y="534" type="curve" smooth="yes"/>
      <point x="27" y="534"/>
      <point x="27" y="524"/>
      <point x="32" y="524" type="curve" smooth="yes"/>
      <point x="96" y="524"/>
      <point x="106" y="514"/>
      <point x="106" y="465" type="curve" smooth="yes"/>
      <point x="106" y="299" type="line" smooth="yes"/>
      <point x="106" y="250"/>
      <point x="96" y="240"/>
      <point x="32" y="240" type="curve" smooth="yes"/>
      <point x="27" y="240"/>
      <point x="27" y="230"/>
      <point x="33" y="230" type="curve" smooth="yes"/>
    </contour>
    <contour>
      <point x="135" y="10" type="move" name="ogonek"/>
    </contour>
    <contour>
      <point x="419" y="534" type="move" name="top"/>
    </contour>
  </outline>
</glyph>
<glyph name="ij" format="1">
  <advance width="369"/>
  <unicode hex="0133"/>
  <outline>
    <contour>
      <point x="254" y="-240"/>
      <point x="303" y="-164"/>
      <point x="304" y="-60" type="curve" smooth="yes"/>
      <point x="306" y="267" type="line" smooth="yes"/>
      <point x="306" y="297"/>
      <point x="308" y="328"/>
      <point x="308" y="332" type="curve" smooth="yes"/>
      <point x="307" y="335"/>
      <point x="304" y="337"/>
      <point x="289" y="337" type="curve" smooth="yes"/>
      <point x="276" y="337"/>
      <point x="269" y="332"/>
      <point x="269" y="325" type="curve" smooth="yes"/>
      <point x="268" y="254" type="line"/>
      <point x="269" y="-80" type="line" smooth="yes"/>
      <point x="270" y="-197"/>
      <point x="233" y="-222"/>
      <point x="195" y="-222" type="curve" smooth="yes"/>
      <point x="120" y="-222"/>
      <point x="121" y="-152"/>
      <point x="93" y="-152" type="curve" smooth="yes"/>
      <point x="83" y="-152"/>
      <point x="73" y="-158"/>
      <point x="73" y="-175" type="curve" smooth="yes"/>
      <point x="73" y="-211"/>
      <point x="112" y="-240"/>
      <point x="164" y="-240" type="curve" smooth="yes"/>
    </contour>
    <contour>
      <point x="224" y="-11"/>
      <point x="278" y="126"/>
      <point x="278" y="324" type="curve"/>
      <point x="269" y="325" type="line"/>
      <point x="267" y="130"/>
      <point x="215" y="18"/>
      <point x="159" y="18" type="curve" smooth="yes"/>
      <point x="122" y="18"/>
      <point x="105" y="50"/>
      <point x="107" y="118" type="curve" smooth="yes"/>
      <point x="111" y="254" type="line" smooth="yes"/>
      <point x="113" y="316"/>
      <point x="102" y="338"/>
      <point x="75" y="338" type="curve" smooth="yes"/>
      <point x="46" y="338"/>
      <point x="22" y="314"/>
      <point x="-9" y="271" type="curve" smooth="yes"/>
      <point x="-12" y="267"/>
      <point x="-4" y="260"/>
      <point x="0" y="264" type="curve" smooth="yes"/>
      <point x="20" y="290"/>
      <point x="38" y="306"/>
      <point x="51" y="306" type="curve" smooth="yes"/>
      <point x="66" y="306"/>
      <point x="76" y="289"/>
      <point x="75" y="254" type="curve" smooth="yes"/>
      <point x="71" y="102" type="line" smooth="yes"/>
      <point x="68" y="21"/>
      <point x="91" y="-11"/>
      <point x="140" y="-11" type="curve" smooth="yes"/>
    </contour>
    <component base="dotaccent" xOffset="20"/>
    <component base="dotaccent" xOffset="223"/>
  </outline>
</glyph>
<glyph name="kgreenlandic" format="1">
  <advance width="400"/>
  <unicode hex="0138"/>
  <outline>
    <contour>
      <point x="358" y="-8"/>
      <point x="384" y="10"/>
      <point x="420" y="57" type="curve" smooth="yes"/>
      <point x="423" y="61"/>
      <point x="414" y="68"/>
      <point x="411" y="64" type="curve" smooth="yes"/>
      <point x="388" y="38"/>
      <point x="369" y="26"/>
      <point x="351" y="26" type="curve" smooth="yes"/>
      <point x="334" y="26"/>
      <point x="316" y="35"/>
      <point x="281" y="77" type="curve" smooth="yes"/>
      <point x="195" y="181" type="line"/>
      <point x="118" y="157" type="line"/>
      <point x="149" y="164"/>
      <point x="159" y="160"/>
      <point x="178" y="137" type="curve" smooth="yes"/>
      <point x="249" y="50" type="line" smooth="yes"/>
      <point x="284" y="7"/>
      <point x="306" y="-8"/>
      <point x="331" y="-8" type="curve" smooth="yes"/>
    </contour>
    <contour>
      <point x="119" y="-7"/>
      <point x="127" y="-2"/>
      <point x="127" y="5" type="curve" smooth="yes"/>
      <point x="129" y="178" type="line"/>
      <point x="128" y="274" type="line" smooth="yes"/>
      <point x="128" y="318"/>
      <point x="115" y="338"/>
      <point x="86" y="338" type="curve" smooth="yes"/>
      <point x="55" y="338"/>
      <point x="26" y="313"/>
      <point x="-6" y="270" type="curve" smooth="yes"/>
      <point x="-9" y="266"/>
      <point x="-1" y="259"/>
      <point x="3" y="263" type="curve" smooth="yes"/>
      <point x="26" y="288"/>
      <point x="47" y="306"/>
      <point x="63" y="306" type="curve" smooth="yes"/>
      <point x="79" y="306"/>
      <point x="89" y="291"/>
      <point x="89" y="254" type="curve" smooth="yes"/>
      <point x="86" y="63" type="line" smooth="yes"/>
      <point x="85" y="33"/>
      <point x="84" y="2"/>
      <point x="84" y="-2" type="curve" smooth="yes"/>
      <point x="85" y="-5"/>
      <point x="89" y="-7"/>
      <point x="105" y="-7" type="curve" smooth="yes"/>
    </contour>
    <contour>
      <point x="252" y="186"/>
      <point x="340" y="241"/>
      <point x="341" y="290" type="curve" smooth="yes"/>
      <point x="341" y="304"/>
      <point x="334" y="341"/>
      <point x="277" y="341" type="curve" smooth="yes"/>
      <point x="207" y="341"/>
      <point x="133" y="286"/>
      <point x="102" y="208" type="curve"/>
      <point x="129" y="178" type="line"/>
      <point x="134" y="265"/>
      <point x="188" y="318"/>
      <point x="245" y="318" type="curve" smooth="yes"/>
      <point x="274" y="318"/>
      <point x="286" y="304"/>
      <point x="286" y="278" type="curve" smooth="yes"/>
      <point x="286" y="216"/>
      <point x="218" y="189"/>
      <point x="116" y="168" type="curve"/>
      <point x="118" y="157" type="line"/>
    </contour>
  </outline>
</glyph>
<glyph name="Lslash" format="1">
  <advance width="483"/>
  <unicode hex="0141"/>
  <outline>
    <contour>
      <point x="249" y="313" type="line" smooth="yes"/>
      <point x="253" y="315"/>
      <point x="242" y="329"/>
      <point x="238" y="327" type="curve" smooth="yes"/>
      <point x="70" y="219" type="line" smooth="yes"/>
      <point x="67" y="217"/>
      <point x="77" y="203"/>
      <point x="81" y="205" type="curve" smooth="yes"/>
    </contour>
    <component base="L" xOffset="29"/>
  </outline>
</glyph>
<glyph name="lslash" format="1">
  <advance width="221"/>
  <unicode hex="0142"/>
  <outline>
    <contour>
      <point x="170" y="333" type="line" smooth="yes"/>
      <point x="174" y="335"/>
      <point x="165" y="349"/>
      <point x="161" y="347" type="curve" smooth="yes"/>
      <point x="24" y="259" type="line" smooth="yes"/>
      <point x="21" y="257"/>
      <point x="30" y="243"/>
      <point x="34" y="245" type="curve" smooth="yes"/>
    </contour>
    <component base="l" xOffset="5"/>
  </outline>
</glyph>
<glyph name="eng" format="1">
  <advance width="394"/>
  <unicode hex="014B"/>
  <outline>
    <contour>
      <point x="323" y="-235"/>
      <point x="338" y="-191"/>
      <point x="340" y="-36" type="curve" smooth="yes"/>
      <point x="346" y="228" type="line" smooth="yes"/>
      <point x="347" y="309"/>
      <point x="322" y="341"/>
      <point x="274" y="341" type="curve" smooth="yes"/>
      <point x="176" y="341"/>
      <point x="118" y="204"/>
      <point x="118" y="6" type="curve"/>
      <point x="128" y="5" type="line"/>
      <point x="131" y="205"/>
      <point x="187" y="312"/>
      <point x="252" y="312" type="curve" smooth="yes"/>
      <point x="288" y="312"/>
      <point x="307" y="280"/>
      <point x="306" y="212" type="curve" smooth="yes"/>
      <point x="302" y="-55" type="line" smooth="yes"/>
      <point x="300" y="-175"/>
      <point x="296" y="-223"/>
      <point x="266" y="-223" type="curve" smooth="yes"/>
      <point x="239" y="-223"/>
      <point x="241" y="-177"/>
      <point x="214" y="-177" type="curve" smooth="yes"/>
      <point x="201" y="-177"/>
      <point x="191" y="-185"/>
      <point x="191" y="-201" type="curve" smooth="yes"/>
      <point x="192" y="-218"/>
      <point x="211" y="-235"/>
      <point x="249" y="-235" type="curve" smooth="yes"/>
    </contour>
    <contour>
      <point x="120" y="-7"/>
      <point x="128" y="-2"/>
      <point x="128" y="5" type="curve" smooth="yes"/>
      <point x="128" y="274" type="line" smooth="yes"/>
      <point x="128" y="318"/>
      <point x="115" y="338"/>
      <point x="86" y="338" type="curve" smooth="yes"/>
      <point x="55" y="338"/>
      <point x="26" y="313"/>
      <point x="-6" y="270" type="curve" smooth="yes"/>
      <point x="-9" y="266"/>
      <point x="-1" y="259"/>
      <point x="3" y="263" type="curve" smooth="yes"/>
      <point x="26" y="288"/>
      <point x="47" y="306"/>
      <point x="63" y="306" type="curve" smooth="yes"/>
      <point x="79" y="306"/>
      <point x="89" y="291"/>
      <point x="89" y="254" type="curve" smooth="yes"/>
      <point x="87" y="63" type="line" smooth="yes"/>
      <point x="87" y="33"/>
      <point x="85" y="2"/>
      <point x="85" y="-2" type="curve" smooth="yes"/>
      <point x="86" y="-5"/>
      <point x="90" y="-7"/>
      <point x="106" y="-7" type="curve" smooth="yes"/>
    </contour>
  </outline>
</glyph>
<glyph name="OE" format="1">
  <advance width="755"/>
  <unicode hex="0152"/>
  <outline>
    <contour>
      <point x="373" y="-3"/>
      <point x="420" y="0"/>
      <point x="458" y="0" type="curve" smooth="yes"/>
      <point x="706" y="0" type="line" smooth="yes"/>
      <point x="716" y="0"/>
      <point x="719" y="3"/>
      <point x="719" y="13" type="curve" smooth="yes"/>
      <point x="719" y="48"/>
      <point x="721" y="94"/>
      <point x="725" y="124" type="curve" smooth="yes"/>
      <point x="726" y="128"/>
      <point x="714" y="129"/>
      <point x="714" y="126" type="curve" smooth="yes"/>
      <point x="706" y="61"/>
      <point x="674" y="15"/>
      <point x="632" y="15" type="curve" smooth="yes"/>
      <point x="548" y="15" type="line" smooth="yes"/>
      <point x="486" y="15"/>
      <point x="476" y="25"/>
      <point x="476" y="73" type="curve" smooth="yes"/>
      <point x="476" y="464" type="line" smooth="yes"/>
      <point x="476" y="513"/>
      <point x="487" y="522"/>
      <point x="548" y="522" type="curve" smooth="yes"/>
      <point x="608" y="522" type="line"/>
      <point x="655" y="522"/>
      <point x="688" y="481"/>
      <point x="689" y="422" type="curve" smooth="yes"/>
      <point x="689" y="419"/>
      <point x="700" y="418"/>
      <point x="700" y="422" type="curve" smooth="yes"/>
      <point x="699" y="446"/>
      <point x="698" y="496"/>
      <point x="697" y="527" type="curve" smooth="yes"/>
      <point x="697" y="532"/>
      <point x="696" y="534"/>
      <point x="690" y="534" type="curve" smooth="yes"/>
      <point x="453" y="534" type="line" smooth="yes"/>
      <point x="414" y="534"/>
      <point x="362" y="536"/>
      <point x="331" y="536" type="curve" smooth="yes"/>
      <point x="174" y="536"/>
      <point x="38" y="428"/>
      <point x="38" y="257" type="curve" smooth="yes"/>
      <point x="38" y="110"/>
      <point x="161" y="-3"/>
      <point x="343" y="-3" type="curve" smooth="yes"/>
    </contour>
    <contour>
      <point x="188" y="8"/>
      <point x="95" y="126"/>
      <point x="95" y="276" type="curve" smooth="yes"/>
      <point x="95" y="437"/>
      <point x="197" y="525"/>
      <point x="339" y="525" type="curve" smooth="yes"/>
      <point x="415" y="525"/>
      <point x="428" y="503"/>
      <point x="428" y="454" type="curve" smooth="yes"/>
      <point x="430" y="70" type="line" smooth="yes"/>
      <point x="430" y="16"/>
      <point x="403" y="8"/>
      <point x="334" y="8" type="curve" smooth="yes"/>
    </contour>
    <contour>
      <point x="663" y="229"/>
      <point x="661" y="252"/>
      <point x="661" y="278" type="curve" smooth="yes"/>
      <point x="661" y="298"/>
      <point x="662" y="313"/>
      <point x="661" y="345" type="curve" smooth="yes"/>
      <point x="662" y="350"/>
      <point x="651" y="350"/>
      <point x="651" y="345" type="curve" smooth="yes"/>
      <point x="652" y="302"/>
      <point x="637" y="286"/>
      <point x="588" y="286" type="curve" smooth="yes"/>
      <point x="452" y="286" type="line"/>
      <point x="451" y="270" type="line" smooth="yes"/>
      <point x="584" y="270" type="line" smooth="yes"/>
      <point x="636" y="270"/>
      <point x="653" y="251"/>
      <point x="653" y="200" type="curve" smooth="yes"/>
      <point x="653" y="195"/>
      <point x="663" y="195"/>
      <point x="663" y="200" type="curve" smooth="yes"/>
    </contour>
    <contour>
      <point x="260" y="10" type="move" name="ogonek"/>
    </contour>
    <contour>
      <point x="104" y="0" type="move" name="bottom"/>
    </contour>
    <contour>
      <point x="197" y="534" type="move" name="top"/>
    </contour>
  </outline>
</glyph>
<glyph name="oe" format="1">
  <advance width="566"/>
  <unicode hex="0153"/>
  <outline>
    <contour>
      <point x="248" y="-12"/>
      <point x="325" y="56"/>
      <point x="326" y="165" type="curve" smooth="yes"/>
      <point x="326" y="260"/>
      <point x="293" y="341"/>
      <point x="193" y="341" type="curve" smooth="yes"/>
      <point x="95" y="341"/>
      <point x="27" y="262"/>
      <point x="27" y="157" type="curve" smooth="yes"/>
      <point x="27" y="63"/>
      <point x="81" y="-12"/>
      <point x="167" y="-12" type="curve" smooth="yes"/>
    </contour>
    <contour>
      <point x="115" y="9"/>
      <point x="62" y="110"/>
      <point x="62" y="192" type="curve" smooth="yes"/>
      <point x="62" y="266"/>
      <point x="104" y="321"/>
      <point x="169" y="321" type="curve" smooth="yes"/>
      <point x="261" y="321"/>
      <point x="292" y="208"/>
      <point x="292" y="127" type="curve" smooth="yes"/>
      <point x="292" y="52"/>
      <point x="249" y="9"/>
      <point x="196" y="9" type="curve" smooth="yes"/>
    </contour>
    <contour>
      <point x="480" y="-10"/>
      <point x="521" y="3"/>
      <point x="562" y="38" type="curve" smooth="yes"/>
      <point x="565" y="41"/>
      <point x="559" y="47"/>
      <point x="556" y="45" type="curve" smooth="yes"/>
      <point x="528" y="24"/>
      <point x="493" y="17"/>
      <point x="463" y="17" type="curve" smooth="yes"/>
      <point x="381" y="17"/>
      <point x="333" y="89"/>
      <point x="335" y="186" type="curve" smooth="yes"/>
      <point x="335" y="257"/>
      <point x="360" y="318"/>
      <point x="433" y="318" type="curve" smooth="yes"/>
      <point x="463" y="318"/>
      <point x="485" y="308"/>
      <point x="482" y="277" type="curve" smooth="yes"/>
      <point x="479" y="217"/>
      <point x="394" y="204"/>
      <point x="317" y="195" type="curve"/>
      <point x="317" y="182" type="line"/>
      <point x="394" y="191"/>
      <point x="532" y="233"/>
      <point x="535" y="295" type="curve" smooth="yes"/>
      <point x="536" y="323"/>
      <point x="511" y="341"/>
      <point x="467" y="341" type="curve" smooth="yes"/>
      <point x="362" y="341"/>
      <point x="292" y="243"/>
      <point x="291" y="152" type="curve" smooth="yes"/>
      <point x="291" y="68"/>
      <point x="339" y="-10"/>
      <point x="437" y="-10" type="curve" smooth="yes"/>
    </contour>
    <contour>
      <point x="313" y="330" type="move" name="top"/>
    </contour>
    <contour>
      <point x="303" y="0" type="move" name="bottom"/>
    </contour>
  </outline>
</glyph>
<glyph name="Tbar" format="1">
  <advance width="510"/>
  <unicode hex="0166"/>
  <outline>
    <contour>
      <point x="368" y="268" type="line" smooth="yes"/>
      <point x="373" y="268"/>
      <point x="373" y="284"/>
      <point x="368" y="284" type="curve" smooth="yes"/>
      <point x="148" y="284" type="line" smooth="yes"/>
      <point x="143" y="284"/>
      <point x="143" y="268"/>
      <point x="148" y="268" type="curve" smooth="yes"/>
    </contour>
    <component base="T"/>
  </outline>
</glyph>
<glyph name="tbar" format="1">
  <advance width="266"/>
  <unicode hex="0167"/>
  <outline>
    <contour>
      <point x="204" y="178" type="line" smooth="yes"/>
      <point x="209" y="178"/>
      <point x="209" y="194"/>
      <point x="204" y="194" type="curve" smooth="yes"/>
      <point x="39" y="194" type="line" smooth="yes"/>
      <point x="34" y="194"/>
      <point x="34" y="178"/>
      <point x="39" y="178" type="curve" smooth="yes"/>
    </contour>
    <component base="t"/>
  </outline>
</glyph>
<glyph name="uogonek" format="1">
  <advance width="426"/>
  <unicode hex="0173"/>
  <outline>
    <contour>
      <point x="379" y="-235"/>
      <point x="406" y="-224"/>
      <point x="435" y="-197" type="curve" smooth="yes"/>
      <point x="437" y="-194"/>
      <point x="430" y="-187"/>
      <point x="426" y="-189" type="curve" smooth="yes"/>
      <point x="413" y="-200"/>
      <point x="400" y="-212"/>
      <point x="372" y="-212" type="curve" smooth="yes"/>
      <point x="321" y="-212"/>
      <point x="296" y="-173"/>
      <point x="299" y="-128" type="curve" smooth="yes"/>
      <point x="302" y="-61"/>
      <point x="369" y="-10"/>
      <point x="430" y="59" type="curve" smooth="yes"/>
      <point x="432" y="62"/>
      <point x="423" y="69"/>
      <point x="420" y="66" type="curve" smooth="yes"/>
      <point x="398" y="40"/>
      <point x="378" y="24"/>
      <point x="364" y="24" type="curve" smooth="yes"/>
      <point x="347" y="24"/>
      <point x="337" y="41"/>
      <point x="337" y="76" type="curve" smooth="yes"/>
      <point x="338" y="267" type="line" smooth="yes"/>
      <point x="338" y="297"/>
      <point x="340" y="328"/>
      <point x="340" y="332" type="curve" smooth="yes"/>
      <point x="339" y="335"/>
      <point x="336" y="337"/>
      <point x="320" y="337" type="curve" smooth="yes"/>
      <point x="305" y="337"/>
      <point x="298" y="332"/>
      <point x="298" y="325" type="curve" smooth="yes"/>
      <point x="298" y="76" type="line" smooth="yes"/>
      <point x="298" y="14"/>
      <point x="307" y="-8"/>
      <point x="337" y="-8" type="curve" smooth="yes"/>
      <point x="348" y="-8"/>
      <point x="355" y="-5"/>
      <point x="362" y="-1" type="curve"/>
      <point x="375" y="18" type="line"/>
      <point x="314" y="-40"/>
      <point x="265" y="-98"/>
      <point x="263" y="-153" type="curve" smooth="yes"/>
      <point x="262" y="-197"/>
      <point x="295" y="-235"/>
      <point x="349" y="-235" type="curve" smooth="yes"/>
    </contour>
    <contour>
      <point x="248" y="-11"/>
      <point x="307" y="126"/>
      <point x="307" y="324" type="curve"/>
      <point x="298" y="325" type="line"/>
      <point x="295" y="130"/>
      <point x="238" y="18"/>
      <point x="177" y="18" type="curve" smooth="yes"/>
      <point x="136" y="18"/>
      <point x="117" y="50"/>
      <point x="119" y="118" type="curve" smooth="yes"/>
      <point x="124" y="254" type="line" smooth="yes"/>
      <point x="126" y="316"/>
      <point x="114" y="338"/>
      <point x="84" y="338" type="curve" smooth="yes"/>
      <point x="52" y="338"/>
      <point x="26" y="314"/>
      <point x="-8" y="271" type="curve" smooth="yes"/>
      <point x="-12" y="267"/>
      <point x="-3" y="260"/>
      <point x="2" y="264" type="curve" smooth="yes"/>
      <point x="24" y="290"/>
      <point x="43" y="306"/>
      <point x="58" y="306" type="curve" smooth="yes"/>
      <point x="74" y="306"/>
      <point x="85" y="289"/>
      <point x="84" y="254" type="curve" smooth="yes"/>
      <point x="80" y="102" type="line" smooth="yes"/>
      <point x="76" y="21"/>
      <point x="102" y="-11"/>
      <point x="156" y="-11" type="curve" smooth="yes"/>
    </contour>
    <contour>
      <point x="276" y="10" type="move" name="ogonek"/>
    </contour>
    <contour>
      <point x="201" y="330" type="move" name="top"/>
    </contour>
    <contour>
      <point x="409" y="330" type="move" name="topright"/>
    </contour>
    <contour>
      <point x="200" y="0" type="move" name="bottom"/>
    </contour>
  </outline>
</glyph>
<glyph name="Schwa" format="1">
  <advance width="546"/>
  <unicode hex="018F"/>
  <outline>
    <contour>
      <point x="380" y="-10"/>
      <point x="503" y="93"/>
      <point x="503" y="277" type="curve" smooth="yes"/>
      <point x="503" y="402"/>
      <point x="444" y="544"/>
      <point x="247" y="544" type="curve" smooth="yes"/>
      <point x="201" y="544"/>
      <point x="172" y="536"/>
      <point x="124" y="519" type="curve" smooth="yes"/>
      <point x="106" y="513"/>
      <point x="96" y="523"/>
      <point x="100" y="543" type="curve" smooth="yes"/>
      <point x="101" y="548"/>
      <point x="90" y="551"/>
      <point x="89" y="546" type="curve" smooth="yes"/>
      <point x="54" y="419" type="line" smooth="yes"/>
      <point x="53" y="415"/>
      <point x="65" y="411"/>
      <point x="67" y="416" type="curve" smooth="yes"/>
      <point x="92" y="498"/>
      <point x="181" y="534"/>
      <point x="248" y="534" type="curve" smooth="yes"/>
      <point x="373" y="534"/>
      <point x="448" y="408"/>
      <point x="448" y="246" type="curve" smooth="yes"/>
      <point x="448" y="98"/>
      <point x="386" y="6"/>
      <point x="265" y="6" type="curve" smooth="yes"/>
      <point x="170" y="6"/>
      <point x="103" y="63"/>
      <point x="104" y="150" type="curve"/>
      <point x="59" y="150" type="line" smooth="yes"/>
      <point x="52" y="150"/>
      <point x="49" y="148"/>
      <point x="49" y="139" type="curve" smooth="yes"/>
      <point x="49" y="80"/>
      <point x="101" y="-10"/>
      <point x="235" y="-10" type="curve" smooth="yes"/>
    </contour>
    <contour>
      <point x="452" y="135" type="line"/>
      <point x="450" y="151" type="line"/>
      <point x="91" y="150" type="line"/>
      <point x="90" y="131" type="line"/>
    </contour>
    <contour>
      <point x="326" y="534" type="move" name="top"/>
    </contour>
    <contour>
      <point x="259" y="0" type="move" name="bottom"/>
    </contour>
  </outline>
</glyph>
<glyph name="Uhorn" format="1">
  <advance width="641"/>
  <unicode hex="01AF"/>
  <outline>
    <contour>
      <point x="371" y="-10"/>
      <point x="434" y="24"/>
      <point x="511" y="107" type="curve"/>
      <point x="503" y="114" type="line"/>
      <point x="431" y="37"/>
      <point x="376" y="11"/>
      <point x="311" y="11" type="curve" smooth="yes"/>
      <point x="208" y="11"/>
      <point x="146" y="71"/>
      <point x="146" y="189" type="curve" smooth="yes"/>
      <point x="145" y="463" type="line" smooth="yes"/>
      <point x="146" y="512"/>
      <point x="156" y="524"/>
      <point x="216" y="524" type="curve" smooth="yes"/>
      <point x="219" y="524"/>
      <point x="219" y="534"/>
      <point x="216" y="534" type="curve" smooth="yes"/>
      <point x="192" y="534"/>
      <point x="157" y="532"/>
      <point x="121" y="532" type="curve" smooth="yes"/>
      <point x="86" y="532"/>
      <point x="54" y="534"/>
      <point x="30" y="534" type="curve" smooth="yes"/>
      <point x="27" y="534"/>
      <point x="27" y="524"/>
      <point x="30" y="524" type="curve" smooth="yes"/>
      <point x="91" y="524"/>
      <point x="100" y="514"/>
      <point x="101" y="465" type="curve" smooth="yes"/>
      <point x="101" y="159" type="line" smooth="yes"/>
      <point x="101" y="55"/>
      <point x="181" y="-10"/>
      <point x="293" y="-10" type="curve" smooth="yes"/>
    </contour>
    <contour>
      <point x="512" y="0"/>
      <point x="524" y="1"/>
      <point x="540" y="1" type="curve" smooth="yes"/>
      <point x="566" y="1"/>
      <point x="587" y="0"/>
      <point x="611" y="0" type="curve" smooth="yes"/>
      <point x="616" y="0"/>
      <point x="615" y="10"/>
      <point x="611" y="10" type="curve" smooth="yes"/>
      <point x="540" y="10"/>
      <point x="529" y="20"/>
      <point x="529" y="69" type="curve" smooth="yes"/>
      <point x="529" y="465" type="line" smooth="yes"/>
      <point x="529" y="503"/>
      <point x="530" y="516"/>
      <point x="559" y="524" type="curve" smooth="yes"/>
      <point x="577" y="531"/>
      <point x="655" y="545"/>
      <point x="655" y="603" type="curve" smooth="yes"/>
      <point x="655" y="626"/>
      <point x="643" y="647"/>
      <point x="621" y="647" type="curve" smooth="yes"/>
      <point x="608" y="647"/>
      <point x="592" y="638"/>
      <point x="592" y="620" type="curve" smooth="yes"/>
      <point x="592" y="602"/>
      <point x="608" y="592"/>
      <point x="608" y="575" type="curve" smooth="yes"/>
      <point x="608" y="550"/>
      <point x="568" y="532"/>
      <point x="505" y="532" type="curve" smooth="yes"/>
      <point x="467" y="532"/>
      <point x="435" y="534"/>
      <point x="409" y="534" type="curve" smooth="yes"/>
      <point x="405" y="534"/>
      <point x="405" y="524"/>
      <point x="409" y="524" type="curve" smooth="yes"/>
      <point x="474" y="524"/>
      <point x="485" y="512"/>
      <point x="483" y="463" type="curve" smooth="yes"/>
      <point x="485" y="16" type="line" smooth="yes"/>
      <point x="486" y="2"/>
      <point x="487" y="0"/>
      <point x="499" y="0" type="curve" smooth="yes"/>
    </contour>
    <contour>
      <point x="321" y="534" type="move" name="top"/>
    </contour>
    <contour>
      <point x="333" y="0" type="move" name="bottom"/>
    </contour>
  </outline>
</glyph>
<glyph name="jdotless" format="1">
  <advance width="213"/>
  <unicode hex="0237"/>
  <outline>
    <contour>
      <point x="125" y="-235"/>
      <point x="143" y="-192"/>
      <point x="142" y="-36" type="curve" smooth="yes"/>
      <point x="141" y="274" type="line" smooth="yes"/>
      <point x="141" y="318"/>
      <point x="128" y="338"/>
      <point x="99" y="338" type="curve" smooth="yes"/>
      <point x="68" y="338"/>
      <point x="39" y="313"/>
      <point x="7" y="270" type="curve" smooth="yes"/>
      <point x="4" y="266"/>
      <point x="12" y="259"/>
      <point x="16" y="263" type="curve" smooth="yes"/>
      <point x="39" y="288"/>
      <point x="60" y="306"/>
      <point x="76" y="306" type="curve" smooth="yes"/>
      <point x="92" y="306"/>
      <point x="102" y="291"/>
      <point x="102" y="254" type="curve" smooth="yes"/>
      <point x="104" y="-55" type="line" smooth="yes"/>
      <point x="104" y="-175"/>
      <point x="98" y="-223"/>
      <point x="68" y="-223" type="curve" smooth="yes"/>
      <point x="41" y="-223"/>
      <point x="43" y="-177"/>
      <point x="16" y="-177" type="curve" smooth="yes"/>
      <point x="3" y="-177"/>
      <point x="-7" y="-185"/>
      <point x="-7" y="-201" type="curve" smooth="yes"/>
      <point x="-6" y="-218"/>
      <point x="13" y="-235"/>
      <point x="51" y="-235" type="curve" smooth="yes"/>
    </contour>
    <contour>
      <point x="104" y="330" type="move" name="top"/>
    </contour>
  </outline>
</glyph>
<glyph name="ringhalfleft" format="1">
  <advance width="168"/>
  <unicode hex="02BF"/>
  <outline>
    <contour>
      <point x="129" y="400"/>
      <point x="129" y="410"/>
      <point x="124" y="410" type="curve" smooth="yes"/>
      <point x="91" y="410"/>
      <point x="70" y="432"/>
      <point x="70" y="467" type="curve" smooth="yes"/>
      <point x="70" y="502"/>
      <point x="91" y="524"/>
      <point x="124" y="524" type="curve" smooth="yes"/>
      <point x="129" y="524"/>
      <point x="129" y="534"/>
      <point x="124" y="534" type="curve" smooth="yes"/>
      <point x="68" y="534"/>
      <point x="35" y="506"/>
      <point x="35" y="465" type="curve" smooth="yes"/>
      <point x="35" y="423"/>
      <point x="70" y="400"/>
      <point x="124" y="400" type="curve" smooth="yes"/>
    </contour>
    <contour>
      <point x="84" y="330" type="move" name="_top"/>
    </contour>
  </outline>
</glyph>
<glyph name="circumflex" format="1">
  <advance width="204"/>
  <unicode hex="02C6"/>
  <outline>
    <component base="caron" xOffset="207" yOffset="1029" xScale="-1" yScale="-1"/>
    <contour>
      <point x="104" y="330" type="move" name="_top"/>
    </contour>
  </outline>
</glyph>
<glyph name="caron" format="1">
  <advance width="190"/>
  <unicode hex="02C7"/>
  <outline>
    <contour>
      <point x="93" y="402"/>
      <point x="107" y="402"/>
      <point x="108" y="408" type="curve" smooth="yes"/>
      <point x="158" y="621" type="line" smooth="yes"/>
      <point x="158" y="624"/>
      <point x="149" y="627"/>
      <point x="148" y="624" type="curve" smooth="yes"/>
      <point x="100" y="480" type="line"/>
      <point x="52" y="622" type="line" smooth="yes"/>
      <point x="52" y="625"/>
      <point x="42" y="624"/>
      <point x="43" y="621" type="curve" smooth="yes"/>
      <point x="92" y="408" type="line" smooth="yes"/>
    </contour>
    <contour>
      <point x="100" y="330" type="move" name="_top"/>
    </contour>
  </outline>
</glyph>
<glyph name="breve" format="1">
  <advance width="200"/>
  <unicode hex="02D8"/>
  <outline>
    <contour>
      <point x="134" y="405"/>
      <point x="172" y="431"/>
      <point x="186" y="483" type="curve" smooth="yes"/>
      <point x="186" y="486"/>
      <point x="173" y="492"/>
      <point x="171" y="486" type="curve" smooth="yes"/>
      <point x="161" y="451"/>
      <point x="137" y="433"/>
      <point x="113" y="433" type="curve" smooth="yes"/>
      <point x="88" y="433"/>
      <point x="64" y="451"/>
      <point x="54" y="489" type="curve" smooth="yes"/>
      <point x="53" y="495"/>
      <point x="18" y="489"/>
      <point x="20" y="478" type="curve" smooth="yes"/>
      <point x="29" y="430"/>
      <point x="63" y="405"/>
      <point x="98" y="405" type="curve" smooth="yes"/>
    </contour>
    <contour>
      <point x="109" y="330" type="move" name="_top"/>
    </contour>
  </outline>
</glyph>
<glyph name="ring" format="1">
  <advance width="213"/>
  <unicode hex="02DA"/>
  <outline>
    <contour>
      <point x="144" y="400"/>
      <point x="185" y="424"/>
      <point x="185" y="466" type="curve" smooth="yes"/>
      <point x="185" y="504"/>
      <point x="153" y="534"/>
      <point x="114" y="534" type="curve" smooth="yes"/>
      <point x="78" y="534"/>
      <point x="35" y="512"/>
      <point x="35" y="468" type="curve" smooth="yes"/>
      <point x="35" y="433"/>
      <point x="61" y="400"/>
      <point x="106" y="400" type="curve" smooth="yes"/>
    </contour>
    <contour>
      <point x="86" y="408"/>
      <point x="67" y="449"/>
      <point x="67" y="485" type="curve" smooth="yes"/>
      <point x="67" y="513"/>
      <point x="76" y="526"/>
      <point x="97" y="526" type="curve" smooth="yes"/>
      <point x="128" y="526"/>
      <point x="152" y="491"/>
      <point x="152" y="451" type="curve" smooth="yes"/>
      <point x="152" y="421"/>
      <point x="142" y="408"/>
      <point x="119" y="408" type="curve" smooth="yes"/>
    </contour>
    <contour>
      <point x="110" y="330" type="move" name="_top"/>
    </contour>
  </outline>
</glyph>
